<?xml version="1.0" encoding="UTF-8" standalone="no"?>
<!-- Generator: Adobe Illustrator 21.0.2, SVG Export Plug-In . SVG Version: 6.00 Build 0)  -->

<svg
   version="1.1"
   id="Layer_1"
   x="0px"
   y="0px"
   width="1856.6019"
   height="1852.5573"
   viewBox="0 0 1856.6019 1852.5573"
   enable-background="new 0 0 2272 1872"
   xml:space="preserve"
   sodipodi:docname="Free Particles Vector copy.svg"
   xmlns:inkscape="http://www.inkscape.org/namespaces/inkscape"
   xmlns:sodipodi="http://sodipodi.sourceforge.net/DTD/sodipodi-0.dtd"
   xmlns="http://www.w3.org/2000/svg"
   xmlns:svg="http://www.w3.org/2000/svg"><defs
   id="defs2687" /><sodipodi:namedview
   id="namedview2685"
   pagecolor="#ffffff"
   bordercolor="#000000"
   borderopacity="0.25"
   inkscape:showpageshadow="2"
   inkscape:pageopacity="0.0"
   inkscape:pagecheckerboard="0"
   inkscape:deskcolor="#d1d1d1"
   showgrid="false" />



<g
   id="g758"
   style="fill:#b3b3b3"
   transform="matrix(3.8060719,0,0,3.798559,-5841.5592,-286.7912)">
	<g
   id="g460"
   style="fill:#b3b3b3">
		<path
   fill="#FFFFFF"
   d="m 1778.7,132.3 v 0 c -3.5,0 -6.4,-2.9 -6.4,-6.4 v -44 c 0,-3.5 2.9,-6.4 6.4,-6.4 v 0 c 3.5,0 6.4,2.9 6.4,6.4 V 126 c -0.1,3.5 -2.9,6.3 -6.4,6.3 z"
   id="path388"
   style="fill:#b3b3b3" />
		<path
   fill="#FFFFFF"
   d="m 1746.2,135.2 v 0 c -3.4,0.6 -6.8,-1.7 -7.4,-5.2 l -7.7,-43.4 c -0.6,-3.4 1.7,-6.8 5.2,-7.4 v 0 c 3.4,-0.6 6.8,1.7 7.4,5.2 l 7.7,43.4 c 0.6,3.5 -1.7,6.8 -5.2,7.4 z"
   id="path390"
   style="fill:#b3b3b3" />
		<path
   fill="#FFFFFF"
   d="m 1714.7,143.6 v 0 c -3.3,1.2 -6.9,-0.5 -8.1,-3.8 l -15.1,-41.4 c -1.2,-3.3 0.5,-6.9 3.8,-8.1 v 0 c 3.3,-1.2 6.9,0.5 8.1,3.8 l 15.1,41.4 c 1.2,3.3 -0.5,6.9 -3.8,8.1 z"
   id="path392"
   style="fill:#b3b3b3" />
		<path
   fill="#FFFFFF"
   d="m 1685.2,157.4 v 0 c -3,1.7 -6.9,0.7 -8.7,-2.3 l -22,-38.2 c -1.7,-3 -0.7,-6.9 2.3,-8.7 v 0 c 3,-1.7 6.9,-0.7 8.7,2.3 l 22,38.2 c 1.8,3 0.7,6.9 -2.3,8.7 z"
   id="path394"
   style="fill:#b3b3b3" />
		<path
   fill="#FFFFFF"
   d="m 1658.5,176.1 v 0 c -2.7,2.2 -6.7,1.9 -9,-0.8 l -28.3,-33.8 c -2.2,-2.7 -1.9,-6.7 0.8,-9 v 0 c 2.7,-2.2 6.7,-1.9 9,0.8 l 28.3,33.8 c 2.2,2.7 1.9,6.7 -0.8,9 z"
   id="path396"
   style="fill:#b3b3b3" />
		<path
   fill="#FFFFFF"
   d="m 1635.4,199.1 v 0 c -2.2,2.7 -6.3,3 -9,0.8 l -33.8,-28.3 c -2.7,-2.2 -3,-6.3 -0.8,-9 v 0 c 2.2,-2.7 6.3,-3 9,-0.8 l 33.8,28.3 c 2.7,2.3 3.1,6.4 0.8,9 z"
   id="path398"
   style="fill:#b3b3b3" />
		<path
   fill="#FFFFFF"
   d="m 1616.7,225.8 v 0 c -1.7,3 -5.7,4.1 -8.7,2.3 l -38.2,-22 c -3,-1.7 -4.1,-5.7 -2.3,-8.7 v 0 c 1.7,-3 5.7,-4.1 8.7,-2.3 l 38.2,22 c 3,1.8 4.1,5.7 2.3,8.7 z"
   id="path400"
   style="fill:#b3b3b3" />
		<path
   fill="#FFFFFF"
   d="m 1603,255.4 v 0 c -1.2,3.3 -4.9,5 -8.1,3.8 l -41.4,-15.1 c -3.3,-1.2 -5,-4.9 -3.8,-8.1 v 0 c 1.2,-3.3 4.9,-5 8.1,-3.8 l 41.4,15.1 c 3.2,1.1 5,4.8 3.8,8.1 z"
   id="path402"
   style="fill:#b3b3b3" />
		<path
   fill="#FFFFFF"
   d="m 1594.5,286.9 v 0 c -0.6,3.4 -3.9,5.8 -7.4,5.2 l -43.4,-7.7 c -3.4,-0.6 -5.8,-3.9 -5.2,-7.4 v 0 c 0.6,-3.4 3.9,-5.8 7.4,-5.2 l 43.4,7.7 c 3.5,0.6 5.8,3.9 5.2,7.4 z"
   id="path404"
   style="fill:#b3b3b3" />
		<path
   fill="#FFFFFF"
   d="m 1591.7,319.3 v 0 c 0,3.5 -2.9,6.4 -6.4,6.4 h -44.1 c -3.5,0 -6.4,-2.9 -6.4,-6.4 v 0 c 0,-3.5 2.9,-6.4 6.4,-6.4 h 44.1 c 3.5,0.1 6.4,2.9 6.4,6.4 z"
   id="path406"
   style="fill:#b3b3b3" />
		<path
   fill="#FFFFFF"
   d="m 1594.5,351.8 v 0 c 0.6,3.4 -1.7,6.8 -5.2,7.4 l -43.4,7.7 c -3.4,0.6 -6.8,-1.7 -7.4,-5.2 v 0 c -0.6,-3.4 1.7,-6.8 5.2,-7.4 l 43.4,-7.7 c 3.5,-0.5 6.8,1.8 7.4,5.2 z"
   id="path408"
   style="fill:#b3b3b3" />
		<path
   fill="#FFFFFF"
   d="m 1603,383.3 v 0 c 1.2,3.3 -0.5,6.9 -3.8,8.1 l -41.4,15.1 c -3.3,1.2 -6.9,-0.5 -8.1,-3.8 v 0 c -1.2,-3.3 0.5,-6.9 3.8,-8.1 l 41.4,-15.1 c 3.2,-1.2 6.9,0.5 8.1,3.8 z"
   id="path410"
   style="fill:#b3b3b3" />
		<path
   fill="#FFFFFF"
   d="m 1616.7,412.8 v 0 c 1.7,3 0.7,6.9 -2.3,8.7 l -38.2,22 c -3,1.7 -6.9,0.7 -8.7,-2.3 v 0 c -1.7,-3 -0.7,-6.9 2.3,-8.7 l 38.2,-22 c 3.1,-1.7 7,-0.7 8.7,2.3 z"
   id="path412"
   style="fill:#b3b3b3" />
		<path
   fill="#FFFFFF"
   d="m 1635.4,439.5 v 0 c 2.2,2.7 1.9,6.7 -0.8,9 l -33.8,28.3 c -2.7,2.2 -6.7,1.9 -9,-0.8 v 0 c -2.2,-2.7 -1.9,-6.7 0.8,-9 l 33.8,-28.3 c 2.8,-2.2 6.8,-1.8 9,0.8 z"
   id="path414"
   style="fill:#b3b3b3" />
		<path
   fill="#FFFFFF"
   d="m 1658.5,462.6 v 0 c 2.7,2.2 3,6.3 0.8,9 l -28.3,33.8 c -2.2,2.7 -6.3,3 -9,0.8 v 0 c -2.7,-2.2 -3,-6.3 -0.8,-9 l 28.3,-33.8 c 2.3,-2.7 6.3,-3.1 9,-0.8 z"
   id="path416"
   style="fill:#b3b3b3" />
		<path
   fill="#FFFFFF"
   d="m 1685.2,481.3 v 0 c 3,1.7 4.1,5.7 2.3,8.7 l -22,38.2 c -1.7,3 -5.7,4.1 -8.7,2.3 v 0 c -3,-1.7 -4.1,-5.7 -2.3,-8.7 l 22,-38.2 c 1.8,-3 5.7,-4.1 8.7,-2.3 z"
   id="path418"
   style="fill:#b3b3b3" />
		<path
   fill="#FFFFFF"
   d="m 1714.7,495.1 v 0 c 3.3,1.2 5,4.9 3.8,8.1 l -15.1,41.4 c -1.2,3.3 -4.9,5 -8.1,3.8 v 0 c -3.3,-1.2 -5,-4.9 -3.8,-8.1 l 15.1,-41.4 c 1.2,-3.3 4.8,-5 8.1,-3.8 z"
   id="path420"
   style="fill:#b3b3b3" />
		<path
   fill="#FFFFFF"
   d="m 1746.2,503.5 v 0 c 3.4,0.6 5.8,3.9 5.2,7.4 l -7.7,43.4 c -0.6,3.4 -3.9,5.8 -7.4,5.2 v 0 c -3.4,-0.6 -5.8,-3.9 -5.2,-7.4 l 7.7,-43.4 c 0.7,-3.5 4,-5.8 7.4,-5.2 z"
   id="path422"
   style="fill:#b3b3b3" />
		<path
   fill="#FFFFFF"
   d="m 1778.7,506.3 v 0 c 3.5,0 6.4,2.9 6.4,6.4 v 44.1 c 0,3.5 -2.9,6.4 -6.4,6.4 v 0 c -3.5,0 -6.4,-2.9 -6.4,-6.4 v -44.1 c 0,-3.5 2.9,-6.4 6.4,-6.4 z"
   id="path424"
   style="fill:#b3b3b3" />
		<path
   fill="#FFFFFF"
   d="m 1811.2,503.5 v 0 c 3.4,-0.6 6.8,1.7 7.4,5.2 l 7.7,43.4 c 0.6,3.4 -1.7,6.8 -5.2,7.4 v 0 c -3.4,0.6 -6.8,-1.7 -7.4,-5.2 l -7.7,-43.4 c -0.6,-3.5 1.7,-6.8 5.2,-7.4 z"
   id="path426"
   style="fill:#b3b3b3" />
		<path
   fill="#FFFFFF"
   d="m 1842.6,495.1 v 0 c 3.3,-1.2 6.9,0.5 8.1,3.8 l 15.1,41.4 c 1.2,3.3 -0.5,6.9 -3.8,8.1 v 0 c -3.3,1.2 -6.9,-0.5 -8.1,-3.8 l -15.1,-41.4 c -1.1,-3.3 0.6,-6.9 3.8,-8.1 z"
   id="path428"
   style="fill:#b3b3b3" />
		<path
   fill="#FFFFFF"
   d="m 1872.2,481.3 v 0 c 3,-1.7 6.9,-0.7 8.7,2.3 l 22,38.2 c 1.7,3 0.7,6.9 -2.3,8.7 v 0 c -3,1.7 -6.9,0.7 -8.7,-2.3 l -22,-38.2 c -1.8,-3.1 -0.7,-7 2.3,-8.7 z"
   id="path430"
   style="fill:#b3b3b3" />
		<path
   fill="#FFFFFF"
   d="m 1898.9,462.6 v 0 c 2.7,-2.2 6.7,-1.9 9,0.8 l 28.3,33.8 c 2.2,2.7 1.9,6.7 -0.8,9 v 0 c -2.7,2.2 -6.7,1.9 -9,-0.8 l -28.3,-33.8 c -2.2,-2.7 -1.9,-6.8 0.8,-9 z"
   id="path432"
   style="fill:#b3b3b3" />
		<path
   fill="#FFFFFF"
   d="m 1921.9,439.5 v 0 c 2.2,-2.7 6.3,-3 9,-0.8 l 33.8,28.3 c 2.7,2.2 3,6.3 0.8,9 v 0 c -2.2,2.7 -6.3,3 -9,0.8 l -33.8,-28.3 c -2.7,-2.3 -3,-6.3 -0.8,-9 z"
   id="path434"
   style="fill:#b3b3b3" />
		<path
   fill="#FFFFFF"
   d="m 1940.6,412.8 v 0 c 1.7,-3 5.7,-4.1 8.7,-2.3 l 38.2,22 c 3,1.7 4.1,5.7 2.3,8.7 v 0 c -1.7,3 -5.7,4.1 -8.7,2.3 l -38.2,-22 c -3,-1.7 -4,-5.6 -2.3,-8.7 z"
   id="path436"
   style="fill:#b3b3b3" />
		<path
   fill="#FFFFFF"
   d="m 1954.4,383.3 v 0 c 1.2,-3.3 4.9,-5 8.1,-3.8 l 41.4,15.1 c 3.3,1.2 5,4.9 3.8,8.1 v 0 c -1.2,3.3 -4.9,5 -8.1,3.8 l -41.4,-15.1 c -3.3,-1.2 -5,-4.8 -3.8,-8.1 z"
   id="path438"
   style="fill:#b3b3b3" />
		<path
   fill="#FFFFFF"
   d="m 1962.8,351.8 v 0 c 0.6,-3.4 3.9,-5.8 7.4,-5.2 l 43.4,7.7 c 3.4,0.6 5.8,3.9 5.2,7.4 v 0 c -0.6,3.4 -3.9,5.8 -7.4,5.2 l -43.4,-7.7 c -3.4,-0.6 -5.8,-3.9 -5.2,-7.4 z"
   id="path440"
   style="fill:#b3b3b3" />
		<path
   fill="#FFFFFF"
   d="m 1965.7,319.3 v 0 c 0,-3.5 2.9,-6.4 6.4,-6.4 h 44.1 c 3.5,0 6.4,2.9 6.4,6.4 v 0 c 0,3.5 -2.9,6.4 -6.4,6.4 H 1972 c -3.5,0 -6.3,-2.9 -6.3,-6.4 z"
   id="path442"
   style="fill:#b3b3b3" />
		<path
   fill="#FFFFFF"
   d="m 1962.8,286.9 v 0 c -0.6,-3.4 1.7,-6.8 5.2,-7.4 l 43.4,-7.7 c 3.4,-0.6 6.8,1.7 7.4,5.2 v 0 c 0.6,3.4 -1.7,6.8 -5.2,7.4 l -43.4,7.7 c -3.4,0.5 -6.7,-1.8 -7.4,-5.2 z"
   id="path444"
   style="fill:#b3b3b3" />
		<path
   fill="#FFFFFF"
   d="m 1954.4,255.4 v 0 c -1.2,-3.3 0.5,-6.9 3.8,-8.1 l 41.4,-15.1 c 3.3,-1.2 6.9,0.5 8.1,3.8 v 0 c 1.2,3.3 -0.5,6.9 -3.8,8.1 l -41.4,15.1 c -3.2,1.2 -6.9,-0.5 -8.1,-3.8 z"
   id="path446"
   style="fill:#b3b3b3" />
		<path
   fill="#FFFFFF"
   d="m 1940.6,225.8 v 0 c -1.7,-3 -0.7,-6.9 2.3,-8.7 l 38.2,-22 c 3,-1.7 6.9,-0.7 8.7,2.3 v 0 c 1.7,3 0.7,6.9 -2.3,8.7 l -38.2,22 c -3,1.8 -6.9,0.8 -8.7,-2.3 z"
   id="path448"
   style="fill:#b3b3b3" />
		<path
   fill="#FFFFFF"
   d="m 1921.9,199.1 v 0 c -2.2,-2.7 -1.9,-6.7 0.8,-9 l 33.8,-28.3 c 2.7,-2.2 6.7,-1.9 9,0.8 v 0 c 2.2,2.7 1.9,6.7 -0.8,9 l -33.8,28.3 c -2.7,2.3 -6.7,1.9 -9,-0.8 z"
   id="path450"
   style="fill:#b3b3b3" />
		<path
   fill="#FFFFFF"
   d="m 1898.9,176.1 v 0 c -2.7,-2.2 -3,-6.3 -0.8,-9 l 28.3,-33.8 c 2.2,-2.7 6.3,-3 9,-0.8 v 0 c 2.7,2.2 3,6.3 0.8,9 l -28.3,33.8 c -2.3,2.7 -6.3,3 -9,0.8 z"
   id="path452"
   style="fill:#b3b3b3" />
		<path
   fill="#FFFFFF"
   d="m 1872.2,157.4 v 0 c -3,-1.7 -4.1,-5.7 -2.3,-8.7 l 22,-38.2 c 1.7,-3 5.7,-4.1 8.7,-2.3 v 0 c 3,1.7 4.1,5.7 2.3,8.7 l -22,38.2 c -1.8,3 -5.7,4 -8.7,2.3 z"
   id="path454"
   style="fill:#b3b3b3" />
		<path
   fill="#FFFFFF"
   d="m 1842.6,143.6 v 0 c -3.3,-1.2 -5,-4.9 -3.8,-8.1 l 15.1,-41.4 c 1.2,-3.3 4.9,-5 8.1,-3.8 v 0 c 3.3,1.2 5,4.9 3.8,8.1 l -15.1,41.4 c -1.1,3.3 -4.8,5 -8.1,3.8 z"
   id="path456"
   style="fill:#b3b3b3" />
		<path
   fill="#FFFFFF"
   d="m 1811.2,135.2 v 0 c -3.4,-0.6 -5.8,-3.9 -5.2,-7.4 l 7.7,-43.4 c 0.6,-3.4 3.9,-5.8 7.4,-5.2 v 0 c 3.4,0.6 5.8,3.9 5.2,7.4 l -7.7,43.4 c -0.7,3.5 -4,5.8 -7.4,5.2 z"
   id="path458"
   style="fill:#b3b3b3" />
	</g>
	<g
   id="g534"
   style="fill:#b3b3b3">
		<path
   fill="#FFFFFF"
   d="m 1792,174.1 v 0 c -2.7,-0.2 -4.7,-2.7 -4.5,-5.4 l 3.1,-34.2 c 0.2,-2.7 2.7,-4.7 5.4,-4.5 v 0 c 2.7,0.2 4.7,2.7 4.5,5.4 l -3.1,34.2 c -0.3,2.7 -2.7,4.7 -5.4,4.5 z"
   id="path462"
   style="fill:#b3b3b3" />
		<path
   fill="#FFFFFF"
   d="m 1766.6,174 v 0 c -2.7,0.2 -5.1,-1.8 -5.4,-4.5 l -2.9,-34.3 c -0.2,-2.7 1.8,-5.1 4.5,-5.4 v 0 c 2.7,-0.2 5.1,1.8 5.4,4.5 l 2.9,34.3 c 0.2,2.7 -1.8,5.1 -4.5,5.4 z"
   id="path464"
   style="fill:#b3b3b3" />
		<path
   fill="#FFFFFF"
   d="m 1741.5,178.3 v 0 c -2.6,0.7 -5.4,-0.9 -6.1,-3.5 l -8.8,-33.2 c -0.7,-2.6 0.9,-5.4 3.5,-6.1 v 0 c 2.6,-0.7 5.4,0.9 6.1,3.5 l 8.8,33.2 c 0.7,2.7 -0.9,5.4 -3.5,6.1 z"
   id="path466"
   style="fill:#b3b3b3" />
		<path
   fill="#FFFFFF"
   d="m 1717.6,186.9 v 0 c -2.5,1.1 -5.4,0.1 -6.6,-2.4 l -14.4,-31.2 c -1.1,-2.5 -0.1,-5.4 2.4,-6.6 v 0 c 2.5,-1.1 5.4,-0.1 6.6,2.4 l 14.4,31.2 c 1.1,2.5 0.1,5.4 -2.4,6.6 z"
   id="path468"
   style="fill:#b3b3b3" />
		<path
   fill="#FFFFFF"
   d="m 1695.5,199.5 v 0 c -2.2,1.6 -5.3,1 -6.9,-1.2 L 1669,170 c -1.6,-2.2 -1,-5.3 1.2,-6.9 v 0 c 2.2,-1.6 5.3,-1 6.9,1.2 l 19.6,28.2 c 1.6,2.4 1,5.5 -1.2,7 z"
   id="path470"
   style="fill:#b3b3b3" />
		<path
   fill="#FFFFFF"
   d="m 1676,215.8 v 0 c -1.9,1.9 -5.1,1.9 -7,0 l -24.2,-24.4 c -1.9,-1.9 -1.9,-5.1 0,-7 v 0 c 1.9,-1.9 5.1,-1.9 7,0 l 24.2,24.4 c 1.9,1.9 1.9,5.1 0,7 z"
   id="path472"
   style="fill:#b3b3b3" />
		<path
   fill="#FFFFFF"
   d="m 1659.5,235.2 v 0 c -1.6,2.2 -4.7,2.8 -6.9,1.2 l -28.1,-19.8 c -2.2,-1.6 -2.8,-4.7 -1.2,-6.9 v 0 c 1.6,-2.2 4.7,-2.8 6.9,-1.2 l 28.1,19.8 c 2.3,1.6 2.8,4.7 1.2,6.9 z"
   id="path474"
   style="fill:#b3b3b3" />
		<path
   fill="#FFFFFF"
   d="m 1646.7,257.2 v 0 c -1.2,2.5 -4.1,3.5 -6.6,2.4 L 1609,244.9 c -2.5,-1.2 -3.5,-4.1 -2.4,-6.6 v 0 c 1.2,-2.5 4.1,-3.5 6.6,-2.4 l 31.1,14.7 c 2.5,1.1 3.6,4.1 2.4,6.6 z"
   id="path476"
   style="fill:#b3b3b3" />
		<path
   fill="#FFFFFF"
   d="m 1637.9,281 v 0 c -0.7,2.6 -3.5,4.2 -6.1,3.5 l -33.2,-9 c -2.6,-0.7 -4.2,-3.5 -3.5,-6.1 v 0 c 0.7,-2.6 3.5,-4.2 6.1,-3.5 l 33.2,9 c 2.7,0.7 4.3,3.5 3.5,6.1 z"
   id="path478"
   style="fill:#b3b3b3" />
		<path
   fill="#FFFFFF"
   d="m 1633.4,306 v 0 c -0.2,2.7 -2.7,4.7 -5.4,4.5 l -34.2,-3.1 c -2.7,-0.2 -4.7,-2.7 -4.5,-5.4 v 0 c 0.2,-2.7 2.7,-4.7 5.4,-4.5 l 34.2,3.1 c 2.8,0.3 4.8,2.7 4.5,5.4 z"
   id="path480"
   style="fill:#b3b3b3" />
		<path
   fill="#FFFFFF"
   d="m 1633.3,331.5 v 0 c 0.2,2.7 -1.8,5.1 -4.5,5.4 l -34.3,2.9 c -2.7,0.2 -5.1,-1.8 -5.4,-4.5 v 0 c -0.2,-2.7 1.8,-5.1 4.5,-5.4 l 34.3,-2.9 c 2.8,-0.3 5.2,1.7 5.4,4.5 z"
   id="path482"
   style="fill:#b3b3b3" />
		<path
   fill="#FFFFFF"
   d="m 1637.6,356.5 v 0 c 0.7,2.6 -0.9,5.4 -3.5,6.1 l -33.2,8.8 c -2.6,0.7 -5.4,-0.9 -6.1,-3.5 v 0 c -0.7,-2.6 0.9,-5.4 3.5,-6.1 l 33.2,-8.8 c 2.7,-0.7 5.4,0.9 6.1,3.5 z"
   id="path484"
   style="fill:#b3b3b3" />
		<path
   fill="#FFFFFF"
   d="m 1646.2,380.4 v 0 c 1.1,2.5 0.1,5.4 -2.4,6.6 l -31.2,14.4 c -2.5,1.1 -5.4,0.1 -6.6,-2.4 v 0 c -1.1,-2.5 -0.1,-5.4 2.4,-6.6 l 31.2,-14.4 c 2.5,-1.1 5.5,0 6.6,2.4 z"
   id="path486"
   style="fill:#b3b3b3" />
		<path
   fill="#FFFFFF"
   d="m 1658.9,402.5 v 0 c 1.6,2.2 1,5.3 -1.2,6.9 l -28.2,19.6 c -2.2,1.6 -5.3,1 -6.9,-1.2 v 0 c -1.6,-2.2 -1,-5.3 1.2,-6.9 l 28.2,-19.6 c 2.2,-1.6 5.3,-1 6.9,1.2 z"
   id="path488"
   style="fill:#b3b3b3" />
		<path
   fill="#FFFFFF"
   d="m 1675.1,422.1 v 0 c 1.9,1.9 1.9,5.1 0,7 l -24.4,24.2 c -1.9,1.9 -5.1,1.9 -7,0 v 0 c -1.9,-1.9 -1.9,-5.1 0,-7 l 24.4,-24.2 c 2,-2 5.1,-2 7,0 z"
   id="path490"
   style="fill:#b3b3b3" />
		<path
   fill="#FFFFFF"
   d="m 1694.5,438.5 v 0 c 2.2,1.6 2.8,4.7 1.2,6.9 l -19.8,28.1 c -1.6,2.2 -4.7,2.8 -6.9,1.2 v 0 c -2.2,-1.6 -2.8,-4.7 -1.2,-6.9 l 19.8,-28.1 c 1.6,-2.2 4.7,-2.8 6.9,-1.2 z"
   id="path492"
   style="fill:#b3b3b3" />
		<path
   fill="#FFFFFF"
   d="m 1716.5,451.3 v 0 c 2.5,1.2 3.5,4.1 2.4,6.6 l -14.7,31.1 c -1.2,2.5 -4.1,3.5 -6.6,2.4 v 0 c -2.5,-1.2 -3.5,-4.1 -2.4,-6.6 l 14.7,-31.1 c 1.2,-2.5 4.1,-3.6 6.6,-2.4 z"
   id="path494"
   style="fill:#b3b3b3" />
		<path
   fill="#FFFFFF"
   d="m 1740.4,460.1 v 0 c 2.6,0.7 4.2,3.5 3.5,6.1 l -9,33.2 c -0.7,2.6 -3.5,4.2 -6.1,3.5 v 0 c -2.6,-0.7 -4.2,-3.5 -3.5,-6.1 l 9,-33.2 c 0.7,-2.7 3.4,-4.2 6.1,-3.5 z"
   id="path496"
   style="fill:#b3b3b3" />
		<path
   fill="#FFFFFF"
   d="m 1765.4,464.6 v 0 c 2.7,0.2 4.7,2.7 4.5,5.4 l -3.1,34.2 c -0.2,2.7 -2.7,4.7 -5.4,4.5 v 0 c -2.7,-0.2 -4.7,-2.7 -4.5,-5.4 l 3.1,-34.2 c 0.2,-2.7 2.7,-4.7 5.4,-4.5 z"
   id="path498"
   style="fill:#b3b3b3" />
		<path
   fill="#FFFFFF"
   d="m 1790.8,464.7 v 0 c 2.7,-0.2 5.1,1.8 5.4,4.5 l 2.9,34.3 c 0.2,2.7 -1.8,5.1 -4.5,5.4 v 0 c -2.7,0.2 -5.1,-1.8 -5.4,-4.5 l -2.9,-34.3 c -0.2,-2.8 1.8,-5.2 4.5,-5.4 z"
   id="path500"
   style="fill:#b3b3b3" />
		<path
   fill="#FFFFFF"
   d="m 1815.9,460.4 v 0 c 2.6,-0.7 5.4,0.9 6.1,3.5 l 8.8,33.2 c 0.7,2.6 -0.9,5.4 -3.5,6.1 v 0 c -2.6,0.7 -5.4,-0.9 -6.1,-3.5 l -8.8,-33.2 c -0.8,-2.7 0.8,-5.4 3.5,-6.1 z"
   id="path502"
   style="fill:#b3b3b3" />
		<path
   fill="#FFFFFF"
   d="m 1839.8,451.8 v 0 c 2.5,-1.1 5.4,-0.1 6.6,2.4 l 14.4,31.2 c 1.1,2.5 0.1,5.4 -2.4,6.6 v 0 c -2.5,1.1 -5.4,0.1 -6.6,-2.4 l -14.4,-31.2 c -1.2,-2.5 -0.1,-5.5 2.4,-6.6 z"
   id="path504"
   style="fill:#b3b3b3" />
		<path
   fill="#FFFFFF"
   d="m 1861.9,439.2 v 0 c 2.2,-1.6 5.3,-1 6.9,1.2 l 19.6,28.2 c 1.6,2.2 1,5.3 -1.2,6.9 v 0 c -2.2,1.6 -5.3,1 -6.9,-1.2 l -19.6,-28.2 c -1.6,-2.3 -1.1,-5.4 1.2,-6.9 z"
   id="path506"
   style="fill:#b3b3b3" />
		<path
   fill="#FFFFFF"
   d="m 1881.4,422.9 v 0 c 1.9,-1.9 5.1,-1.9 7,0 l 24.2,24.4 c 1.9,1.9 1.9,5.1 0,7 v 0 c -1.9,1.9 -5.1,1.9 -7,0 l -24.2,-24.4 c -1.9,-1.9 -1.9,-5.1 0,-7 z"
   id="path508"
   style="fill:#b3b3b3" />
		<path
   fill="#FFFFFF"
   d="m 1897.8,403.5 v 0 c 1.6,-2.2 4.7,-2.8 6.9,-1.2 l 28.1,19.8 c 2.2,1.6 2.8,4.7 1.2,6.9 v 0 c -1.6,2.2 -4.7,2.8 -6.9,1.2 L 1899,410.4 c -2.2,-1.6 -2.7,-4.7 -1.2,-6.9 z"
   id="path510"
   style="fill:#b3b3b3" />
		<path
   fill="#FFFFFF"
   d="m 1910.6,381.5 v 0 c 1.2,-2.5 4.1,-3.5 6.6,-2.4 l 31.1,14.7 c 2.5,1.2 3.5,4.1 2.4,6.6 v 0 c -1.2,2.5 -4.1,3.5 -6.6,2.4 L 1913,388.1 c -2.5,-1.1 -3.5,-4.1 -2.4,-6.6 z"
   id="path512"
   style="fill:#b3b3b3" />
		<path
   fill="#FFFFFF"
   d="m 1919.4,357.7 v 0 c 0.7,-2.6 3.5,-4.2 6.1,-3.5 l 33.2,9 c 2.6,0.7 4.2,3.5 3.5,6.1 v 0 c -0.7,2.6 -3.5,4.2 -6.1,3.5 l -33.2,-9 c -2.6,-0.8 -4.2,-3.5 -3.5,-6.1 z"
   id="path514"
   style="fill:#b3b3b3" />
		<path
   fill="#FFFFFF"
   d="m 1923.9,332.6 v 0 c 0.2,-2.7 2.7,-4.7 5.4,-4.5 l 34.2,3.1 c 2.7,0.2 4.7,2.7 4.5,5.4 v 0 c -0.2,2.7 -2.7,4.7 -5.4,4.5 l -34.2,-3.1 c -2.7,-0.2 -4.7,-2.6 -4.5,-5.4 z"
   id="path516"
   style="fill:#b3b3b3" />
		<path
   fill="#FFFFFF"
   d="m 1924.1,307.2 v 0 c -0.2,-2.7 1.8,-5.1 4.5,-5.4 l 34.3,-2.9 c 2.7,-0.2 5.1,1.8 5.4,4.5 v 0 c 0.2,2.7 -1.8,5.1 -4.5,5.4 l -34.3,2.9 c -2.8,0.3 -5.2,-1.8 -5.4,-4.5 z"
   id="path518"
   style="fill:#b3b3b3" />
		<path
   fill="#FFFFFF"
   d="m 1919.7,282.2 v 0 c -0.7,-2.6 0.9,-5.4 3.5,-6.1 l 33.2,-8.8 c 2.6,-0.7 5.4,0.9 6.1,3.5 v 0 c 0.7,2.6 -0.9,5.4 -3.5,6.1 l -33.2,8.8 c -2.6,0.7 -5.4,-0.9 -6.1,-3.5 z"
   id="path520"
   style="fill:#b3b3b3" />
		<path
   fill="#FFFFFF"
   d="m 1911.1,258.2 v 0 c -1.1,-2.5 -0.1,-5.4 2.4,-6.6 l 31.2,-14.4 c 2.5,-1.1 5.4,-0.1 6.6,2.4 v 0 c 1.1,2.5 0.1,5.4 -2.4,6.6 l -31.2,14.4 c -2.5,1.2 -5.4,0.1 -6.6,-2.4 z"
   id="path522"
   style="fill:#b3b3b3" />
		<path
   fill="#FFFFFF"
   d="m 1898.5,236.2 v 0 c -1.6,-2.2 -1,-5.3 1.2,-6.9 l 28.2,-19.6 c 2.2,-1.6 5.3,-1 6.9,1.2 v 0 c 1.6,2.2 1,5.3 -1.2,6.9 l -28.2,19.6 c -2.2,1.6 -5.3,1 -6.9,-1.2 z"
   id="path524"
   style="fill:#b3b3b3" />
		<path
   fill="#FFFFFF"
   d="m 1882.3,216.6 v 0 c -1.9,-1.9 -1.9,-5.1 0,-7 l 24.4,-24.2 c 1.9,-1.9 5.1,-1.9 7,0 v 0 c 1.9,1.9 1.9,5.1 0,7 l -24.4,24.2 c -2,2 -5.1,1.9 -7,0 z"
   id="path526"
   style="fill:#b3b3b3" />
		<path
   fill="#FFFFFF"
   d="m 1862.8,200.2 v 0 c -2.2,-1.6 -2.8,-4.7 -1.2,-6.9 l 19.8,-28.1 c 1.6,-2.2 4.7,-2.8 6.9,-1.2 v 0 c 2.2,1.6 2.8,4.7 1.2,6.9 l -19.8,28.1 c -1.5,2.2 -4.6,2.8 -6.9,1.2 z"
   id="path528"
   style="fill:#b3b3b3" />
		<path
   fill="#FFFFFF"
   d="m 1840.9,187.4 v 0 c -2.5,-1.2 -3.5,-4.1 -2.4,-6.6 l 14.7,-31.1 c 1.2,-2.5 4.1,-3.5 6.6,-2.4 v 0 c 2.5,1.2 3.5,4.1 2.4,6.6 l -14.7,31.1 c -1.2,2.5 -4.2,3.5 -6.6,2.4 z"
   id="path530"
   style="fill:#b3b3b3" />
		<path
   fill="#FFFFFF"
   d="m 1817,178.6 v 0 c -2.6,-0.7 -4.2,-3.5 -3.5,-6.1 l 9,-33.2 c 0.7,-2.6 3.5,-4.2 6.1,-3.5 v 0 c 2.6,0.7 4.2,3.5 3.5,6.1 l -9,33.2 c -0.7,2.6 -3.5,4.2 -6.1,3.5 z"
   id="path532"
   style="fill:#b3b3b3" />
	</g>
	<g
   id="g608"
   style="fill:#b3b3b3">
		<path
   fill="#FFFFFF"
   d="m 1792,174.1 v 0 c -2.7,-0.2 -4.7,-2.7 -4.5,-5.4 l 3.1,-34.2 c 0.2,-2.7 2.7,-4.7 5.4,-4.5 v 0 c 2.7,0.2 4.7,2.7 4.5,5.4 l -3.1,34.2 c -0.3,2.7 -2.7,4.7 -5.4,4.5 z"
   id="path536"
   style="fill:#b3b3b3" />
		<path
   fill="#FFFFFF"
   d="m 1766.6,174 v 0 c -2.7,0.2 -5.1,-1.8 -5.4,-4.5 l -2.9,-34.3 c -0.2,-2.7 1.8,-5.1 4.5,-5.4 v 0 c 2.7,-0.2 5.1,1.8 5.4,4.5 l 2.9,34.3 c 0.2,2.7 -1.8,5.1 -4.5,5.4 z"
   id="path538"
   style="fill:#b3b3b3" />
		<path
   fill="#FFFFFF"
   d="m 1741.5,178.3 v 0 c -2.6,0.7 -5.4,-0.9 -6.1,-3.5 l -8.8,-33.2 c -0.7,-2.6 0.9,-5.4 3.5,-6.1 v 0 c 2.6,-0.7 5.4,0.9 6.1,3.5 l 8.8,33.2 c 0.7,2.7 -0.9,5.4 -3.5,6.1 z"
   id="path540"
   style="fill:#b3b3b3" />
		<path
   fill="#FFFFFF"
   d="m 1717.6,186.9 v 0 c -2.5,1.1 -5.4,0.1 -6.6,-2.4 l -14.4,-31.2 c -1.1,-2.5 -0.1,-5.4 2.4,-6.6 v 0 c 2.5,-1.1 5.4,-0.1 6.6,2.4 l 14.4,31.2 c 1.1,2.5 0.1,5.4 -2.4,6.6 z"
   id="path542"
   style="fill:#b3b3b3" />
		<path
   fill="#FFFFFF"
   d="m 1695.5,199.5 v 0 c -2.2,1.6 -5.3,1 -6.9,-1.2 L 1669,170 c -1.6,-2.2 -1,-5.3 1.2,-6.9 v 0 c 2.2,-1.6 5.3,-1 6.9,1.2 l 19.6,28.2 c 1.6,2.4 1,5.5 -1.2,7 z"
   id="path544"
   style="fill:#b3b3b3" />
		<path
   fill="#FFFFFF"
   d="m 1676,215.8 v 0 c -1.9,1.9 -5.1,1.9 -7,0 l -24.2,-24.4 c -1.9,-1.9 -1.9,-5.1 0,-7 v 0 c 1.9,-1.9 5.1,-1.9 7,0 l 24.2,24.4 c 1.9,1.9 1.9,5.1 0,7 z"
   id="path546"
   style="fill:#b3b3b3" />
		<path
   fill="#FFFFFF"
   d="m 1659.5,235.2 v 0 c -1.6,2.2 -4.7,2.8 -6.9,1.2 l -28.1,-19.8 c -2.2,-1.6 -2.8,-4.7 -1.2,-6.9 v 0 c 1.6,-2.2 4.7,-2.8 6.9,-1.2 l 28.1,19.8 c 2.3,1.6 2.8,4.7 1.2,6.9 z"
   id="path548"
   style="fill:#b3b3b3" />
		<path
   fill="#FFFFFF"
   d="m 1646.7,257.2 v 0 c -1.2,2.5 -4.1,3.5 -6.6,2.4 L 1609,244.9 c -2.5,-1.2 -3.5,-4.1 -2.4,-6.6 v 0 c 1.2,-2.5 4.1,-3.5 6.6,-2.4 l 31.1,14.7 c 2.5,1.1 3.6,4.1 2.4,6.6 z"
   id="path550"
   style="fill:#b3b3b3" />
		<path
   fill="#FFFFFF"
   d="m 1637.9,281 v 0 c -0.7,2.6 -3.5,4.2 -6.1,3.5 l -33.2,-9 c -2.6,-0.7 -4.2,-3.5 -3.5,-6.1 v 0 c 0.7,-2.6 3.5,-4.2 6.1,-3.5 l 33.2,9 c 2.7,0.7 4.3,3.5 3.5,6.1 z"
   id="path552"
   style="fill:#b3b3b3" />
		<path
   fill="#FFFFFF"
   d="m 1633.4,306 v 0 c -0.2,2.7 -2.7,4.7 -5.4,4.5 l -34.2,-3.1 c -2.7,-0.2 -4.7,-2.7 -4.5,-5.4 v 0 c 0.2,-2.7 2.7,-4.7 5.4,-4.5 l 34.2,3.1 c 2.8,0.3 4.8,2.7 4.5,5.4 z"
   id="path554"
   style="fill:#b3b3b3" />
		<path
   fill="#FFFFFF"
   d="m 1633.3,331.5 v 0 c 0.2,2.7 -1.8,5.1 -4.5,5.4 l -34.3,2.9 c -2.7,0.2 -5.1,-1.8 -5.4,-4.5 v 0 c -0.2,-2.7 1.8,-5.1 4.5,-5.4 l 34.3,-2.9 c 2.8,-0.3 5.2,1.7 5.4,4.5 z"
   id="path556"
   style="fill:#b3b3b3" />
		<path
   fill="#FFFFFF"
   d="m 1637.6,356.5 v 0 c 0.7,2.6 -0.9,5.4 -3.5,6.1 l -33.2,8.8 c -2.6,0.7 -5.4,-0.9 -6.1,-3.5 v 0 c -0.7,-2.6 0.9,-5.4 3.5,-6.1 l 33.2,-8.8 c 2.7,-0.7 5.4,0.9 6.1,3.5 z"
   id="path558"
   style="fill:#b3b3b3" />
		<path
   fill="#FFFFFF"
   d="m 1646.2,380.4 v 0 c 1.1,2.5 0.1,5.4 -2.4,6.6 l -31.2,14.4 c -2.5,1.1 -5.4,0.1 -6.6,-2.4 v 0 c -1.1,-2.5 -0.1,-5.4 2.4,-6.6 l 31.2,-14.4 c 2.5,-1.1 5.5,0 6.6,2.4 z"
   id="path560"
   style="fill:#b3b3b3" />
		<path
   fill="#FFFFFF"
   d="m 1658.9,402.5 v 0 c 1.6,2.2 1,5.3 -1.2,6.9 l -28.2,19.6 c -2.2,1.6 -5.3,1 -6.9,-1.2 v 0 c -1.6,-2.2 -1,-5.3 1.2,-6.9 l 28.2,-19.6 c 2.2,-1.6 5.3,-1 6.9,1.2 z"
   id="path562"
   style="fill:#b3b3b3" />
		<path
   fill="#FFFFFF"
   d="m 1675.1,422.1 v 0 c 1.9,1.9 1.9,5.1 0,7 l -24.4,24.2 c -1.9,1.9 -5.1,1.9 -7,0 v 0 c -1.9,-1.9 -1.9,-5.1 0,-7 l 24.4,-24.2 c 2,-2 5.1,-2 7,0 z"
   id="path564"
   style="fill:#b3b3b3" />
		<path
   fill="#FFFFFF"
   d="m 1694.5,438.5 v 0 c 2.2,1.6 2.8,4.7 1.2,6.9 l -19.8,28.1 c -1.6,2.2 -4.7,2.8 -6.9,1.2 v 0 c -2.2,-1.6 -2.8,-4.7 -1.2,-6.9 l 19.8,-28.1 c 1.6,-2.2 4.7,-2.8 6.9,-1.2 z"
   id="path566"
   style="fill:#b3b3b3" />
		<path
   fill="#FFFFFF"
   d="m 1716.5,451.3 v 0 c 2.5,1.2 3.5,4.1 2.4,6.6 l -14.7,31.1 c -1.2,2.5 -4.1,3.5 -6.6,2.4 v 0 c -2.5,-1.2 -3.5,-4.1 -2.4,-6.6 l 14.7,-31.1 c 1.2,-2.5 4.1,-3.6 6.6,-2.4 z"
   id="path568"
   style="fill:#b3b3b3" />
		<path
   fill="#FFFFFF"
   d="m 1740.4,460.1 v 0 c 2.6,0.7 4.2,3.5 3.5,6.1 l -9,33.2 c -0.7,2.6 -3.5,4.2 -6.1,3.5 v 0 c -2.6,-0.7 -4.2,-3.5 -3.5,-6.1 l 9,-33.2 c 0.7,-2.7 3.4,-4.2 6.1,-3.5 z"
   id="path570"
   style="fill:#b3b3b3" />
		<path
   fill="#FFFFFF"
   d="m 1765.4,464.6 v 0 c 2.7,0.2 4.7,2.7 4.5,5.4 l -3.1,34.2 c -0.2,2.7 -2.7,4.7 -5.4,4.5 v 0 c -2.7,-0.2 -4.7,-2.7 -4.5,-5.4 l 3.1,-34.2 c 0.2,-2.7 2.7,-4.7 5.4,-4.5 z"
   id="path572"
   style="fill:#b3b3b3" />
		<path
   fill="#FFFFFF"
   d="m 1790.8,464.7 v 0 c 2.7,-0.2 5.1,1.8 5.4,4.5 l 2.9,34.3 c 0.2,2.7 -1.8,5.1 -4.5,5.4 v 0 c -2.7,0.2 -5.1,-1.8 -5.4,-4.5 l -2.9,-34.3 c -0.2,-2.8 1.8,-5.2 4.5,-5.4 z"
   id="path574"
   style="fill:#b3b3b3" />
		<path
   fill="#FFFFFF"
   d="m 1815.9,460.4 v 0 c 2.6,-0.7 5.4,0.9 6.1,3.5 l 8.8,33.2 c 0.7,2.6 -0.9,5.4 -3.5,6.1 v 0 c -2.6,0.7 -5.4,-0.9 -6.1,-3.5 l -8.8,-33.2 c -0.8,-2.7 0.8,-5.4 3.5,-6.1 z"
   id="path576"
   style="fill:#b3b3b3" />
		<path
   fill="#FFFFFF"
   d="m 1839.8,451.8 v 0 c 2.5,-1.1 5.4,-0.1 6.6,2.4 l 14.4,31.2 c 1.1,2.5 0.1,5.4 -2.4,6.6 v 0 c -2.5,1.1 -5.4,0.1 -6.6,-2.4 l -14.4,-31.2 c -1.2,-2.5 -0.1,-5.5 2.4,-6.6 z"
   id="path578"
   style="fill:#b3b3b3" />
		<path
   fill="#FFFFFF"
   d="m 1861.9,439.2 v 0 c 2.2,-1.6 5.3,-1 6.9,1.2 l 19.6,28.2 c 1.6,2.2 1,5.3 -1.2,6.9 v 0 c -2.2,1.6 -5.3,1 -6.9,-1.2 l -19.6,-28.2 c -1.6,-2.3 -1.1,-5.4 1.2,-6.9 z"
   id="path580"
   style="fill:#b3b3b3" />
		<path
   fill="#FFFFFF"
   d="m 1881.4,422.9 v 0 c 1.9,-1.9 5.1,-1.9 7,0 l 24.2,24.4 c 1.9,1.9 1.9,5.1 0,7 v 0 c -1.9,1.9 -5.1,1.9 -7,0 l -24.2,-24.4 c -1.9,-1.9 -1.9,-5.1 0,-7 z"
   id="path582"
   style="fill:#b3b3b3" />
		<path
   fill="#FFFFFF"
   d="m 1897.8,403.5 v 0 c 1.6,-2.2 4.7,-2.8 6.9,-1.2 l 28.1,19.8 c 2.2,1.6 2.8,4.7 1.2,6.9 v 0 c -1.6,2.2 -4.7,2.8 -6.9,1.2 L 1899,410.4 c -2.2,-1.6 -2.7,-4.7 -1.2,-6.9 z"
   id="path584"
   style="fill:#b3b3b3" />
		<path
   fill="#FFFFFF"
   d="m 1910.6,381.5 v 0 c 1.2,-2.5 4.1,-3.5 6.6,-2.4 l 31.1,14.7 c 2.5,1.2 3.5,4.1 2.4,6.6 v 0 c -1.2,2.5 -4.1,3.5 -6.6,2.4 L 1913,388.1 c -2.5,-1.1 -3.5,-4.1 -2.4,-6.6 z"
   id="path586"
   style="fill:#b3b3b3" />
		<path
   fill="#FFFFFF"
   d="m 1919.4,357.7 v 0 c 0.7,-2.6 3.5,-4.2 6.1,-3.5 l 33.2,9 c 2.6,0.7 4.2,3.5 3.5,6.1 v 0 c -0.7,2.6 -3.5,4.2 -6.1,3.5 l -33.2,-9 c -2.6,-0.8 -4.2,-3.5 -3.5,-6.1 z"
   id="path588"
   style="fill:#b3b3b3" />
		<path
   fill="#FFFFFF"
   d="m 1923.9,332.6 v 0 c 0.2,-2.7 2.7,-4.7 5.4,-4.5 l 34.2,3.1 c 2.7,0.2 4.7,2.7 4.5,5.4 v 0 c -0.2,2.7 -2.7,4.7 -5.4,4.5 l -34.2,-3.1 c -2.7,-0.2 -4.7,-2.6 -4.5,-5.4 z"
   id="path590"
   style="fill:#b3b3b3" />
		<path
   fill="#FFFFFF"
   d="m 1924.1,307.2 v 0 c -0.2,-2.7 1.8,-5.1 4.5,-5.4 l 34.3,-2.9 c 2.7,-0.2 5.1,1.8 5.4,4.5 v 0 c 0.2,2.7 -1.8,5.1 -4.5,5.4 l -34.3,2.9 c -2.8,0.3 -5.2,-1.8 -5.4,-4.5 z"
   id="path592"
   style="fill:#b3b3b3" />
		<path
   fill="#FFFFFF"
   d="m 1919.7,282.2 v 0 c -0.7,-2.6 0.9,-5.4 3.5,-6.1 l 33.2,-8.8 c 2.6,-0.7 5.4,0.9 6.1,3.5 v 0 c 0.7,2.6 -0.9,5.4 -3.5,6.1 l -33.2,8.8 c -2.6,0.7 -5.4,-0.9 -6.1,-3.5 z"
   id="path594"
   style="fill:#b3b3b3" />
		<path
   fill="#FFFFFF"
   d="m 1911.1,258.2 v 0 c -1.1,-2.5 -0.1,-5.4 2.4,-6.6 l 31.2,-14.4 c 2.5,-1.1 5.4,-0.1 6.6,2.4 v 0 c 1.1,2.5 0.1,5.4 -2.4,6.6 l -31.2,14.4 c -2.5,1.2 -5.4,0.1 -6.6,-2.4 z"
   id="path596"
   style="fill:#b3b3b3" />
		<path
   fill="#FFFFFF"
   d="m 1898.5,236.2 v 0 c -1.6,-2.2 -1,-5.3 1.2,-6.9 l 28.2,-19.6 c 2.2,-1.6 5.3,-1 6.9,1.2 v 0 c 1.6,2.2 1,5.3 -1.2,6.9 l -28.2,19.6 c -2.2,1.6 -5.3,1 -6.9,-1.2 z"
   id="path598"
   style="fill:#b3b3b3" />
		<path
   fill="#FFFFFF"
   d="m 1882.3,216.6 v 0 c -1.9,-1.9 -1.9,-5.1 0,-7 l 24.4,-24.2 c 1.9,-1.9 5.1,-1.9 7,0 v 0 c 1.9,1.9 1.9,5.1 0,7 l -24.4,24.2 c -2,2 -5.1,1.9 -7,0 z"
   id="path600"
   style="fill:#b3b3b3" />
		<path
   fill="#FFFFFF"
   d="m 1862.8,200.2 v 0 c -2.2,-1.6 -2.8,-4.7 -1.2,-6.9 l 19.8,-28.1 c 1.6,-2.2 4.7,-2.8 6.9,-1.2 v 0 c 2.2,1.6 2.8,4.7 1.2,6.9 l -19.8,28.1 c -1.5,2.2 -4.6,2.8 -6.9,1.2 z"
   id="path602"
   style="fill:#b3b3b3" />
		<path
   fill="#FFFFFF"
   d="m 1840.9,187.4 v 0 c -2.5,-1.2 -3.5,-4.1 -2.4,-6.6 l 14.7,-31.1 c 1.2,-2.5 4.1,-3.5 6.6,-2.4 v 0 c 2.5,1.2 3.5,4.1 2.4,6.6 l -14.7,31.1 c -1.2,2.5 -4.2,3.5 -6.6,2.4 z"
   id="path604"
   style="fill:#b3b3b3" />
		<path
   fill="#FFFFFF"
   d="m 1817,178.6 v 0 c -2.6,-0.7 -4.2,-3.5 -3.5,-6.1 l 9,-33.2 c 0.7,-2.6 3.5,-4.2 6.1,-3.5 v 0 c 2.6,0.7 4.2,3.5 3.5,6.1 l -9,33.2 c -0.7,2.6 -3.5,4.2 -6.1,3.5 z"
   id="path606"
   style="fill:#b3b3b3" />
	</g>
	<g
   id="g682"
   style="fill:#b3b3b3">
		<path
   fill="#FFFFFF"
   d="m 1778.7,202.8 v 0 c -2.2,0 -4,-1.8 -4,-4 v -27.5 c 0,-2.2 1.8,-4 4,-4 v 0 c 2.2,0 4,1.8 4,4 v 27.5 c -0.1,2.2 -1.8,4 -4,4 z"
   id="path610"
   style="fill:#b3b3b3" />
		<path
   fill="#FFFFFF"
   d="m 1758.4,204.5 v 0 c -2.1,0.4 -4.2,-1.1 -4.6,-3.2 l -4.8,-27.1 c -0.4,-2.1 1.1,-4.2 3.2,-4.6 v 0 c 2.1,-0.4 4.2,1.1 4.6,3.2 l 4.8,27.1 c 0.4,2.2 -1,4.2 -3.2,4.6 z"
   id="path612"
   style="fill:#b3b3b3" />
		<path
   fill="#FFFFFF"
   d="m 1738.8,209.8 v 0 c -2,0.7 -4.3,-0.3 -5.1,-2.4 l -9.4,-25.8 c -0.7,-2 0.3,-4.3 2.4,-5.1 v 0 c 2,-0.7 4.3,0.3 5.1,2.4 l 9.4,25.8 c 0.7,2.1 -0.3,4.3 -2.4,5.1 z"
   id="path614"
   style="fill:#b3b3b3" />
		<path
   fill="#FFFFFF"
   d="m 1720.4,218.4 v 0 c -1.9,1.1 -4.3,0.4 -5.4,-1.4 l -13.7,-23.8 c -1.1,-1.9 -0.4,-4.3 1.4,-5.4 v 0 c 1.9,-1.1 4.3,-0.4 5.4,1.4 l 13.7,23.8 c 1.1,1.8 0.5,4.3 -1.4,5.4 z"
   id="path616"
   style="fill:#b3b3b3" />
		<path
   fill="#FFFFFF"
   d="m 1703.7,230 v 0 c -1.7,1.4 -4.2,1.2 -5.6,-0.5 l -17.7,-21 c -1.4,-1.7 -1.2,-4.2 0.5,-5.6 v 0 c 1.7,-1.4 4.2,-1.2 5.6,0.5 l 17.7,21 c 1.4,1.7 1.2,4.2 -0.5,5.6 z"
   id="path618"
   style="fill:#b3b3b3" />
		<path
   fill="#FFFFFF"
   d="m 1689.4,244.4 v 0 c -1.4,1.7 -3.9,1.9 -5.6,0.5 l -21,-17.7 c -1.7,-1.4 -1.9,-3.9 -0.5,-5.6 v 0 c 1.4,-1.7 3.9,-1.9 5.6,-0.5 l 21,17.7 c 1.7,1.4 1.9,3.9 0.5,5.6 z"
   id="path620"
   style="fill:#b3b3b3" />
		<path
   fill="#FFFFFF"
   d="m 1677.7,261 v 0 c -1.1,1.9 -3.5,2.5 -5.4,1.4 l -23.8,-13.7 c -1.9,-1.1 -2.5,-3.5 -1.4,-5.4 v 0 c 1.1,-1.9 3.5,-2.5 5.4,-1.4 l 23.8,13.7 c 1.9,1.1 2.5,3.6 1.4,5.4 z"
   id="path622"
   style="fill:#b3b3b3" />
		<path
   fill="#FFFFFF"
   d="m 1669.1,279.5 v 0 c -0.7,2 -3,3.1 -5.1,2.4 l -25.8,-9.4 c -2,-0.7 -3.1,-3 -2.4,-5.1 v 0 c 0.7,-2 3,-3.1 5.1,-2.4 l 25.8,9.4 c 2.1,0.7 3.2,3 2.4,5.1 z"
   id="path624"
   style="fill:#b3b3b3" />
		<path
   fill="#FFFFFF"
   d="m 1663.9,299.1 v 0 c -0.4,2.1 -2.4,3.6 -4.6,3.2 l -27.1,-4.8 c -2.1,-0.4 -3.6,-2.4 -3.2,-4.6 v 0 c 0.4,-2.1 2.4,-3.6 4.6,-3.2 l 27.1,4.8 c 2.1,0.4 3.6,2.4 3.2,4.6 z"
   id="path626"
   style="fill:#b3b3b3" />
		<path
   fill="#FFFFFF"
   d="m 1662.1,319.3 v 0 c 0,2.2 -1.8,4 -4,4 h -27.5 c -2.2,0 -4,-1.8 -4,-4 v 0 c 0,-2.2 1.8,-4 4,-4 h 27.5 c 2.2,0.1 4,1.9 4,4 z"
   id="path628"
   style="fill:#b3b3b3" />
		<path
   fill="#FFFFFF"
   d="m 1663.9,339.6 v 0 c 0.4,2.1 -1.1,4.2 -3.2,4.6 l -27.1,4.8 c -2.1,0.4 -4.2,-1.1 -4.6,-3.2 v 0 c -0.4,-2.1 1.1,-4.2 3.2,-4.6 l 27.1,-4.8 c 2.1,-0.4 4.2,1 4.6,3.2 z"
   id="path630"
   style="fill:#b3b3b3" />
		<path
   fill="#FFFFFF"
   d="m 1669.1,359.2 v 0 c 0.7,2 -0.3,4.3 -2.4,5.1 l -25.8,9.4 c -2,0.7 -4.3,-0.3 -5.1,-2.4 v 0 c -0.7,-2 0.3,-4.3 2.4,-5.1 l 25.8,-9.4 c 2.1,-0.7 4.4,0.4 5.1,2.4 z"
   id="path632"
   style="fill:#b3b3b3" />
		<path
   fill="#FFFFFF"
   d="m 1677.7,377.6 v 0 c 1.1,1.9 0.4,4.3 -1.4,5.4 l -23.8,13.7 c -1.9,1.1 -4.3,0.4 -5.4,-1.4 v 0 c -1.1,-1.9 -0.4,-4.3 1.4,-5.4 l 23.8,-13.7 c 1.9,-1.1 4.3,-0.5 5.4,1.4 z"
   id="path634"
   style="fill:#b3b3b3" />
		<path
   fill="#FFFFFF"
   d="m 1689.4,394.3 v 0 c 1.4,1.7 1.2,4.2 -0.5,5.6 l -21,17.7 c -1.7,1.4 -4.2,1.2 -5.6,-0.5 v 0 c -1.4,-1.7 -1.2,-4.2 0.5,-5.6 l 21,-17.7 c 1.7,-1.4 4.2,-1.2 5.6,0.5 z"
   id="path636"
   style="fill:#b3b3b3" />
		<path
   fill="#FFFFFF"
   d="m 1703.7,408.6 v 0 c 1.7,1.4 1.9,3.9 0.5,5.6 l -17.7,21 c -1.4,1.7 -3.9,1.9 -5.6,0.5 v 0 c -1.7,-1.4 -1.9,-3.9 -0.5,-5.6 l 17.7,-21 c 1.5,-1.6 4,-1.9 5.6,-0.5 z"
   id="path638"
   style="fill:#b3b3b3" />
		<path
   fill="#FFFFFF"
   d="m 1720.4,420.3 v 0 c 1.9,1.1 2.5,3.5 1.4,5.4 l -13.7,23.8 c -1.1,1.9 -3.5,2.5 -5.4,1.4 v 0 c -1.9,-1.1 -2.5,-3.5 -1.4,-5.4 l 13.7,-23.8 c 1.1,-1.8 3.5,-2.5 5.4,-1.4 z"
   id="path640"
   style="fill:#b3b3b3" />
		<path
   fill="#FFFFFF"
   d="m 1738.8,428.9 v 0 c 2,0.7 3.1,3 2.4,5.1 l -9.4,25.8 c -0.7,2 -3,3.1 -5.1,2.4 v 0 c -2,-0.7 -3.1,-3 -2.4,-5.1 l 9.4,-25.8 c 0.8,-2.1 3.1,-3.2 5.1,-2.4 z"
   id="path642"
   style="fill:#b3b3b3" />
		<path
   fill="#FFFFFF"
   d="m 1758.4,434.2 v 0 c 2.1,0.4 3.6,2.4 3.2,4.6 l -4.8,27.1 c -0.4,2.1 -2.4,3.6 -4.6,3.2 v 0 c -2.1,-0.4 -3.6,-2.4 -3.2,-4.6 l 4.8,-27.1 c 0.4,-2.2 2.5,-3.6 4.6,-3.2 z"
   id="path644"
   style="fill:#b3b3b3" />
		<path
   fill="#FFFFFF"
   d="m 1778.7,435.9 v 0 c 2.2,0 4,1.8 4,4 v 27.5 c 0,2.2 -1.8,4 -4,4 v 0 c -2.2,0 -4,-1.8 -4,-4 v -27.5 c 0,-2.2 1.8,-4 4,-4 z"
   id="path646"
   style="fill:#b3b3b3" />
		<path
   fill="#FFFFFF"
   d="m 1798.9,434.2 v 0 c 2.1,-0.4 4.2,1.1 4.6,3.2 l 4.8,27.1 c 0.4,2.1 -1.1,4.2 -3.2,4.6 v 0 c -2.1,0.4 -4.2,-1.1 -4.6,-3.2 l -4.8,-27.1 c -0.4,-2.2 1.1,-4.3 3.2,-4.6 z"
   id="path648"
   style="fill:#b3b3b3" />
		<path
   fill="#FFFFFF"
   d="m 1818.6,428.9 v 0 c 2,-0.7 4.3,0.3 5.1,2.4 l 9.4,25.8 c 0.7,2 -0.3,4.3 -2.4,5.1 v 0 c -2,0.7 -4.3,-0.3 -5.1,-2.4 l -9.4,-25.8 c -0.7,-2.1 0.3,-4.4 2.4,-5.1 z"
   id="path650"
   style="fill:#b3b3b3" />
		<path
   fill="#FFFFFF"
   d="m 1837,420.3 v 0 c 1.9,-1.1 4.3,-0.4 5.4,1.4 l 13.7,23.8 c 1.1,1.9 0.4,4.3 -1.4,5.4 v 0 c -1.9,1.1 -4.3,0.4 -5.4,-1.4 l -13.7,-23.8 c -1.2,-1.9 -0.5,-4.3 1.4,-5.4 z"
   id="path652"
   style="fill:#b3b3b3" />
		<path
   fill="#FFFFFF"
   d="m 1853.6,408.6 v 0 c 1.7,-1.4 4.2,-1.2 5.6,0.5 l 17.7,21 c 1.4,1.7 1.2,4.2 -0.5,5.6 v 0 c -1.7,1.4 -4.2,1.2 -5.6,-0.5 l -17.7,-21 c -1.4,-1.6 -1.1,-4.2 0.5,-5.6 z"
   id="path654"
   style="fill:#b3b3b3" />
		<path
   fill="#FFFFFF"
   d="m 1868,394.3 v 0 c 1.4,-1.7 3.9,-1.9 5.6,-0.5 l 21,17.7 c 1.7,1.4 1.9,3.9 0.5,5.6 v 0 c -1.4,1.7 -3.9,1.9 -5.6,0.5 l -21,-17.7 c -1.7,-1.4 -1.9,-4 -0.5,-5.6 z"
   id="path656"
   style="fill:#b3b3b3" />
		<path
   fill="#FFFFFF"
   d="m 1879.7,377.6 v 0 c 1.1,-1.9 3.5,-2.5 5.4,-1.4 l 23.8,13.7 c 1.9,1.1 2.5,3.5 1.4,5.4 v 0 c -1.1,1.9 -3.5,2.5 -5.4,1.4 L 1881.1,383 c -1.9,-1 -2.5,-3.5 -1.4,-5.4 z"
   id="path658"
   style="fill:#b3b3b3" />
		<path
   fill="#FFFFFF"
   d="m 1888.2,359.2 v 0 c 0.7,-2 3,-3.1 5.1,-2.4 l 25.8,9.4 c 2,0.7 3.1,3 2.4,5.1 v 0 c -0.7,2 -3,3.1 -5.1,2.4 l -25.8,-9.4 c -2,-0.8 -3.1,-3 -2.4,-5.1 z"
   id="path660"
   style="fill:#b3b3b3" />
		<path
   fill="#FFFFFF"
   d="m 1893.5,339.6 v 0 c 0.4,-2.1 2.4,-3.6 4.6,-3.2 l 27.1,4.8 c 2.1,0.4 3.6,2.4 3.2,4.6 v 0 c -0.4,2.1 -2.4,3.6 -4.6,3.2 l -27.1,-4.8 c -2.1,-0.4 -3.6,-2.5 -3.2,-4.6 z"
   id="path662"
   style="fill:#b3b3b3" />
		<path
   fill="#FFFFFF"
   d="m 1895.3,319.3 v 0 c 0,-2.2 1.8,-4 4,-4 h 27.5 c 2.2,0 4,1.8 4,4 v 0 c 0,2.2 -1.8,4 -4,4 h -27.5 c -2.2,0 -4,-1.8 -4,-4 z"
   id="path664"
   style="fill:#b3b3b3" />
		<path
   fill="#FFFFFF"
   d="m 1893.5,299.1 v 0 c -0.4,-2.1 1.1,-4.2 3.2,-4.6 l 27.1,-4.8 c 2.1,-0.4 4.2,1.1 4.6,3.2 v 0 c 0.4,2.1 -1.1,4.2 -3.2,4.6 l -27.1,4.8 c -2.2,0.4 -4.2,-1.1 -4.6,-3.2 z"
   id="path666"
   style="fill:#b3b3b3" />
		<path
   fill="#FFFFFF"
   d="m 1888.2,279.5 v 0 c -0.7,-2 0.3,-4.3 2.4,-5.1 l 25.8,-9.4 c 2,-0.7 4.3,0.3 5.1,2.4 v 0 c 0.7,2 -0.3,4.3 -2.4,5.1 l -25.8,9.4 c -2,0.7 -4.3,-0.4 -5.1,-2.4 z"
   id="path668"
   style="fill:#b3b3b3" />
		<path
   fill="#FFFFFF"
   d="m 1879.7,261 v 0 c -1.1,-1.9 -0.4,-4.3 1.4,-5.4 l 23.8,-13.7 c 1.9,-1.1 4.3,-0.4 5.4,1.4 v 0 c 1.1,1.9 0.4,4.3 -1.4,5.4 l -23.8,13.7 c -1.9,1.2 -4.4,0.5 -5.4,-1.4 z"
   id="path670"
   style="fill:#b3b3b3" />
		<path
   fill="#FFFFFF"
   d="m 1868,244.4 v 0 c -1.4,-1.7 -1.2,-4.2 0.5,-5.6 l 21,-17.7 c 1.7,-1.4 4.2,-1.2 5.6,0.5 v 0 c 1.4,1.7 1.2,4.2 -0.5,5.6 l -21,17.7 c -1.7,1.4 -4.2,1.2 -5.6,-0.5 z"
   id="path672"
   style="fill:#b3b3b3" />
		<path
   fill="#FFFFFF"
   d="m 1853.6,230 v 0 c -1.7,-1.4 -1.9,-3.9 -0.5,-5.6 l 17.7,-21 c 1.4,-1.7 3.9,-1.9 5.6,-0.5 v 0 c 1.7,1.4 1.9,3.9 0.5,5.6 l -17.7,21 c -1.4,1.7 -3.9,1.9 -5.6,0.5 z"
   id="path674"
   style="fill:#b3b3b3" />
		<path
   fill="#FFFFFF"
   d="m 1837,218.4 v 0 c -1.9,-1.1 -2.5,-3.5 -1.4,-5.4 l 13.7,-23.8 c 1.1,-1.9 3.5,-2.5 5.4,-1.4 v 0 c 1.9,1.1 2.5,3.5 1.4,5.4 l -13.7,23.8 c -1.1,1.8 -3.5,2.5 -5.4,1.4 z"
   id="path676"
   style="fill:#b3b3b3" />
		<path
   fill="#FFFFFF"
   d="m 1818.6,209.8 v 0 c -2,-0.7 -3.1,-3 -2.4,-5.1 l 9.4,-25.8 c 0.7,-2 3,-3.1 5.1,-2.4 v 0 c 2,0.7 3.1,3 2.4,5.1 l -9.4,25.8 c -0.8,2.1 -3.1,3.1 -5.1,2.4 z"
   id="path678"
   style="fill:#b3b3b3" />
		<path
   fill="#FFFFFF"
   d="m 1798.9,204.5 v 0 c -2.1,-0.4 -3.6,-2.4 -3.2,-4.6 l 4.8,-27.1 c 0.4,-2.1 2.4,-3.6 4.6,-3.2 v 0 c 2.1,0.4 3.6,2.4 3.2,4.6 l -4.8,27.1 c -0.4,2.2 -2.4,3.6 -4.6,3.2 z"
   id="path680"
   style="fill:#b3b3b3" />
	</g>
	<g
   id="g756"
   style="fill:#b3b3b3">
		<path
   fill="#FFFFFF"
   d="m 1781,293.7 v 0 c -0.5,0 -0.8,-0.5 -0.8,-0.9 l 5.9,-88.7 c 0.2,-1.7 1.7,-2.9 3.4,-2.8 v 0 c 1.7,0.2 2.9,1.7 2.8,3.4 L 1782,293 c -0.1,0.4 -0.5,0.8 -1,0.7 z"
   id="path684"
   style="fill:#b3b3b3" />
		<path
   fill="#FFFFFF"
   d="m 1776.6,293.7 v 0 c -0.5,0 -0.9,-0.3 -0.9,-0.8 l -9.6,-88.4 c -0.1,-1.7 1.1,-3.2 2.8,-3.3 v 0 c 1.7,-0.1 3.2,1.1 3.3,2.8 l 5.2,88.8 c 0,0.5 -0.4,0.9 -0.8,0.9 z"
   id="path686"
   style="fill:#b3b3b3" />
		<path
   fill="#FFFFFF"
   d="m 1772.1,294.5 v 0 c -0.5,0.1 -0.9,-0.2 -1.1,-0.6 l -24.8,-85.4 c -0.4,-1.6 0.6,-3.3 2.2,-3.8 v 0 c 1.6,-0.4 3.3,0.6 3.8,2.2 l 20.5,86.5 c 0.2,0.5 -0.1,1 -0.6,1.1 z"
   id="path688"
   style="fill:#b3b3b3" />
		<path
   fill="#FFFFFF"
   d="m 1767.9,296 v 0 c -0.4,0.2 -1,0 -1.2,-0.4 l -39.3,-79.8 c -0.7,-1.5 0,-3.4 1.5,-4.1 v 0 c 1.5,-0.7 3.4,0 4.1,1.5 l 35.2,81.6 c 0.3,0.5 0.2,1 -0.3,1.2 z"
   id="path690"
   style="fill:#b3b3b3" />
		<path
   fill="#FFFFFF"
   d="m 1764,298.2 v 0 c -0.4,0.3 -0.9,0.2 -1.2,-0.2 l -52.5,-71.8 c -1,-1.4 -0.6,-3.3 0.8,-4.3 v 0 c 1.4,-1 3.3,-0.6 4.3,0.8 l 48.9,74.3 c 0.2,0.4 0.1,1 -0.3,1.2 z"
   id="path692"
   style="fill:#b3b3b3" />
		<path
   fill="#FFFFFF"
   d="m 1760.6,301.1 v 0 c -0.3,0.3 -0.9,0.3 -1.2,0 l -64.2,-61.5 c -1.2,-1.2 -1.2,-3.2 0,-4.4 v 0 c 1.2,-1.2 3.2,-1.2 4.4,0 l 61,64.7 c 0.3,0.3 0.3,0.9 0,1.2 z"
   id="path694"
   style="fill:#b3b3b3" />
		<path
   fill="#FFFFFF"
   d="m 1757.7,304.5 v 0 c -0.3,0.4 -0.8,0.5 -1.2,0.2 l -73.9,-49.5 c -1.4,-1 -1.7,-2.9 -0.7,-4.3 v 0 c 1,-1.4 2.9,-1.7 4.3,-0.7 l 71.3,53.1 c 0.4,0.3 0.5,0.8 0.2,1.2 z"
   id="path696"
   style="fill:#b3b3b3" />
		<path
   fill="#FFFFFF"
   d="m 1755.4,308.4 v 0 c -0.2,0.4 -0.7,0.6 -1.2,0.4 l -81.4,-35.9 c -1.5,-0.7 -2.2,-2.6 -1.5,-4.1 v 0 c 0.7,-1.5 2.6,-2.2 4.1,-1.5 l 79.5,39.9 c 0.6,0.2 0.7,0.7 0.5,1.2 z"
   id="path698"
   style="fill:#b3b3b3" />
		<path
   fill="#FFFFFF"
   d="m 1753.9,312.6 v 0 c -0.1,0.5 -0.6,0.7 -1.1,0.6 L 1666.5,292 c -1.6,-0.4 -2.6,-2.2 -2.2,-3.8 v 0 c 0.4,-1.6 2.2,-2.6 3.8,-2.2 l 85.2,25.5 c 0.4,0.1 0.7,0.6 0.6,1.1 z"
   id="path700"
   style="fill:#b3b3b3" />
		<path
   fill="#FFFFFF"
   d="m 1753.1,317 v 0 c 0,0.5 -0.5,0.8 -0.9,0.8 l -88.7,-5.9 c -1.7,-0.2 -2.9,-1.7 -2.8,-3.4 v 0 c 0.2,-1.7 1.7,-2.9 3.4,-2.8 l 88.3,10.3 c 0.4,0.1 0.7,0.5 0.7,1 z"
   id="path702"
   style="fill:#b3b3b3" />
		<path
   fill="#FFFFFF"
   d="m 1753.1,321.5 v 0 c 0,0.5 -0.3,0.9 -0.8,0.9 l -88.4,9.6 c -1.7,0.1 -3.2,-1.1 -3.3,-2.8 v 0 c -0.1,-1.7 1.1,-3.2 2.8,-3.3 l 88.8,-5.2 c 0.4,-0.1 0.8,0.3 0.9,0.8 z"
   id="path704"
   style="fill:#b3b3b3" />
		<path
   fill="#FFFFFF"
   d="m 1753.8,325.9 v 0 c 0.1,0.5 -0.2,0.9 -0.6,1.1 l -85.4,24.8 c -1.6,0.4 -3.3,-0.6 -3.8,-2.2 v 0 c -0.4,-1.6 0.6,-3.3 2.2,-3.8 l 86.5,-20.5 c 0.5,-0.2 1,0.1 1.1,0.6 z"
   id="path706"
   style="fill:#b3b3b3" />
		<path
   fill="#FFFFFF"
   d="m 1755.4,330.1 v 0 c 0.2,0.4 0,1 -0.4,1.2 l -79.8,39.3 c -1.5,0.7 -3.4,0 -4.1,-1.5 v 0 c -0.7,-1.5 0,-3.4 1.5,-4.1 l 81.6,-35.2 c 0.4,-0.3 1,-0.1 1.2,0.3 z"
   id="path708"
   style="fill:#b3b3b3" />
		<path
   fill="#FFFFFF"
   d="m 1757.6,334 v 0 c 0.3,0.4 0.2,0.9 -0.2,1.2 l -71.8,52.5 c -1.4,1 -3.3,0.6 -4.3,-0.8 v 0 c -1,-1.4 -0.6,-3.3 0.8,-4.3 l 74.3,-48.9 c 0.4,-0.2 0.9,-0.1 1.2,0.3 z"
   id="path710"
   style="fill:#b3b3b3" />
		<path
   fill="#FFFFFF"
   d="m 1760.4,337.4 v 0 c 0.3,0.3 0.3,0.9 0,1.2 l -61.5,64.2 c -1.2,1.2 -3.2,1.2 -4.4,0 v 0 c -1.2,-1.2 -1.2,-3.2 0,-4.4 l 64.7,-61 c 0.3,-0.3 0.9,-0.3 1.2,0 z"
   id="path712"
   style="fill:#b3b3b3" />
		<path
   fill="#FFFFFF"
   d="m 1763.9,340.3 v 0 c 0.4,0.3 0.5,0.8 0.2,1.2 l -49.5,73.9 c -1,1.4 -2.9,1.7 -4.3,0.7 v 0 c -1.4,-1 -1.7,-2.9 -0.7,-4.3 l 53.1,-71.3 c 0.2,-0.4 0.8,-0.4 1.2,-0.2 z"
   id="path714"
   style="fill:#b3b3b3" />
		<path
   fill="#FFFFFF"
   d="m 1767.7,342.6 v 0 c 0.4,0.2 0.6,0.7 0.4,1.2 l -35.9,81.4 c -0.7,1.5 -2.6,2.2 -4.1,1.5 v 0 c -1.5,-0.7 -2.2,-2.6 -1.5,-4.1 l 39.9,-79.5 c 0.3,-0.5 0.8,-0.7 1.2,-0.5 z"
   id="path716"
   style="fill:#b3b3b3" />
		<path
   fill="#FFFFFF"
   d="m 1771.9,344.1 v 0 c 0.5,0.1 0.7,0.6 0.6,1.1 l -21.2,86.3 c -0.4,1.6 -2.2,2.6 -3.8,2.2 v 0 c -1.6,-0.4 -2.6,-2.2 -2.2,-3.8 l 25.5,-85.2 c 0.2,-0.4 0.7,-0.7 1.1,-0.6 z"
   id="path718"
   style="fill:#b3b3b3" />
		<path
   fill="#FFFFFF"
   d="m 1776.3,344.9 v 0 c 0.5,0 0.8,0.5 0.8,0.9 l -5.9,88.7 c -0.2,1.7 -1.7,2.9 -3.4,2.8 v 0 c -1.7,-0.2 -2.9,-1.7 -2.8,-3.4 l 10.3,-88.3 c 0.1,-0.4 0.6,-0.7 1,-0.7 z"
   id="path720"
   style="fill:#b3b3b3" />
		<path
   fill="#FFFFFF"
   d="m 1780.8,345 v 0 c 0.5,0 0.9,0.3 0.9,0.8 l 9.6,88.4 c 0.1,1.7 -1.1,3.2 -2.8,3.3 v 0 c -1.7,0.1 -3.2,-1.1 -3.3,-2.8 l -5.2,-88.8 c 0,-0.5 0.3,-0.9 0.8,-0.9 z"
   id="path722"
   style="fill:#b3b3b3" />
		<path
   fill="#FFFFFF"
   d="m 1785.2,344.2 v 0 c 0.5,-0.1 0.9,0.2 1.1,0.6 l 24.8,85.4 c 0.4,1.6 -0.6,3.3 -2.2,3.8 v 0 c -1.6,0.4 -3.3,-0.6 -3.8,-2.2 l -20.5,-86.5 c -0.1,-0.5 0.2,-1 0.6,-1.1 z"
   id="path724"
   style="fill:#b3b3b3" />
		<path
   fill="#FFFFFF"
   d="m 1789.5,342.7 v 0 c 0.4,-0.2 1,0 1.2,0.4 l 39.3,79.8 c 0.7,1.5 0,3.4 -1.5,4.1 v 0 c -1.5,0.7 -3.4,0 -4.1,-1.5 l -35.2,-81.6 c -0.4,-0.5 -0.2,-1 0.3,-1.2 z"
   id="path726"
   style="fill:#b3b3b3" />
		<path
   fill="#FFFFFF"
   d="m 1793.3,340.5 v 0 c 0.4,-0.3 0.9,-0.2 1.2,0.2 l 52.5,71.8 c 1,1.4 0.6,3.3 -0.8,4.3 v 0 c -1.4,1 -3.3,0.6 -4.3,-0.8 L 1793,341.7 c -0.1,-0.4 -0.1,-1 0.3,-1.2 z"
   id="path728"
   style="fill:#b3b3b3" />
		<path
   fill="#FFFFFF"
   d="m 1796.8,337.6 v 0 c 0.3,-0.3 0.9,-0.3 1.2,0 l 64.2,61.5 c 1.2,1.2 1.2,3.2 0,4.4 v 0 c -1.2,1.2 -3.2,1.2 -4.4,0 l -61,-64.7 c -0.4,-0.3 -0.4,-0.9 0,-1.2 z"
   id="path730"
   style="fill:#b3b3b3" />
		<path
   fill="#FFFFFF"
   d="m 1799.7,334.2 v 0 c 0.3,-0.4 0.8,-0.5 1.2,-0.2 l 73.9,49.5 c 1.4,1 1.7,2.9 0.7,4.3 v 0 c -1,1.4 -2.9,1.7 -4.3,0.7 l -71.3,-53.1 c -0.4,-0.3 -0.5,-0.8 -0.2,-1.2 z"
   id="path732"
   style="fill:#b3b3b3" />
		<path
   fill="#FFFFFF"
   d="m 1801.9,330.3 v 0 c 0.2,-0.4 0.7,-0.6 1.2,-0.4 l 81.4,35.9 c 1.5,0.7 2.2,2.6 1.5,4.1 v 0 c -0.7,1.5 -2.6,2.2 -4.1,1.5 l -79.5,-39.9 c -0.5,-0.2 -0.7,-0.8 -0.5,-1.2 z"
   id="path734"
   style="fill:#b3b3b3" />
		<path
   fill="#FFFFFF"
   d="m 1803.5,326.1 v 0 c 0.1,-0.5 0.6,-0.7 1.1,-0.6 l 86.3,21.2 c 1.6,0.4 2.6,2.2 2.2,3.8 v 0 c -0.4,1.6 -2.2,2.6 -3.8,2.2 l -85.2,-25.5 c -0.5,-0.2 -0.7,-0.6 -0.6,-1.1 z"
   id="path736"
   style="fill:#b3b3b3" />
		<path
   fill="#FFFFFF"
   d="m 1804.3,321.7 v 0 c 0,-0.5 0.5,-0.8 0.9,-0.8 l 88.7,5.9 c 1.7,0.2 2.9,1.7 2.8,3.4 v 0 c -0.2,1.7 -1.7,2.9 -3.4,2.8 L 1805,322.7 c -0.4,-0.1 -0.8,-0.5 -0.7,-1 z"
   id="path738"
   style="fill:#b3b3b3" />
		<path
   fill="#FFFFFF"
   d="m 1804.3,317.2 v 0 c 0,-0.5 0.3,-0.9 0.8,-0.9 l 88.4,-9.6 c 1.7,-0.1 3.2,1.1 3.3,2.8 v 0 c 0.1,1.7 -1.1,3.2 -2.8,3.3 l -88.8,5.2 c -0.4,0 -0.9,-0.3 -0.9,-0.8 z"
   id="path740"
   style="fill:#b3b3b3" />
		<path
   fill="#FFFFFF"
   d="m 1803.5,312.8 v 0 c -0.1,-0.5 0.2,-0.9 0.6,-1.1 l 85.4,-24.8 c 1.6,-0.4 3.3,0.6 3.8,2.2 v 0 c 0.4,1.6 -0.6,3.3 -2.2,3.8 l -86.5,20.5 c -0.5,0.1 -0.9,-0.1 -1.1,-0.6 z"
   id="path742"
   style="fill:#b3b3b3" />
		<path
   fill="#FFFFFF"
   d="m 1802,308.6 v 0 c -0.2,-0.4 0,-1 0.4,-1.2 l 79.8,-39.3 c 1.5,-0.7 3.4,0 4.1,1.5 v 0 c 0.7,1.5 0,3.4 -1.5,4.1 l -81.6,35.2 c -0.5,0.3 -1,0.1 -1.2,-0.3 z"
   id="path744"
   style="fill:#b3b3b3" />
		<path
   fill="#FFFFFF"
   d="m 1799.8,304.7 v 0 c -0.3,-0.4 -0.2,-0.9 0.2,-1.2 l 71.8,-52.5 c 1.4,-1 3.3,-0.6 4.3,0.8 v 0 c 1,1.4 0.6,3.3 -0.8,4.3 L 1801,305 c -0.4,0.2 -0.9,0.1 -1.2,-0.3 z"
   id="path746"
   style="fill:#b3b3b3" />
		<path
   fill="#FFFFFF"
   d="m 1796.9,301.2 v 0 c -0.3,-0.3 -0.3,-0.9 0,-1.2 l 61.5,-64.2 c 1.2,-1.2 3.2,-1.2 4.4,0 v 0 c 1.2,1.2 1.2,3.2 0,4.4 l -64.7,61 c -0.3,0.4 -0.8,0.4 -1.2,0 z"
   id="path748"
   style="fill:#b3b3b3" />
		<path
   fill="#FFFFFF"
   d="m 1793.5,298.3 v 0 c -0.4,-0.3 -0.5,-0.8 -0.2,-1.2 l 49.5,-73.9 c 1,-1.4 2.9,-1.7 4.3,-0.7 v 0 c 1.4,1 1.7,2.9 0.7,4.3 l -53.1,71.3 c -0.2,0.4 -0.8,0.5 -1.2,0.2 z"
   id="path750"
   style="fill:#b3b3b3" />
		<path
   fill="#FFFFFF"
   d="m 1789.6,296.1 v 0 c -0.4,-0.2 -0.6,-0.7 -0.4,-1.2 l 35.9,-81.4 c 0.7,-1.5 2.6,-2.2 4.1,-1.5 v 0 c 1.5,0.7 2.2,2.6 1.5,4.1 l -39.9,79.5 c -0.2,0.5 -0.7,0.7 -1.2,0.5 z"
   id="path752"
   style="fill:#b3b3b3" />
		<path
   fill="#FFFFFF"
   d="m 1785.4,294.5 v 0 c -0.5,-0.1 -0.7,-0.6 -0.6,-1.1 l 21.2,-86.3 c 0.4,-1.6 2.2,-2.6 3.8,-2.2 v 0 c 1.6,0.4 2.6,2.2 2.2,3.8 l -25.5,85.2 c -0.1,0.5 -0.6,0.8 -1.1,0.6 z"
   id="path754"
   style="fill:#b3b3b3" />
	</g>
</g>





















</svg>
