<?xml version="1.0" encoding="UTF-8" standalone="no"?>
<!-- Generator: Adobe Illustrator 21.0.2, SVG Export Plug-In . SVG Version: 6.00 Build 0)  -->

<svg
   version="1.1"
   id="Layer_1"
   x="0px"
   y="0px"
   width="1905.7145"
   height="1856.6377"
   viewBox="0 0 1905.7145 1856.6377"
   enable-background="new 0 0 2272 1872"
   xml:space="preserve"
   sodipodi:docname="fluid.svg"
   inkscape:version="1.2.1 (9c6d41e4, 2022-07-14)"
   xmlns:inkscape="http://www.inkscape.org/namespaces/inkscape"
   xmlns:sodipodi="http://sodipodi.sourceforge.net/DTD/sodipodi-0.dtd"
   xmlns="http://www.w3.org/2000/svg"
   xmlns:svg="http://www.w3.org/2000/svg"><defs
   id="defs2687" /><sodipodi:namedview
   id="namedview2685"
   pagecolor="#ffffff"
   bordercolor="#000000"
   borderopacity="0.25"
   inkscape:showpageshadow="2"
   inkscape:pageopacity="0.0"
   inkscape:pagecheckerboard="0"
   inkscape:deskcolor="#d1d1d1"
   showgrid="false"
   inkscape:zoom="0.1271115"
   inkscape:cx="951.92017"
   inkscape:cy="928.31885"
   inkscape:window-width="1309"
   inkscape:window-height="456"
   inkscape:window-x="0"
   inkscape:window-y="25"
   inkscape:window-maximized="0"
   inkscape:current-layer="Layer_1" />







<g
   id="g1360"
   style="fill:#00b2ff;fill-opacity:1"
   transform="matrix(4.4277089,0,0,5.1344178,-1353.7575,-7017.1927)">
	<g
   id="g1294"
   style="fill:#00b2ff;fill-opacity:1">
		<path
   fill="#FFFFFF"
   d="m 315.9,1374.8 c -0.7,2.8 -3.4,4.6 -6,4 -2.6,-0.4 -4.5,-3.1 -4.1,-6 0.4,-2.9 3.1,-4.8 6.1,-4.4 2.9,0.7 4.7,3.6 4,6.4 z"
   id="path1292"
   style="fill:#00b2ff;fill-opacity:1" />
	</g>
	<g
   id="g1298"
   style="fill:#00b2ff;fill-opacity:1">
		<path
   fill="#FFFFFF"
   d="m 341.3,1384.3 c -1.1,2.7 -4.2,4 -6.8,2.8 -2.7,-1.1 -3.8,-4.2 -2.7,-6.9 1.1,-2.7 4.2,-3.9 6.8,-2.8 2.6,1.2 3.8,4.2 2.7,6.9 z"
   id="path1296"
   style="fill:#00b2ff;fill-opacity:1" />
	</g>
	<g
   id="g1302"
   style="fill:#00b2ff;fill-opacity:1">
		<path
   fill="#FFFFFF"
   d="m 367.5,1391 c -0.2,1.4 -0.9,2.7 -2,3.5 -1.1,0.8 -2.5,1.2 -4,0.9 -3,-0.4 -4.9,-3.4 -4.3,-6.1 0.7,-2.9 3.3,-4.6 5.9,-4.2 1.3,0.2 2.5,1 3.2,2.1 1,1 1.4,2.4 1.2,3.8 z"
   id="path1300"
   style="fill:#00b2ff;fill-opacity:1" />
	</g>
	<g
   id="g1306"
   style="fill:#00b2ff;fill-opacity:1">
		<path
   fill="#FFFFFF"
   d="m 394.7,1391.1 c 0.3,2.9 -1.9,5.5 -4.9,5.7 -3,0.1 -5.4,-2.2 -5.5,-5.1 0,-2.9 2.2,-5.3 4.9,-5.4 2.7,-0.2 5.1,1.9 5.5,4.8 z"
   id="path1304"
   style="fill:#00b2ff;fill-opacity:1" />
	</g>
	<g
   id="g1310"
   style="fill:#00b2ff;fill-opacity:1">
		<path
   fill="#FFFFFF"
   d="m 421,1384.8 c 0.5,1.3 0.5,2.8 -0.1,4 -0.6,1.2 -1.7,2.2 -3.1,2.7 -1.4,0.5 -2.9,0.4 -4.1,-0.3 -1.2,-0.6 -2.1,-1.7 -2.5,-3.1 -0.4,-1.4 -0.2,-2.8 0.4,-4 0.6,-1.2 1.6,-2 2.9,-2.5 1.3,-0.5 2.6,-0.3 3.8,0.3 1.1,0.5 2.1,1.5 2.7,2.9 z"
   id="path1308"
   style="fill:#00b2ff;fill-opacity:1" />
	</g>
	<g
   id="g1314"
   style="fill:#00b2ff;fill-opacity:1">
		<path
   fill="#FFFFFF"
   d="m 446.3,1375.1 c 0.7,2.8 -0.8,5.7 -3.3,6.5 -2.5,0.9 -5.5,-0.6 -6.5,-3.2 -1.1,-2.7 0.4,-5.7 3.2,-6.7 2.9,-1 5.9,0.6 6.6,3.4 z"
   id="path1312"
   style="fill:#00b2ff;fill-opacity:1" />
	</g>
	<g
   id="g1318"
   style="fill:#00b2ff;fill-opacity:1">
		<path
   fill="#FFFFFF"
   d="m 473.2,1371.8 c 0,2.9 -2.2,5.3 -4.9,5.4 -1.4,0 -2.6,-0.5 -3.6,-1.3 -1,-0.9 -1.7,-2.1 -1.8,-3.6 -0.1,-1.4 0.3,-2.8 1.2,-3.8 0.9,-1 2.2,-1.7 3.7,-1.8 3,-0.1 5.4,2.2 5.4,5.1 z"
   id="path1316"
   style="fill:#00b2ff;fill-opacity:1" />
	</g>
	<g
   id="g1322"
   style="fill:#00b2ff;fill-opacity:1">
		<path
   fill="#FFFFFF"
   d="m 500.2,1374.5 c -0.3,1.4 -1.2,2.6 -2.3,3.3 -1.1,0.8 -2.4,1 -3.7,0.8 -2.7,-0.4 -4.5,-3.1 -4.2,-6 0.3,-2.9 3,-4.8 6,-4.4 1.5,0.2 2.7,1.1 3.5,2.3 0.8,1.2 1,2.6 0.7,4 z"
   id="path1320"
   style="fill:#00b2ff;fill-opacity:1" />
	</g>
	<g
   id="g1326"
   style="fill:#00b2ff;fill-opacity:1">
		<path
   fill="#FFFFFF"
   d="m 525.7,1383.8 c -1.1,2.7 -4.2,3.9 -6.9,2.8 -2.6,-1.1 -3.8,-4.2 -2.7,-6.8 1.1,-2.7 4.2,-3.9 6.9,-2.8 2.6,1.1 3.8,4.1 2.7,6.8 z"
   id="path1324"
   style="fill:#00b2ff;fill-opacity:1" />
	</g>
	<g
   id="g1330"
   style="fill:#00b2ff;fill-opacity:1">
		<path
   fill="#FFFFFF"
   d="m 551.8,1390.9 c -0.3,2.9 -3,4.8 -6,4.4 -1.5,-0.2 -2.7,-1.1 -3.5,-2.3 -0.8,-1.1 -1,-2.5 -0.7,-4 0.3,-1.4 1.2,-2.6 2.3,-3.3 1.1,-0.8 2.4,-1 3.7,-0.8 2.7,0.4 4.5,3.1 4.2,6 z"
   id="path1328"
   style="fill:#00b2ff;fill-opacity:1" />
	</g>
	<g
   id="g1334"
   style="fill:#00b2ff;fill-opacity:1">
		<path
   fill="#FFFFFF"
   d="m 579,1391.2 c 0.1,1.4 -0.3,2.8 -1.2,3.8 -0.9,1 -2.2,1.8 -3.7,1.8 -3,0.1 -5.4,-2.2 -5.4,-5.1 0,-2.9 2.2,-5.3 4.9,-5.4 1.4,0 2.6,0.5 3.6,1.3 0.9,0.9 1.6,2.2 1.8,3.6 z"
   id="path1332"
   style="fill:#00b2ff;fill-opacity:1" />
	</g>
	<g
   id="g1338"
   style="fill:#00b2ff;fill-opacity:1">
		<path
   fill="#FFFFFF"
   d="m 605.3,1385.2 c 1.1,2.7 -0.4,5.7 -3.2,6.7 -2.9,0.9 -5.9,-0.7 -6.6,-3.5 -0.7,-2.8 0.8,-5.7 3.3,-6.5 2.6,-0.8 5.5,0.7 6.5,3.3 z"
   id="path1336"
   style="fill:#00b2ff;fill-opacity:1" />
	</g>
	<g
   id="g1342"
   style="fill:#00b2ff;fill-opacity:1">
		<path
   fill="#FFFFFF"
   d="m 630.7,1375.4 c 0.4,1.4 0.2,2.8 -0.4,4 -0.6,1.2 -1.6,2 -2.9,2.5 -1.3,0.5 -2.6,0.3 -3.8,-0.3 -1.2,-0.5 -2.2,-1.6 -2.7,-2.9 -0.5,-1.3 -0.5,-2.8 0.1,-4 0.6,-1.2 1.7,-2.2 3.1,-2.7 1.4,-0.5 2.9,-0.4 4.1,0.3 1.2,0.6 2.1,1.7 2.5,3.1 z"
   id="path1340"
   style="fill:#00b2ff;fill-opacity:1" />
	</g>
	<g
   id="g1346"
   style="fill:#00b2ff;fill-opacity:1">
		<path
   fill="#FFFFFF"
   d="m 657.5,1371.8 c 0,2.9 -2.2,5.3 -4.9,5.4 -2.7,0.2 -5.1,-1.9 -5.5,-4.8 -0.3,-2.9 1.9,-5.5 4.9,-5.7 3,0 5.5,2.2 5.5,5.1 z"
   id="path1344"
   style="fill:#00b2ff;fill-opacity:1" />
	</g>
	<g
   id="g1350"
   style="fill:#00b2ff;fill-opacity:1">
		<path
   fill="#FFFFFF"
   d="m 684.5,1374.2 c -0.7,2.9 -3.3,4.6 -5.9,4.2 -1.3,-0.2 -2.5,-1 -3.2,-2.1 -0.8,-1.1 -1.2,-2.4 -1.1,-3.8 0.2,-1.4 0.9,-2.7 2,-3.5 1.1,-0.8 2.5,-1.2 4,-0.9 3,0.3 4.9,3.3 4.2,6.1 z"
   id="path1348"
   style="fill:#00b2ff;fill-opacity:1" />
	</g>
	<g
   id="g1354"
   style="fill:#00b2ff;fill-opacity:1">
		<path
   fill="#FFFFFF"
   d="m 710.1,1383.3 c -1.1,2.7 -4.2,3.9 -6.8,2.8 -2.6,-1.1 -3.8,-4.1 -2.7,-6.8 1.1,-2.7 4.2,-4 6.8,-2.8 2.6,1.1 3.8,4.1 2.7,6.8 z"
   id="path1352"
   style="fill:#00b2ff;fill-opacity:1" />
	</g>
	<g
   id="g1358"
   style="fill:#00b2ff;fill-opacity:1">
		<path
   fill="#FFFFFF"
   d="m 736.1,1390.7 c -0.4,2.9 -3.1,4.8 -6.1,4.4 -3,-0.7 -4.8,-3.5 -4.1,-6.3 0.7,-2.8 3.4,-4.6 6,-4 2.7,0.4 4.6,3 4.2,5.9 z"
   id="path1356"
   style="fill:#00b2ff;fill-opacity:1" />
	</g>
</g>
<g
   id="g1430"
   style="fill:#00b2ff;fill-opacity:1"
   transform="matrix(4.4277089,0,0,5.1344178,-1353.7575,-7017.1927)">
	<g
   id="g1364"
   style="fill:#00b2ff;fill-opacity:1">
		<path
   fill="#FFFFFF"
   d="m 315.9,1400.3 c -0.7,2.8 -3.4,4.6 -6,4 -2.6,-0.4 -4.5,-3.1 -4.1,-6 0.4,-2.9 3.1,-4.8 6.1,-4.4 2.9,0.7 4.7,3.6 4,6.4 z"
   id="path1362"
   style="fill:#00b2ff;fill-opacity:1" />
	</g>
	<g
   id="g1368"
   style="fill:#00b2ff;fill-opacity:1">
		<path
   fill="#FFFFFF"
   d="m 341.3,1409.8 c -1.1,2.7 -4.2,4 -6.8,2.8 -2.7,-1.1 -3.8,-4.2 -2.7,-6.9 1.1,-2.7 4.2,-3.9 6.8,-2.8 2.6,1.2 3.8,4.2 2.7,6.9 z"
   id="path1366"
   style="fill:#00b2ff;fill-opacity:1" />
	</g>
	<g
   id="g1372"
   style="fill:#00b2ff;fill-opacity:1">
		<path
   fill="#FFFFFF"
   d="m 367.5,1416.5 c -0.2,1.4 -0.9,2.7 -2,3.5 -1.1,0.8 -2.5,1.2 -4,0.9 -3,-0.4 -4.9,-3.4 -4.3,-6.1 0.7,-2.9 3.3,-4.6 5.9,-4.2 1.3,0.2 2.5,1 3.2,2.1 1,1 1.4,2.4 1.2,3.8 z"
   id="path1370"
   style="fill:#00b2ff;fill-opacity:1" />
	</g>
	<g
   id="g1376"
   style="fill:#00b2ff;fill-opacity:1">
		<path
   fill="#FFFFFF"
   d="m 394.7,1416.6 c 0.3,2.9 -1.9,5.5 -4.9,5.7 -3,0.1 -5.4,-2.2 -5.5,-5.1 0,-2.9 2.2,-5.3 4.9,-5.4 2.7,-0.2 5.1,1.9 5.5,4.8 z"
   id="path1374"
   style="fill:#00b2ff;fill-opacity:1" />
	</g>
	<g
   id="g1380"
   style="fill:#00b2ff;fill-opacity:1">
		<path
   fill="#FFFFFF"
   d="m 421,1410.2 c 0.5,1.3 0.5,2.8 -0.1,4 -0.6,1.2 -1.7,2.2 -3.1,2.7 -1.4,0.5 -2.9,0.4 -4.1,-0.3 -1.2,-0.6 -2.1,-1.7 -2.5,-3.1 -0.4,-1.4 -0.2,-2.8 0.4,-4 0.6,-1.2 1.6,-2 2.9,-2.5 1.3,-0.5 2.6,-0.3 3.8,0.3 1.1,0.6 2.1,1.6 2.7,2.9 z"
   id="path1378"
   style="fill:#00b2ff;fill-opacity:1" />
	</g>
	<g
   id="g1384"
   style="fill:#00b2ff;fill-opacity:1">
		<path
   fill="#FFFFFF"
   d="m 446.3,1400.6 c 0.7,2.8 -0.8,5.7 -3.3,6.5 -2.5,0.9 -5.5,-0.6 -6.5,-3.2 -1.1,-2.7 0.4,-5.7 3.2,-6.7 2.9,-1 5.9,0.6 6.6,3.4 z"
   id="path1382"
   style="fill:#00b2ff;fill-opacity:1" />
	</g>
	<g
   id="g1388"
   style="fill:#00b2ff;fill-opacity:1">
		<path
   fill="#FFFFFF"
   d="m 473.2,1397.3 c 0,2.9 -2.2,5.3 -4.9,5.4 -1.4,0 -2.6,-0.5 -3.6,-1.3 -1,-0.9 -1.7,-2.1 -1.8,-3.6 -0.1,-1.4 0.3,-2.8 1.2,-3.8 0.9,-1 2.2,-1.7 3.7,-1.8 3,-0.1 5.4,2.2 5.4,5.1 z"
   id="path1386"
   style="fill:#00b2ff;fill-opacity:1" />
	</g>
	<g
   id="g1392"
   style="fill:#00b2ff;fill-opacity:1">
		<path
   fill="#FFFFFF"
   d="m 500.2,1400 c -0.3,1.4 -1.2,2.6 -2.3,3.3 -1.1,0.8 -2.4,1 -3.7,0.8 -2.7,-0.4 -4.5,-3.1 -4.2,-6 0.3,-2.9 3,-4.8 6,-4.4 1.5,0.2 2.7,1.1 3.5,2.3 0.8,1.2 1,2.6 0.7,4 z"
   id="path1390"
   style="fill:#00b2ff;fill-opacity:1" />
	</g>
	<g
   id="g1396"
   style="fill:#00b2ff;fill-opacity:1">
		<path
   fill="#FFFFFF"
   d="m 525.7,1409.3 c -1.1,2.7 -4.2,3.9 -6.9,2.8 -2.6,-1.1 -3.8,-4.2 -2.7,-6.8 1.1,-2.7 4.2,-3.9 6.9,-2.8 2.6,1.1 3.8,4.1 2.7,6.8 z"
   id="path1394"
   style="fill:#00b2ff;fill-opacity:1" />
	</g>
	<g
   id="g1400"
   style="fill:#00b2ff;fill-opacity:1">
		<path
   fill="#FFFFFF"
   d="m 551.8,1416.4 c -0.3,2.9 -3,4.8 -6,4.4 -1.5,-0.2 -2.7,-1.1 -3.5,-2.3 -0.8,-1.1 -1,-2.5 -0.7,-4 0.3,-1.4 1.2,-2.6 2.3,-3.3 1.1,-0.8 2.4,-1 3.7,-0.8 2.7,0.4 4.5,3.1 4.2,6 z"
   id="path1398"
   style="fill:#00b2ff;fill-opacity:1" />
	</g>
	<g
   id="g1404"
   style="fill:#00b2ff;fill-opacity:1">
		<path
   fill="#FFFFFF"
   d="m 579,1416.7 c 0.1,1.4 -0.3,2.8 -1.2,3.8 -0.9,1 -2.2,1.8 -3.7,1.8 -3,0.1 -5.4,-2.2 -5.4,-5.1 0,-2.9 2.2,-5.3 4.9,-5.4 1.4,0 2.6,0.5 3.6,1.3 0.9,0.9 1.6,2.2 1.8,3.6 z"
   id="path1402"
   style="fill:#00b2ff;fill-opacity:1" />
	</g>
	<g
   id="g1408"
   style="fill:#00b2ff;fill-opacity:1">
		<path
   fill="#FFFFFF"
   d="m 605.3,1410.7 c 1.1,2.7 -0.4,5.7 -3.2,6.7 -2.9,0.9 -5.9,-0.7 -6.6,-3.5 -0.7,-2.8 0.8,-5.7 3.3,-6.5 2.6,-0.8 5.5,0.7 6.5,3.3 z"
   id="path1406"
   style="fill:#00b2ff;fill-opacity:1" />
	</g>
	<g
   id="g1412"
   style="fill:#00b2ff;fill-opacity:1">
		<path
   fill="#FFFFFF"
   d="m 630.7,1400.9 c 0.4,1.4 0.2,2.8 -0.4,4 -0.6,1.2 -1.6,2 -2.9,2.5 -1.3,0.5 -2.6,0.3 -3.8,-0.3 -1.2,-0.5 -2.2,-1.6 -2.7,-2.9 -0.5,-1.3 -0.5,-2.8 0.1,-4 0.6,-1.2 1.7,-2.2 3.1,-2.7 1.4,-0.5 2.9,-0.4 4.1,0.3 1.2,0.6 2.1,1.7 2.5,3.1 z"
   id="path1410"
   style="fill:#00b2ff;fill-opacity:1" />
	</g>
	<g
   id="g1416"
   style="fill:#00b2ff;fill-opacity:1">
		<path
   fill="#FFFFFF"
   d="m 657.5,1397.3 c 0,2.9 -2.2,5.3 -4.9,5.4 -2.7,0.2 -5.1,-1.9 -5.5,-4.8 -0.3,-2.9 1.9,-5.5 4.9,-5.7 3,0 5.5,2.2 5.5,5.1 z"
   id="path1414"
   style="fill:#00b2ff;fill-opacity:1" />
	</g>
	<g
   id="g1420"
   style="fill:#00b2ff;fill-opacity:1">
		<path
   fill="#FFFFFF"
   d="m 684.5,1399.7 c -0.7,2.9 -3.3,4.6 -5.9,4.2 -1.3,-0.2 -2.5,-1 -3.2,-2.1 -0.8,-1.1 -1.2,-2.4 -1.1,-3.8 0.2,-1.4 0.9,-2.7 2,-3.5 1.1,-0.8 2.5,-1.2 4,-0.9 3,0.3 4.9,3.3 4.2,6.1 z"
   id="path1418"
   style="fill:#00b2ff;fill-opacity:1" />
	</g>
	<g
   id="g1424"
   style="fill:#00b2ff;fill-opacity:1">
		<path
   fill="#FFFFFF"
   d="m 710.1,1408.8 c -1.1,2.7 -4.2,3.9 -6.8,2.8 -2.6,-1.1 -3.8,-4.1 -2.7,-6.8 1.1,-2.7 4.2,-4 6.8,-2.8 2.6,1.1 3.8,4.1 2.7,6.8 z"
   id="path1422"
   style="fill:#00b2ff;fill-opacity:1" />
	</g>
	<g
   id="g1428"
   style="fill:#00b2ff;fill-opacity:1">
		<path
   fill="#FFFFFF"
   d="m 736.1,1416.2 c -0.4,2.9 -3.1,4.8 -6.1,4.4 -3,-0.7 -4.8,-3.5 -4.1,-6.3 0.7,-2.8 3.4,-4.6 6,-4 2.7,0.4 4.6,3 4.2,5.9 z"
   id="path1426"
   style="fill:#00b2ff;fill-opacity:1" />
	</g>
</g>
<g
   id="g1500"
   style="fill:#00b2ff;fill-opacity:1"
   transform="matrix(4.4277089,0,0,5.1344178,-1353.7575,-7017.1927)">
	<g
   id="g1434"
   style="fill:#00b2ff;fill-opacity:1">
		<path
   fill="#FFFFFF"
   d="m 315.9,1425.8 c -0.7,2.8 -3.4,4.6 -6,4 -2.6,-0.4 -4.5,-3.1 -4.1,-6 0.4,-2.9 3.1,-4.8 6.1,-4.4 2.9,0.7 4.7,3.6 4,6.4 z"
   id="path1432"
   style="fill:#00b2ff;fill-opacity:1" />
	</g>
	<g
   id="g1438"
   style="fill:#00b2ff;fill-opacity:1">
		<path
   fill="#FFFFFF"
   d="m 341.3,1435.3 c -1.1,2.7 -4.2,4 -6.8,2.8 -2.7,-1.1 -3.8,-4.2 -2.7,-6.9 1.1,-2.7 4.2,-3.9 6.8,-2.8 2.6,1.2 3.8,4.2 2.7,6.9 z"
   id="path1436"
   style="fill:#00b2ff;fill-opacity:1" />
	</g>
	<g
   id="g1442"
   style="fill:#00b2ff;fill-opacity:1">
		<path
   fill="#FFFFFF"
   d="m 367.5,1442 c -0.2,1.4 -0.9,2.7 -2,3.5 -1.1,0.8 -2.5,1.2 -4,0.9 -3,-0.4 -4.9,-3.4 -4.3,-6.1 0.7,-2.9 3.3,-4.6 5.9,-4.2 1.3,0.2 2.5,1 3.2,2.1 1,1 1.4,2.4 1.2,3.8 z"
   id="path1440"
   style="fill:#00b2ff;fill-opacity:1" />
	</g>
	<g
   id="g1446"
   style="fill:#00b2ff;fill-opacity:1">
		<path
   fill="#FFFFFF"
   d="m 394.7,1442.1 c 0.3,2.9 -1.9,5.5 -4.9,5.7 -3,0.1 -5.4,-2.2 -5.5,-5.1 0,-2.9 2.2,-5.3 4.9,-5.4 2.7,-0.2 5.1,1.9 5.5,4.8 z"
   id="path1444"
   style="fill:#00b2ff;fill-opacity:1" />
	</g>
	<g
   id="g1450"
   style="fill:#00b2ff;fill-opacity:1">
		<path
   fill="#FFFFFF"
   d="m 421,1435.7 c 0.5,1.3 0.5,2.8 -0.1,4 -0.6,1.2 -1.7,2.2 -3.1,2.7 -1.4,0.5 -2.9,0.4 -4.1,-0.3 -1.2,-0.6 -2.1,-1.7 -2.5,-3.1 -0.4,-1.4 -0.2,-2.8 0.4,-4 0.6,-1.2 1.6,-2 2.9,-2.5 1.3,-0.5 2.6,-0.3 3.8,0.3 1.1,0.6 2.1,1.6 2.7,2.9 z"
   id="path1448"
   style="fill:#00b2ff;fill-opacity:1" />
	</g>
	<g
   id="g1454"
   style="fill:#00b2ff;fill-opacity:1">
		<path
   fill="#FFFFFF"
   d="m 446.3,1426.1 c 0.7,2.8 -0.8,5.7 -3.3,6.5 -2.5,0.9 -5.5,-0.6 -6.5,-3.2 -1.1,-2.7 0.4,-5.7 3.2,-6.7 2.9,-1 5.9,0.6 6.6,3.4 z"
   id="path1452"
   style="fill:#00b2ff;fill-opacity:1" />
	</g>
	<g
   id="g1458"
   style="fill:#00b2ff;fill-opacity:1">
		<path
   fill="#FFFFFF"
   d="m 473.2,1422.8 c 0,2.9 -2.2,5.3 -4.9,5.4 -1.4,0 -2.6,-0.5 -3.6,-1.3 -1,-0.9 -1.7,-2.1 -1.8,-3.6 -0.1,-1.4 0.3,-2.8 1.2,-3.8 0.9,-1 2.2,-1.7 3.7,-1.8 3,-0.1 5.4,2.2 5.4,5.1 z"
   id="path1456"
   style="fill:#00b2ff;fill-opacity:1" />
	</g>
	<g
   id="g1462"
   style="fill:#00b2ff;fill-opacity:1">
		<path
   fill="#FFFFFF"
   d="m 500.2,1425.5 c -0.3,1.4 -1.2,2.6 -2.3,3.3 -1.1,0.8 -2.4,1 -3.7,0.8 -2.7,-0.4 -4.5,-3.1 -4.2,-6 0.3,-2.9 3,-4.8 6,-4.4 1.5,0.2 2.7,1.1 3.5,2.3 0.8,1.2 1,2.6 0.7,4 z"
   id="path1460"
   style="fill:#00b2ff;fill-opacity:1" />
	</g>
	<g
   id="g1466"
   style="fill:#00b2ff;fill-opacity:1">
		<path
   fill="#FFFFFF"
   d="m 525.7,1434.8 c -1.1,2.7 -4.2,3.9 -6.9,2.8 -2.6,-1.1 -3.8,-4.2 -2.7,-6.8 1.1,-2.7 4.2,-3.9 6.9,-2.8 2.6,1.1 3.8,4.1 2.7,6.8 z"
   id="path1464"
   style="fill:#00b2ff;fill-opacity:1" />
	</g>
	<g
   id="g1470"
   style="fill:#00b2ff;fill-opacity:1">
		<path
   fill="#FFFFFF"
   d="m 551.8,1441.9 c -0.3,2.9 -3,4.8 -6,4.4 -1.5,-0.2 -2.7,-1.1 -3.5,-2.3 -0.8,-1.1 -1,-2.5 -0.7,-4 0.3,-1.4 1.2,-2.6 2.3,-3.3 1.1,-0.8 2.4,-1 3.7,-0.8 2.7,0.4 4.5,3.1 4.2,6 z"
   id="path1468"
   style="fill:#00b2ff;fill-opacity:1" />
	</g>
	<g
   id="g1474"
   style="fill:#00b2ff;fill-opacity:1">
		<path
   fill="#FFFFFF"
   d="m 579,1442.2 c 0.1,1.4 -0.3,2.8 -1.2,3.8 -0.9,1 -2.2,1.8 -3.7,1.8 -3,0.1 -5.4,-2.2 -5.4,-5.1 0,-2.9 2.2,-5.3 4.9,-5.4 1.4,0 2.6,0.5 3.6,1.3 0.9,0.9 1.6,2.2 1.8,3.6 z"
   id="path1472"
   style="fill:#00b2ff;fill-opacity:1" />
	</g>
	<g
   id="g1478"
   style="fill:#00b2ff;fill-opacity:1">
		<path
   fill="#FFFFFF"
   d="m 605.3,1436.2 c 1.1,2.7 -0.4,5.7 -3.2,6.7 -2.9,0.9 -5.9,-0.7 -6.6,-3.5 -0.7,-2.8 0.8,-5.7 3.3,-6.5 2.6,-0.8 5.5,0.7 6.5,3.3 z"
   id="path1476"
   style="fill:#00b2ff;fill-opacity:1" />
	</g>
	<g
   id="g1482"
   style="fill:#00b2ff;fill-opacity:1">
		<path
   fill="#FFFFFF"
   d="m 630.7,1426.4 c 0.4,1.4 0.2,2.8 -0.4,4 -0.6,1.2 -1.6,2 -2.9,2.5 -1.3,0.5 -2.6,0.3 -3.8,-0.3 -1.2,-0.5 -2.2,-1.6 -2.7,-2.9 -0.5,-1.3 -0.5,-2.8 0.1,-4 0.6,-1.2 1.7,-2.2 3.1,-2.7 1.4,-0.5 2.9,-0.4 4.1,0.3 1.2,0.6 2.1,1.7 2.5,3.1 z"
   id="path1480"
   style="fill:#00b2ff;fill-opacity:1" />
	</g>
	<g
   id="g1486"
   style="fill:#00b2ff;fill-opacity:1">
		<path
   fill="#FFFFFF"
   d="m 657.5,1422.8 c 0,2.9 -2.2,5.3 -4.9,5.4 -2.7,0.2 -5.1,-1.9 -5.5,-4.8 -0.3,-2.9 1.9,-5.5 4.9,-5.7 3,0 5.5,2.2 5.5,5.1 z"
   id="path1484"
   style="fill:#00b2ff;fill-opacity:1" />
	</g>
	<g
   id="g1490"
   style="fill:#00b2ff;fill-opacity:1">
		<path
   fill="#FFFFFF"
   d="m 684.5,1425.2 c -0.7,2.9 -3.3,4.6 -5.9,4.2 -1.3,-0.2 -2.5,-1 -3.2,-2.1 -0.8,-1.1 -1.2,-2.4 -1.1,-3.8 0.2,-1.4 0.9,-2.7 2,-3.5 1.1,-0.8 2.5,-1.2 4,-0.9 3,0.3 4.9,3.3 4.2,6.1 z"
   id="path1488"
   style="fill:#00b2ff;fill-opacity:1" />
	</g>
	<g
   id="g1494"
   style="fill:#00b2ff;fill-opacity:1">
		<path
   fill="#FFFFFF"
   d="m 710.1,1434.3 c -1.1,2.7 -4.2,3.9 -6.8,2.8 -2.6,-1.1 -3.8,-4.1 -2.7,-6.8 1.1,-2.7 4.2,-4 6.8,-2.8 2.6,1.1 3.8,4.1 2.7,6.8 z"
   id="path1492"
   style="fill:#00b2ff;fill-opacity:1" />
	</g>
	<g
   id="g1498"
   style="fill:#00b2ff;fill-opacity:1">
		<path
   fill="#FFFFFF"
   d="m 736.1,1441.7 c -0.4,2.9 -3.1,4.8 -6.1,4.4 -3,-0.7 -4.8,-3.5 -4.1,-6.3 0.7,-2.8 3.4,-4.6 6,-4 2.7,0.4 4.6,3 4.2,5.9 z"
   id="path1496"
   style="fill:#00b2ff;fill-opacity:1" />
	</g>
</g>
<g
   id="g1570"
   style="fill:#00b2ff;fill-opacity:1"
   transform="matrix(4.4277089,0,0,5.1344178,-1353.7575,-7017.1927)">
	<g
   id="g1504"
   style="fill:#00b2ff;fill-opacity:1">
		<path
   fill="#FFFFFF"
   d="m 315.9,1451.3 c -0.7,2.8 -3.4,4.6 -6,4 -2.6,-0.4 -4.5,-3.1 -4.1,-6 0.4,-2.9 3.1,-4.8 6.1,-4.4 2.9,0.7 4.7,3.6 4,6.4 z"
   id="path1502"
   style="fill:#00b2ff;fill-opacity:1" />
	</g>
	<g
   id="g1508"
   style="fill:#00b2ff;fill-opacity:1">
		<path
   fill="#FFFFFF"
   d="m 341.3,1460.8 c -1.1,2.7 -4.2,4 -6.8,2.8 -2.7,-1.1 -3.8,-4.2 -2.7,-6.9 1.1,-2.7 4.2,-3.9 6.8,-2.8 2.6,1.2 3.8,4.2 2.7,6.9 z"
   id="path1506"
   style="fill:#00b2ff;fill-opacity:1" />
	</g>
	<g
   id="g1512"
   style="fill:#00b2ff;fill-opacity:1">
		<path
   fill="#FFFFFF"
   d="m 367.5,1467.5 c -0.2,1.4 -0.9,2.7 -2,3.5 -1.1,0.8 -2.5,1.2 -4,0.9 -3,-0.4 -4.9,-3.4 -4.3,-6.1 0.7,-2.9 3.3,-4.6 5.9,-4.2 1.3,0.2 2.5,1 3.2,2.1 1,1 1.4,2.4 1.2,3.8 z"
   id="path1510"
   style="fill:#00b2ff;fill-opacity:1" />
	</g>
	<g
   id="g1516"
   style="fill:#00b2ff;fill-opacity:1">
		<path
   fill="#FFFFFF"
   d="m 394.7,1467.6 c 0.3,2.9 -1.9,5.5 -4.9,5.7 -3,0.1 -5.4,-2.2 -5.5,-5.1 0,-2.9 2.2,-5.3 4.9,-5.4 2.7,-0.2 5.1,1.9 5.5,4.8 z"
   id="path1514"
   style="fill:#00b2ff;fill-opacity:1" />
	</g>
	<g
   id="g1520"
   style="fill:#00b2ff;fill-opacity:1">
		<path
   fill="#FFFFFF"
   d="m 421,1461.2 c 0.5,1.3 0.5,2.8 -0.1,4 -0.6,1.2 -1.7,2.2 -3.1,2.7 -1.4,0.5 -2.9,0.4 -4.1,-0.3 -1.2,-0.6 -2.1,-1.7 -2.5,-3.1 -0.4,-1.4 -0.2,-2.8 0.4,-4 0.6,-1.2 1.6,-2 2.9,-2.5 1.3,-0.5 2.6,-0.3 3.8,0.3 1.1,0.6 2.1,1.6 2.7,2.9 z"
   id="path1518"
   style="fill:#00b2ff;fill-opacity:1" />
	</g>
	<g
   id="g1524"
   style="fill:#00b2ff;fill-opacity:1">
		<path
   fill="#FFFFFF"
   d="m 446.3,1451.6 c 0.7,2.8 -0.8,5.7 -3.3,6.5 -2.5,0.9 -5.5,-0.6 -6.5,-3.2 -1.1,-2.7 0.4,-5.7 3.2,-6.7 2.9,-1 5.9,0.6 6.6,3.4 z"
   id="path1522"
   style="fill:#00b2ff;fill-opacity:1" />
	</g>
	<g
   id="g1528"
   style="fill:#00b2ff;fill-opacity:1">
		<path
   fill="#FFFFFF"
   d="m 473.2,1448.3 c 0,2.9 -2.2,5.3 -4.9,5.4 -1.4,0 -2.6,-0.5 -3.6,-1.3 -1,-0.9 -1.7,-2.1 -1.8,-3.6 -0.1,-1.4 0.3,-2.8 1.2,-3.8 0.9,-1 2.2,-1.7 3.7,-1.8 3,-0.1 5.4,2.2 5.4,5.1 z"
   id="path1526"
   style="fill:#00b2ff;fill-opacity:1" />
	</g>
	<g
   id="g1532"
   style="fill:#00b2ff;fill-opacity:1">
		<path
   fill="#FFFFFF"
   d="m 500.2,1451 c -0.3,1.4 -1.2,2.6 -2.3,3.3 -1.1,0.8 -2.4,1 -3.7,0.8 -2.7,-0.4 -4.5,-3.1 -4.2,-6 0.3,-2.9 3,-4.8 6,-4.4 1.5,0.2 2.7,1.1 3.5,2.3 0.8,1.2 1,2.6 0.7,4 z"
   id="path1530"
   style="fill:#00b2ff;fill-opacity:1" />
	</g>
	<g
   id="g1536"
   style="fill:#00b2ff;fill-opacity:1">
		<path
   fill="#FFFFFF"
   d="m 525.7,1460.3 c -1.1,2.7 -4.2,3.9 -6.9,2.8 -2.6,-1.1 -3.8,-4.2 -2.7,-6.8 1.1,-2.7 4.2,-3.9 6.9,-2.8 2.6,1.1 3.8,4.1 2.7,6.8 z"
   id="path1534"
   style="fill:#00b2ff;fill-opacity:1" />
	</g>
	<g
   id="g1540"
   style="fill:#00b2ff;fill-opacity:1">
		<path
   fill="#FFFFFF"
   d="m 551.8,1467.4 c -0.3,2.9 -3,4.8 -6,4.4 -1.5,-0.2 -2.7,-1.1 -3.5,-2.3 -0.8,-1.1 -1,-2.5 -0.7,-4 0.3,-1.4 1.2,-2.6 2.3,-3.3 1.1,-0.8 2.4,-1 3.7,-0.8 2.7,0.4 4.5,3.1 4.2,6 z"
   id="path1538"
   style="fill:#00b2ff;fill-opacity:1" />
	</g>
	<g
   id="g1544"
   style="fill:#00b2ff;fill-opacity:1">
		<path
   fill="#FFFFFF"
   d="m 579,1467.7 c 0.1,1.4 -0.3,2.8 -1.2,3.8 -0.9,1 -2.2,1.8 -3.7,1.8 -3,0.1 -5.4,-2.2 -5.4,-5.1 0,-2.9 2.2,-5.3 4.9,-5.4 1.4,0 2.6,0.5 3.6,1.3 0.9,0.9 1.6,2.2 1.8,3.6 z"
   id="path1542"
   style="fill:#00b2ff;fill-opacity:1" />
	</g>
	<g
   id="g1548"
   style="fill:#00b2ff;fill-opacity:1">
		<path
   fill="#FFFFFF"
   d="m 605.3,1461.7 c 1.1,2.7 -0.4,5.7 -3.2,6.7 -2.9,0.9 -5.9,-0.7 -6.6,-3.5 -0.7,-2.8 0.8,-5.7 3.3,-6.5 2.6,-0.8 5.5,0.7 6.5,3.3 z"
   id="path1546"
   style="fill:#00b2ff;fill-opacity:1" />
	</g>
	<g
   id="g1552"
   style="fill:#00b2ff;fill-opacity:1">
		<path
   fill="#FFFFFF"
   d="m 630.7,1451.9 c 0.4,1.4 0.2,2.8 -0.4,4 -0.6,1.2 -1.6,2 -2.9,2.5 -1.3,0.5 -2.6,0.3 -3.8,-0.3 -1.2,-0.5 -2.2,-1.6 -2.7,-2.9 -0.5,-1.3 -0.5,-2.8 0.1,-4 0.6,-1.2 1.7,-2.2 3.1,-2.7 1.4,-0.5 2.9,-0.4 4.1,0.3 1.2,0.6 2.1,1.7 2.5,3.1 z"
   id="path1550"
   style="fill:#00b2ff;fill-opacity:1" />
	</g>
	<g
   id="g1556"
   style="fill:#00b2ff;fill-opacity:1">
		<path
   fill="#FFFFFF"
   d="m 657.5,1448.3 c 0,2.9 -2.2,5.3 -4.9,5.4 -2.7,0.2 -5.1,-1.9 -5.5,-4.8 -0.3,-2.9 1.9,-5.5 4.9,-5.7 3,0 5.5,2.2 5.5,5.1 z"
   id="path1554"
   style="fill:#00b2ff;fill-opacity:1" />
	</g>
	<g
   id="g1560"
   style="fill:#00b2ff;fill-opacity:1">
		<path
   fill="#FFFFFF"
   d="m 684.5,1450.7 c -0.7,2.9 -3.3,4.6 -5.9,4.2 -1.3,-0.2 -2.5,-1 -3.2,-2.1 -0.8,-1.1 -1.2,-2.4 -1.1,-3.8 0.2,-1.4 0.9,-2.7 2,-3.5 1.1,-0.8 2.5,-1.2 4,-0.9 3,0.3 4.9,3.3 4.2,6.1 z"
   id="path1558"
   style="fill:#00b2ff;fill-opacity:1" />
	</g>
	<g
   id="g1564"
   style="fill:#00b2ff;fill-opacity:1">
		<path
   fill="#FFFFFF"
   d="m 710.1,1459.8 c -1.1,2.7 -4.2,3.9 -6.8,2.8 -2.6,-1.1 -3.8,-4.1 -2.7,-6.8 1.1,-2.7 4.2,-4 6.8,-2.8 2.6,1.1 3.8,4.1 2.7,6.8 z"
   id="path1562"
   style="fill:#00b2ff;fill-opacity:1" />
	</g>
	<g
   id="g1568"
   style="fill:#00b2ff;fill-opacity:1">
		<path
   fill="#FFFFFF"
   d="m 736.1,1467.2 c -0.4,2.9 -3.1,4.8 -6.1,4.4 -3,-0.7 -4.8,-3.5 -4.1,-6.3 0.7,-2.8 3.4,-4.6 6,-4 2.7,0.4 4.6,3 4.2,5.9 z"
   id="path1566"
   style="fill:#00b2ff;fill-opacity:1" />
	</g>
</g>
<g
   id="g1640"
   style="fill:#00b2ff;fill-opacity:1"
   transform="matrix(4.4277089,0,0,5.1344178,-1353.7575,-7017.1927)">
	<g
   id="g1574"
   style="fill:#00b2ff;fill-opacity:1">
		<path
   fill="#FFFFFF"
   d="m 315.9,1476.8 c -0.7,2.8 -3.4,4.6 -6,4 -2.6,-0.4 -4.5,-3.1 -4.1,-6 0.4,-2.9 3.1,-4.8 6.1,-4.4 2.9,0.7 4.7,3.5 4,6.4 z"
   id="path1572"
   style="fill:#00b2ff;fill-opacity:1" />
	</g>
	<g
   id="g1578"
   style="fill:#00b2ff;fill-opacity:1">
		<path
   fill="#FFFFFF"
   d="m 341.3,1486.3 c -1.1,2.7 -4.2,4 -6.8,2.8 -2.7,-1.1 -3.8,-4.2 -2.7,-6.9 1.1,-2.7 4.2,-3.9 6.8,-2.8 2.6,1.2 3.8,4.2 2.7,6.9 z"
   id="path1576"
   style="fill:#00b2ff;fill-opacity:1" />
	</g>
	<g
   id="g1582"
   style="fill:#00b2ff;fill-opacity:1">
		<path
   fill="#FFFFFF"
   d="m 367.5,1493 c -0.2,1.4 -0.9,2.7 -2,3.5 -1.1,0.8 -2.5,1.2 -4,0.9 -3,-0.4 -4.9,-3.4 -4.3,-6.1 0.7,-2.9 3.3,-4.6 5.9,-4.2 1.3,0.2 2.5,1 3.2,2.1 1,1 1.4,2.4 1.2,3.8 z"
   id="path1580"
   style="fill:#00b2ff;fill-opacity:1" />
	</g>
	<g
   id="g1586"
   style="fill:#00b2ff;fill-opacity:1">
		<path
   fill="#FFFFFF"
   d="m 394.7,1493.1 c 0.3,2.9 -1.9,5.5 -4.9,5.7 -3,0.1 -5.4,-2.2 -5.5,-5.1 0,-2.9 2.2,-5.3 4.9,-5.4 2.7,-0.2 5.1,1.9 5.5,4.8 z"
   id="path1584"
   style="fill:#00b2ff;fill-opacity:1" />
	</g>
	<g
   id="g1590"
   style="fill:#00b2ff;fill-opacity:1">
		<path
   fill="#FFFFFF"
   d="m 421,1486.7 c 0.5,1.3 0.5,2.8 -0.1,4 -0.6,1.2 -1.7,2.2 -3.1,2.7 -1.4,0.5 -2.9,0.4 -4.1,-0.3 -1.2,-0.6 -2.1,-1.7 -2.5,-3.1 -0.4,-1.4 -0.2,-2.8 0.4,-4 0.6,-1.2 1.6,-2 2.9,-2.5 1.3,-0.5 2.6,-0.3 3.8,0.3 1.1,0.6 2.1,1.6 2.7,2.9 z"
   id="path1588"
   style="fill:#00b2ff;fill-opacity:1" />
	</g>
	<g
   id="g1594"
   style="fill:#00b2ff;fill-opacity:1">
		<path
   fill="#FFFFFF"
   d="m 446.3,1477.1 c 0.7,2.8 -0.8,5.7 -3.3,6.5 -2.5,0.9 -5.5,-0.6 -6.5,-3.2 -1.1,-2.7 0.4,-5.7 3.2,-6.7 2.9,-1 5.9,0.6 6.6,3.4 z"
   id="path1592"
   style="fill:#00b2ff;fill-opacity:1" />
	</g>
	<g
   id="g1598"
   style="fill:#00b2ff;fill-opacity:1">
		<path
   fill="#FFFFFF"
   d="m 473.2,1473.8 c 0,2.9 -2.2,5.3 -4.9,5.4 -1.4,0 -2.6,-0.5 -3.6,-1.3 -1,-0.9 -1.7,-2.1 -1.8,-3.6 -0.1,-1.4 0.3,-2.8 1.2,-3.8 0.9,-1 2.2,-1.7 3.7,-1.8 3,-0.1 5.4,2.2 5.4,5.1 z"
   id="path1596"
   style="fill:#00b2ff;fill-opacity:1" />
	</g>
	<g
   id="g1602"
   style="fill:#00b2ff;fill-opacity:1">
		<path
   fill="#FFFFFF"
   d="m 500.2,1476.5 c -0.3,1.4 -1.2,2.6 -2.3,3.3 -1.1,0.8 -2.4,1 -3.7,0.8 -2.7,-0.4 -4.5,-3.1 -4.2,-6 0.3,-2.9 3,-4.8 6,-4.4 1.5,0.2 2.7,1.1 3.5,2.3 0.8,1.2 1,2.6 0.7,4 z"
   id="path1600"
   style="fill:#00b2ff;fill-opacity:1" />
	</g>
	<g
   id="g1606"
   style="fill:#00b2ff;fill-opacity:1">
		<path
   fill="#FFFFFF"
   d="m 525.7,1485.8 c -1.1,2.7 -4.2,3.9 -6.9,2.8 -2.6,-1.1 -3.8,-4.2 -2.7,-6.8 1.1,-2.7 4.2,-3.9 6.9,-2.8 2.6,1 3.8,4.1 2.7,6.8 z"
   id="path1604"
   style="fill:#00b2ff;fill-opacity:1" />
	</g>
	<g
   id="g1610"
   style="fill:#00b2ff;fill-opacity:1">
		<path
   fill="#FFFFFF"
   d="m 551.8,1492.9 c -0.3,2.9 -3,4.8 -6,4.4 -1.5,-0.2 -2.7,-1.1 -3.5,-2.3 -0.8,-1.1 -1,-2.5 -0.7,-4 0.3,-1.4 1.2,-2.6 2.3,-3.3 1.1,-0.8 2.4,-1 3.7,-0.8 2.7,0.4 4.5,3.1 4.2,6 z"
   id="path1608"
   style="fill:#00b2ff;fill-opacity:1" />
	</g>
	<g
   id="g1614"
   style="fill:#00b2ff;fill-opacity:1">
		<path
   fill="#FFFFFF"
   d="m 579,1493.2 c 0.1,1.4 -0.3,2.8 -1.2,3.8 -0.9,1 -2.2,1.8 -3.7,1.8 -3,0.1 -5.4,-2.2 -5.4,-5.1 0,-2.9 2.2,-5.3 4.9,-5.4 1.4,0 2.6,0.5 3.6,1.3 0.9,0.9 1.6,2.2 1.8,3.6 z"
   id="path1612"
   style="fill:#00b2ff;fill-opacity:1" />
	</g>
	<g
   id="g1618"
   style="fill:#00b2ff;fill-opacity:1">
		<path
   fill="#FFFFFF"
   d="m 605.3,1487.2 c 1.1,2.7 -0.4,5.7 -3.2,6.7 -2.9,0.9 -5.9,-0.7 -6.6,-3.5 -0.7,-2.8 0.8,-5.7 3.3,-6.5 2.6,-0.8 5.5,0.7 6.5,3.3 z"
   id="path1616"
   style="fill:#00b2ff;fill-opacity:1" />
	</g>
	<g
   id="g1622"
   style="fill:#00b2ff;fill-opacity:1">
		<path
   fill="#FFFFFF"
   d="m 630.7,1477.4 c 0.4,1.4 0.2,2.8 -0.4,4 -0.6,1.2 -1.6,2 -2.9,2.5 -1.3,0.5 -2.6,0.3 -3.8,-0.3 -1.2,-0.5 -2.2,-1.6 -2.7,-2.9 -0.5,-1.3 -0.5,-2.8 0.1,-4 0.6,-1.2 1.7,-2.2 3.1,-2.7 1.4,-0.5 2.9,-0.4 4.1,0.3 1.2,0.6 2.1,1.7 2.5,3.1 z"
   id="path1620"
   style="fill:#00b2ff;fill-opacity:1" />
	</g>
	<g
   id="g1626"
   style="fill:#00b2ff;fill-opacity:1">
		<path
   fill="#FFFFFF"
   d="m 657.5,1473.8 c 0,2.9 -2.2,5.3 -4.9,5.4 -2.7,0.2 -5.1,-1.9 -5.5,-4.8 -0.3,-2.9 1.9,-5.5 4.9,-5.7 3,-0.1 5.5,2.2 5.5,5.1 z"
   id="path1624"
   style="fill:#00b2ff;fill-opacity:1" />
	</g>
	<g
   id="g1630"
   style="fill:#00b2ff;fill-opacity:1">
		<path
   fill="#FFFFFF"
   d="m 684.5,1476.2 c -0.7,2.9 -3.3,4.6 -5.9,4.2 -1.3,-0.2 -2.5,-1 -3.2,-2.1 -0.8,-1.1 -1.2,-2.4 -1.1,-3.8 0.2,-1.4 0.9,-2.7 2,-3.5 1.1,-0.8 2.5,-1.2 4,-0.9 3,0.3 4.9,3.3 4.2,6.1 z"
   id="path1628"
   style="fill:#00b2ff;fill-opacity:1" />
	</g>
	<g
   id="g1634"
   style="fill:#00b2ff;fill-opacity:1">
		<path
   fill="#FFFFFF"
   d="m 710.1,1485.3 c -1.1,2.7 -4.2,3.9 -6.8,2.8 -2.6,-1.1 -3.8,-4.1 -2.7,-6.8 1.1,-2.7 4.2,-4 6.8,-2.8 2.6,1.1 3.8,4.1 2.7,6.8 z"
   id="path1632"
   style="fill:#00b2ff;fill-opacity:1" />
	</g>
	<g
   id="g1638"
   style="fill:#00b2ff;fill-opacity:1">
		<path
   fill="#FFFFFF"
   d="m 736.1,1492.7 c -0.4,2.9 -3.1,4.8 -6.1,4.4 -3,-0.7 -4.8,-3.5 -4.1,-6.3 0.7,-2.8 3.4,-4.6 6,-4 2.7,0.4 4.6,3 4.2,5.9 z"
   id="path1636"
   style="fill:#00b2ff;fill-opacity:1" />
	</g>
</g>
<g
   id="g1710"
   style="fill:#00b2ff;fill-opacity:1"
   transform="matrix(4.4277089,0,0,5.1344178,-1353.7575,-7017.1927)">
	<g
   id="g1644"
   style="fill:#00b2ff;fill-opacity:1">
		<path
   fill="#FFFFFF"
   d="m 315.9,1502.3 c -0.7,2.8 -3.4,4.6 -6,4 -2.6,-0.4 -4.5,-3.1 -4.1,-6 0.4,-2.9 3.1,-4.8 6.1,-4.4 2.9,0.7 4.7,3.5 4,6.4 z"
   id="path1642"
   style="fill:#00b2ff;fill-opacity:1" />
	</g>
	<g
   id="g1648"
   style="fill:#00b2ff;fill-opacity:1">
		<path
   fill="#FFFFFF"
   d="m 341.3,1511.8 c -1.1,2.7 -4.2,4 -6.8,2.8 -2.7,-1.1 -3.8,-4.2 -2.7,-6.9 1.1,-2.7 4.2,-3.9 6.8,-2.8 2.6,1.2 3.8,4.2 2.7,6.9 z"
   id="path1646"
   style="fill:#00b2ff;fill-opacity:1" />
	</g>
	<g
   id="g1652"
   style="fill:#00b2ff;fill-opacity:1">
		<path
   fill="#FFFFFF"
   d="m 367.5,1518.5 c -0.2,1.4 -0.9,2.7 -2,3.5 -1.1,0.8 -2.5,1.2 -4,0.9 -3,-0.4 -4.9,-3.4 -4.3,-6.1 0.7,-2.9 3.3,-4.6 5.9,-4.2 1.3,0.2 2.5,1 3.2,2.1 1,1 1.4,2.4 1.2,3.8 z"
   id="path1650"
   style="fill:#00b2ff;fill-opacity:1" />
	</g>
	<g
   id="g1656"
   style="fill:#00b2ff;fill-opacity:1">
		<path
   fill="#FFFFFF"
   d="m 394.7,1518.6 c 0.3,2.9 -1.9,5.5 -4.9,5.7 -3,0.1 -5.4,-2.2 -5.5,-5.1 0,-2.9 2.2,-5.3 4.9,-5.4 2.7,-0.2 5.1,1.9 5.5,4.8 z"
   id="path1654"
   style="fill:#00b2ff;fill-opacity:1" />
	</g>
	<g
   id="g1660"
   style="fill:#00b2ff;fill-opacity:1">
		<path
   fill="#FFFFFF"
   d="m 421,1512.2 c 0.5,1.3 0.5,2.8 -0.1,4 -0.6,1.2 -1.7,2.2 -3.1,2.7 -1.4,0.5 -2.9,0.4 -4.1,-0.3 -1.2,-0.6 -2.1,-1.7 -2.5,-3.1 -0.4,-1.4 -0.2,-2.8 0.4,-4 0.6,-1.2 1.6,-2 2.9,-2.5 1.3,-0.5 2.6,-0.3 3.8,0.3 1.1,0.6 2.1,1.6 2.7,2.9 z"
   id="path1658"
   style="fill:#00b2ff;fill-opacity:1" />
	</g>
	<g
   id="g1664"
   style="fill:#00b2ff;fill-opacity:1">
		<path
   fill="#FFFFFF"
   d="m 446.3,1502.6 c 0.7,2.8 -0.8,5.7 -3.3,6.5 -2.5,0.9 -5.5,-0.6 -6.5,-3.2 -1.1,-2.7 0.4,-5.7 3.2,-6.7 2.9,-1 5.9,0.6 6.6,3.4 z"
   id="path1662"
   style="fill:#00b2ff;fill-opacity:1" />
	</g>
	<g
   id="g1668"
   style="fill:#00b2ff;fill-opacity:1">
		<path
   fill="#FFFFFF"
   d="m 473.2,1499.3 c 0,2.9 -2.2,5.3 -4.9,5.4 -1.4,0 -2.6,-0.5 -3.6,-1.3 -1,-0.9 -1.7,-2.1 -1.8,-3.6 -0.1,-1.4 0.3,-2.8 1.2,-3.8 0.9,-1 2.2,-1.7 3.7,-1.8 3,-0.1 5.4,2.2 5.4,5.1 z"
   id="path1666"
   style="fill:#00b2ff;fill-opacity:1" />
	</g>
	<g
   id="g1672"
   style="fill:#00b2ff;fill-opacity:1">
		<path
   fill="#FFFFFF"
   d="m 500.2,1502 c -0.3,1.4 -1.2,2.6 -2.3,3.3 -1.1,0.8 -2.4,1 -3.7,0.8 -2.7,-0.4 -4.5,-3.1 -4.2,-6 0.3,-2.9 3,-4.8 6,-4.4 1.5,0.2 2.7,1.1 3.5,2.3 0.8,1.2 1,2.6 0.7,4 z"
   id="path1670"
   style="fill:#00b2ff;fill-opacity:1" />
	</g>
	<g
   id="g1676"
   style="fill:#00b2ff;fill-opacity:1">
		<path
   fill="#FFFFFF"
   d="m 525.7,1511.3 c -1.1,2.7 -4.2,3.9 -6.9,2.8 -2.6,-1.1 -3.8,-4.2 -2.7,-6.8 1.1,-2.7 4.2,-3.9 6.9,-2.8 2.6,1 3.8,4.1 2.7,6.8 z"
   id="path1674"
   style="fill:#00b2ff;fill-opacity:1" />
	</g>
	<g
   id="g1680"
   style="fill:#00b2ff;fill-opacity:1">
		<path
   fill="#FFFFFF"
   d="m 551.8,1518.4 c -0.3,2.9 -3,4.8 -6,4.4 -1.5,-0.2 -2.7,-1.1 -3.5,-2.3 -0.8,-1.1 -1,-2.5 -0.7,-4 0.3,-1.4 1.2,-2.6 2.3,-3.3 1.1,-0.8 2.4,-1 3.7,-0.8 2.7,0.4 4.5,3.1 4.2,6 z"
   id="path1678"
   style="fill:#00b2ff;fill-opacity:1" />
	</g>
	<g
   id="g1684"
   style="fill:#00b2ff;fill-opacity:1">
		<path
   fill="#FFFFFF"
   d="m 579,1518.7 c 0.1,1.4 -0.3,2.8 -1.2,3.8 -0.9,1 -2.2,1.8 -3.7,1.8 -3,0.1 -5.4,-2.2 -5.4,-5.1 0,-2.9 2.2,-5.3 4.9,-5.4 1.4,0 2.6,0.5 3.6,1.3 0.9,0.9 1.6,2.2 1.8,3.6 z"
   id="path1682"
   style="fill:#00b2ff;fill-opacity:1" />
	</g>
	<g
   id="g1688"
   style="fill:#00b2ff;fill-opacity:1">
		<path
   fill="#FFFFFF"
   d="m 605.3,1512.7 c 1.1,2.7 -0.4,5.7 -3.2,6.7 -2.9,0.9 -5.9,-0.7 -6.6,-3.5 -0.7,-2.8 0.8,-5.7 3.3,-6.5 2.6,-0.8 5.5,0.7 6.5,3.3 z"
   id="path1686"
   style="fill:#00b2ff;fill-opacity:1" />
	</g>
	<g
   id="g1692"
   style="fill:#00b2ff;fill-opacity:1">
		<path
   fill="#FFFFFF"
   d="m 630.7,1502.9 c 0.4,1.4 0.2,2.8 -0.4,4 -0.6,1.2 -1.6,2 -2.9,2.5 -1.3,0.5 -2.6,0.3 -3.8,-0.3 -1.2,-0.5 -2.2,-1.6 -2.7,-2.9 -0.5,-1.3 -0.5,-2.8 0.1,-4 0.6,-1.2 1.7,-2.2 3.1,-2.7 1.4,-0.5 2.9,-0.4 4.1,0.3 1.2,0.6 2.1,1.7 2.5,3.1 z"
   id="path1690"
   style="fill:#00b2ff;fill-opacity:1" />
	</g>
	<g
   id="g1696"
   style="fill:#00b2ff;fill-opacity:1">
		<path
   fill="#FFFFFF"
   d="m 657.5,1499.3 c 0,2.9 -2.2,5.3 -4.9,5.4 -2.7,0.2 -5.1,-1.9 -5.5,-4.8 -0.3,-2.9 1.9,-5.5 4.9,-5.7 3,-0.1 5.5,2.2 5.5,5.1 z"
   id="path1694"
   style="fill:#00b2ff;fill-opacity:1" />
	</g>
	<g
   id="g1700"
   style="fill:#00b2ff;fill-opacity:1">
		<path
   fill="#FFFFFF"
   d="m 684.5,1501.7 c -0.7,2.9 -3.3,4.6 -5.9,4.2 -1.3,-0.2 -2.5,-1 -3.2,-2.1 -0.8,-1.1 -1.2,-2.4 -1.1,-3.8 0.2,-1.4 0.9,-2.7 2,-3.5 1.1,-0.8 2.5,-1.2 4,-0.9 3,0.3 4.9,3.3 4.2,6.1 z"
   id="path1698"
   style="fill:#00b2ff;fill-opacity:1" />
	</g>
	<g
   id="g1704"
   style="fill:#00b2ff;fill-opacity:1">
		<path
   fill="#FFFFFF"
   d="m 710.1,1510.8 c -1.1,2.7 -4.2,3.9 -6.8,2.8 -2.6,-1.1 -3.8,-4.1 -2.7,-6.8 1.1,-2.7 4.2,-4 6.8,-2.8 2.6,1.1 3.8,4.1 2.7,6.8 z"
   id="path1702"
   style="fill:#00b2ff;fill-opacity:1" />
	</g>
	<g
   id="g1708"
   style="fill:#00b2ff;fill-opacity:1">
		<path
   fill="#FFFFFF"
   d="m 736.1,1518.2 c -0.4,2.9 -3.1,4.8 -6.1,4.4 -3,-0.7 -4.8,-3.5 -4.1,-6.3 0.7,-2.8 3.4,-4.6 6,-4 2.7,0.4 4.6,3 4.2,5.9 z"
   id="path1706"
   style="fill:#00b2ff;fill-opacity:1" />
	</g>
</g>
<g
   id="g1780"
   style="fill:#00b2ff;fill-opacity:1"
   transform="matrix(4.4277089,0,0,5.1344178,-1353.7575,-7017.1927)">
	<g
   id="g1714"
   style="fill:#00b2ff;fill-opacity:1">
		<path
   fill="#FFFFFF"
   d="m 315.9,1527.8 c -0.7,2.8 -3.4,4.6 -6,4 -2.6,-0.4 -4.5,-3.1 -4.1,-6 0.4,-2.9 3.1,-4.8 6.1,-4.4 2.9,0.7 4.7,3.5 4,6.4 z"
   id="path1712"
   style="fill:#00b2ff;fill-opacity:1" />
	</g>
	<g
   id="g1718"
   style="fill:#00b2ff;fill-opacity:1">
		<path
   fill="#FFFFFF"
   d="m 341.3,1537.3 c -1.1,2.7 -4.2,4 -6.8,2.8 -2.7,-1.1 -3.8,-4.2 -2.7,-6.9 1.1,-2.7 4.2,-3.9 6.8,-2.8 2.6,1.2 3.8,4.2 2.7,6.9 z"
   id="path1716"
   style="fill:#00b2ff;fill-opacity:1" />
	</g>
	<g
   id="g1722"
   style="fill:#00b2ff;fill-opacity:1">
		<path
   fill="#FFFFFF"
   d="m 367.5,1544 c -0.2,1.4 -0.9,2.7 -2,3.5 -1.1,0.8 -2.5,1.2 -4,0.9 -3,-0.4 -4.9,-3.4 -4.3,-6.1 0.7,-2.9 3.3,-4.6 5.9,-4.2 1.3,0.2 2.5,1 3.2,2.1 1,1 1.4,2.4 1.2,3.8 z"
   id="path1720"
   style="fill:#00b2ff;fill-opacity:1" />
	</g>
	<g
   id="g1726"
   style="fill:#00b2ff;fill-opacity:1">
		<path
   fill="#FFFFFF"
   d="m 394.7,1544.1 c 0.3,2.9 -1.9,5.5 -4.9,5.7 -3,0.1 -5.4,-2.2 -5.5,-5.1 0,-2.9 2.2,-5.3 4.9,-5.4 2.7,-0.2 5.1,1.9 5.5,4.8 z"
   id="path1724"
   style="fill:#00b2ff;fill-opacity:1" />
	</g>
	<g
   id="g1730"
   style="fill:#00b2ff;fill-opacity:1">
		<path
   fill="#FFFFFF"
   d="m 421,1537.7 c 0.5,1.3 0.5,2.8 -0.1,4 -0.6,1.2 -1.7,2.2 -3.1,2.7 -1.4,0.5 -2.9,0.4 -4.1,-0.3 -1.2,-0.6 -2.1,-1.7 -2.5,-3.1 -0.4,-1.4 -0.2,-2.8 0.4,-4 0.6,-1.2 1.6,-2 2.9,-2.5 1.3,-0.5 2.6,-0.3 3.8,0.3 1.1,0.6 2.1,1.6 2.7,2.9 z"
   id="path1728"
   style="fill:#00b2ff;fill-opacity:1" />
	</g>
	<g
   id="g1734"
   style="fill:#00b2ff;fill-opacity:1">
		<path
   fill="#FFFFFF"
   d="m 446.3,1528.1 c 0.7,2.8 -0.8,5.7 -3.3,6.5 -2.5,0.9 -5.5,-0.6 -6.5,-3.2 -1.1,-2.7 0.4,-5.7 3.2,-6.7 2.9,-1 5.9,0.6 6.6,3.4 z"
   id="path1732"
   style="fill:#00b2ff;fill-opacity:1" />
	</g>
	<g
   id="g1738"
   style="fill:#00b2ff;fill-opacity:1">
		<path
   fill="#FFFFFF"
   d="m 473.2,1524.8 c 0,2.9 -2.2,5.3 -4.9,5.4 -1.4,0 -2.6,-0.5 -3.6,-1.3 -1,-0.9 -1.7,-2.1 -1.8,-3.6 -0.1,-1.4 0.3,-2.8 1.2,-3.8 0.9,-1 2.2,-1.7 3.7,-1.8 3,-0.1 5.4,2.2 5.4,5.1 z"
   id="path1736"
   style="fill:#00b2ff;fill-opacity:1" />
	</g>
	<g
   id="g1742"
   style="fill:#00b2ff;fill-opacity:1">
		<path
   fill="#FFFFFF"
   d="m 500.2,1527.5 c -0.3,1.4 -1.2,2.6 -2.3,3.3 -1.1,0.8 -2.4,1 -3.7,0.8 -2.7,-0.4 -4.5,-3.1 -4.2,-6 0.3,-2.9 3,-4.8 6,-4.4 1.5,0.2 2.7,1.1 3.5,2.3 0.8,1.2 1,2.6 0.7,4 z"
   id="path1740"
   style="fill:#00b2ff;fill-opacity:1" />
	</g>
	<g
   id="g1746"
   style="fill:#00b2ff;fill-opacity:1">
		<path
   fill="#FFFFFF"
   d="m 525.7,1536.8 c -1.1,2.7 -4.2,3.9 -6.9,2.8 -2.6,-1.1 -3.8,-4.2 -2.7,-6.8 1.1,-2.7 4.2,-3.9 6.9,-2.8 2.6,1 3.8,4.1 2.7,6.8 z"
   id="path1744"
   style="fill:#00b2ff;fill-opacity:1" />
	</g>
	<g
   id="g1750"
   style="fill:#00b2ff;fill-opacity:1">
		<path
   fill="#FFFFFF"
   d="m 551.8,1543.9 c -0.3,2.9 -3,4.8 -6,4.4 -1.5,-0.2 -2.7,-1.1 -3.5,-2.3 -0.8,-1.1 -1,-2.5 -0.7,-4 0.3,-1.4 1.2,-2.6 2.3,-3.3 1.1,-0.8 2.4,-1 3.7,-0.8 2.7,0.4 4.5,3.1 4.2,6 z"
   id="path1748"
   style="fill:#00b2ff;fill-opacity:1" />
	</g>
	<g
   id="g1754"
   style="fill:#00b2ff;fill-opacity:1">
		<path
   fill="#FFFFFF"
   d="m 579,1544.2 c 0.1,1.4 -0.3,2.8 -1.2,3.8 -0.9,1 -2.2,1.8 -3.7,1.8 -3,0.1 -5.4,-2.2 -5.4,-5.1 0,-2.9 2.2,-5.3 4.9,-5.4 1.4,0 2.6,0.5 3.6,1.3 0.9,0.9 1.6,2.2 1.8,3.6 z"
   id="path1752"
   style="fill:#00b2ff;fill-opacity:1" />
	</g>
	<g
   id="g1758"
   style="fill:#00b2ff;fill-opacity:1">
		<path
   fill="#FFFFFF"
   d="m 605.3,1538.2 c 1.1,2.7 -0.4,5.7 -3.2,6.7 -2.9,0.9 -5.9,-0.7 -6.6,-3.5 -0.7,-2.8 0.8,-5.7 3.3,-6.5 2.6,-0.8 5.5,0.7 6.5,3.3 z"
   id="path1756"
   style="fill:#00b2ff;fill-opacity:1" />
	</g>
	<g
   id="g1762"
   style="fill:#00b2ff;fill-opacity:1">
		<path
   fill="#FFFFFF"
   d="m 630.7,1528.4 c 0.4,1.4 0.2,2.8 -0.4,4 -0.6,1.2 -1.6,2 -2.9,2.5 -1.3,0.5 -2.6,0.3 -3.8,-0.3 -1.2,-0.5 -2.2,-1.6 -2.7,-2.9 -0.5,-1.3 -0.5,-2.8 0.1,-4 0.6,-1.2 1.7,-2.2 3.1,-2.7 1.4,-0.5 2.9,-0.4 4.1,0.3 1.2,0.6 2.1,1.7 2.5,3.1 z"
   id="path1760"
   style="fill:#00b2ff;fill-opacity:1" />
	</g>
	<g
   id="g1766"
   style="fill:#00b2ff;fill-opacity:1">
		<path
   fill="#FFFFFF"
   d="m 657.5,1524.8 c 0,2.9 -2.2,5.3 -4.9,5.4 -2.7,0.2 -5.1,-1.9 -5.5,-4.8 -0.3,-2.9 1.9,-5.5 4.9,-5.7 3,-0.1 5.5,2.2 5.5,5.1 z"
   id="path1764"
   style="fill:#00b2ff;fill-opacity:1" />
	</g>
	<g
   id="g1770"
   style="fill:#00b2ff;fill-opacity:1">
		<path
   fill="#FFFFFF"
   d="m 684.5,1527.2 c -0.7,2.9 -3.3,4.6 -5.9,4.2 -1.3,-0.2 -2.5,-1 -3.2,-2.1 -0.8,-1.1 -1.2,-2.4 -1.1,-3.8 0.2,-1.4 0.9,-2.7 2,-3.5 1.1,-0.8 2.5,-1.2 4,-0.9 3,0.3 4.9,3.3 4.2,6.1 z"
   id="path1768"
   style="fill:#00b2ff;fill-opacity:1" />
	</g>
	<g
   id="g1774"
   style="fill:#00b2ff;fill-opacity:1">
		<path
   fill="#FFFFFF"
   d="m 710.1,1536.3 c -1.1,2.7 -4.2,3.9 -6.8,2.8 -2.6,-1.1 -3.8,-4.1 -2.7,-6.8 1.1,-2.7 4.2,-4 6.8,-2.8 2.6,1.1 3.8,4.1 2.7,6.8 z"
   id="path1772"
   style="fill:#00b2ff;fill-opacity:1" />
	</g>
	<g
   id="g1778"
   style="fill:#00b2ff;fill-opacity:1">
		<path
   fill="#FFFFFF"
   d="m 736.1,1543.7 c -0.4,2.9 -3.1,4.8 -6.1,4.4 -3,-0.7 -4.8,-3.5 -4.1,-6.3 0.7,-2.8 3.4,-4.6 6,-4 2.7,0.4 4.6,3 4.2,5.9 z"
   id="path1776"
   style="fill:#00b2ff;fill-opacity:1" />
	</g>
</g>
<g
   id="g1850"
   style="fill:#00b2ff;fill-opacity:1"
   transform="matrix(4.4277089,0,0,5.1344178,-1353.7575,-7017.1927)">
	<g
   id="g1784"
   style="fill:#00b2ff;fill-opacity:1">
		<path
   fill="#FFFFFF"
   d="m 315.9,1553.2 c -0.7,2.8 -3.4,4.6 -6,4 -2.6,-0.4 -4.5,-3.1 -4.1,-6 0.4,-2.9 3.1,-4.8 6.1,-4.4 2.9,0.8 4.7,3.6 4,6.4 z"
   id="path1782"
   style="fill:#00b2ff;fill-opacity:1" />
	</g>
	<g
   id="g1788"
   style="fill:#00b2ff;fill-opacity:1">
		<path
   fill="#FFFFFF"
   d="m 341.3,1562.8 c -1.1,2.7 -4.2,4 -6.8,2.8 -2.7,-1.1 -3.8,-4.2 -2.7,-6.9 1.1,-2.7 4.2,-3.9 6.8,-2.8 2.6,1.2 3.8,4.2 2.7,6.9 z"
   id="path1786"
   style="fill:#00b2ff;fill-opacity:1" />
	</g>
	<g
   id="g1792"
   style="fill:#00b2ff;fill-opacity:1">
		<path
   fill="#FFFFFF"
   d="m 367.5,1569.5 c -0.2,1.4 -0.9,2.7 -2,3.5 -1.1,0.8 -2.5,1.2 -4,0.9 -3,-0.4 -4.9,-3.4 -4.3,-6.1 0.7,-2.9 3.3,-4.6 5.9,-4.2 1.3,0.2 2.5,1 3.2,2.1 1,1 1.4,2.4 1.2,3.8 z"
   id="path1790"
   style="fill:#00b2ff;fill-opacity:1" />
	</g>
	<g
   id="g1796"
   style="fill:#00b2ff;fill-opacity:1">
		<path
   fill="#FFFFFF"
   d="m 394.7,1569.6 c 0.3,2.9 -1.9,5.5 -4.9,5.7 -3,0.1 -5.4,-2.2 -5.5,-5.1 0,-2.9 2.2,-5.3 4.9,-5.4 2.7,-0.2 5.1,1.9 5.5,4.8 z"
   id="path1794"
   style="fill:#00b2ff;fill-opacity:1" />
	</g>
	<g
   id="g1800"
   style="fill:#00b2ff;fill-opacity:1">
		<path
   fill="#FFFFFF"
   d="m 421,1563.2 c 0.5,1.3 0.5,2.8 -0.1,4 -0.6,1.2 -1.7,2.2 -3.1,2.7 -1.4,0.5 -2.9,0.4 -4.1,-0.3 -1.2,-0.6 -2.1,-1.7 -2.5,-3.1 -0.4,-1.4 -0.2,-2.8 0.4,-4 0.6,-1.2 1.6,-2 2.9,-2.5 1.3,-0.5 2.6,-0.3 3.8,0.3 1.1,0.6 2.1,1.6 2.7,2.9 z"
   id="path1798"
   style="fill:#00b2ff;fill-opacity:1" />
	</g>
	<g
   id="g1804"
   style="fill:#00b2ff;fill-opacity:1">
		<path
   fill="#FFFFFF"
   d="m 446.3,1553.6 c 0.7,2.8 -0.8,5.7 -3.3,6.5 -2.5,0.9 -5.5,-0.6 -6.5,-3.2 -1.1,-2.7 0.4,-5.7 3.2,-6.7 2.9,-1 5.9,0.6 6.6,3.4 z"
   id="path1802"
   style="fill:#00b2ff;fill-opacity:1" />
	</g>
	<g
   id="g1808"
   style="fill:#00b2ff;fill-opacity:1">
		<path
   fill="#FFFFFF"
   d="m 473.2,1550.3 c 0,2.9 -2.2,5.3 -4.9,5.4 -1.4,0 -2.6,-0.5 -3.6,-1.3 -1,-0.9 -1.7,-2.1 -1.8,-3.6 -0.1,-1.4 0.3,-2.8 1.2,-3.8 0.9,-1 2.2,-1.7 3.7,-1.8 3,-0.1 5.4,2.2 5.4,5.1 z"
   id="path1806"
   style="fill:#00b2ff;fill-opacity:1" />
	</g>
	<g
   id="g1812"
   style="fill:#00b2ff;fill-opacity:1">
		<path
   fill="#FFFFFF"
   d="m 500.2,1553 c -0.3,1.4 -1.2,2.6 -2.3,3.3 -1.1,0.8 -2.4,1 -3.7,0.8 -2.7,-0.4 -4.5,-3.1 -4.2,-6 0.3,-2.9 3,-4.8 6,-4.4 1.5,0.2 2.7,1.1 3.5,2.3 0.8,1.2 1,2.6 0.7,4 z"
   id="path1810"
   style="fill:#00b2ff;fill-opacity:1" />
	</g>
	<g
   id="g1816"
   style="fill:#00b2ff;fill-opacity:1">
		<path
   fill="#FFFFFF"
   d="m 525.7,1562.3 c -1.1,2.7 -4.2,3.9 -6.9,2.8 -2.6,-1.1 -3.8,-4.2 -2.7,-6.8 1.1,-2.7 4.2,-3.9 6.9,-2.8 2.6,1 3.8,4.1 2.7,6.8 z"
   id="path1814"
   style="fill:#00b2ff;fill-opacity:1" />
	</g>
	<g
   id="g1820"
   style="fill:#00b2ff;fill-opacity:1">
		<path
   fill="#FFFFFF"
   d="m 551.8,1569.4 c -0.3,2.9 -3,4.8 -6,4.4 -1.5,-0.2 -2.7,-1.1 -3.5,-2.3 -0.8,-1.1 -1,-2.5 -0.7,-4 0.3,-1.4 1.2,-2.6 2.3,-3.3 1.1,-0.8 2.4,-1 3.7,-0.8 2.7,0.4 4.5,3.1 4.2,6 z"
   id="path1818"
   style="fill:#00b2ff;fill-opacity:1" />
	</g>
	<g
   id="g1824"
   style="fill:#00b2ff;fill-opacity:1">
		<path
   fill="#FFFFFF"
   d="m 579,1569.7 c 0.1,1.4 -0.3,2.8 -1.2,3.8 -0.9,1 -2.2,1.8 -3.7,1.8 -3,0.1 -5.4,-2.2 -5.4,-5.1 0,-2.9 2.2,-5.3 4.9,-5.4 1.4,0 2.6,0.5 3.6,1.3 0.9,0.9 1.6,2.2 1.8,3.6 z"
   id="path1822"
   style="fill:#00b2ff;fill-opacity:1" />
	</g>
	<g
   id="g1828"
   style="fill:#00b2ff;fill-opacity:1">
		<path
   fill="#FFFFFF"
   d="m 605.3,1563.7 c 1.1,2.7 -0.4,5.7 -3.2,6.7 -2.9,0.9 -5.9,-0.7 -6.6,-3.5 -0.7,-2.8 0.8,-5.7 3.3,-6.5 2.6,-0.8 5.5,0.7 6.5,3.3 z"
   id="path1826"
   style="fill:#00b2ff;fill-opacity:1" />
	</g>
	<g
   id="g1832"
   style="fill:#00b2ff;fill-opacity:1">
		<path
   fill="#FFFFFF"
   d="m 630.7,1553.9 c 0.4,1.4 0.2,2.8 -0.4,4 -0.6,1.2 -1.6,2 -2.9,2.5 -1.3,0.5 -2.6,0.3 -3.8,-0.3 -1.2,-0.5 -2.2,-1.6 -2.7,-2.9 -0.5,-1.3 -0.5,-2.8 0.1,-4 0.6,-1.2 1.7,-2.2 3.1,-2.7 1.4,-0.5 2.9,-0.4 4.1,0.3 1.2,0.6 2.1,1.7 2.5,3.1 z"
   id="path1830"
   style="fill:#00b2ff;fill-opacity:1" />
	</g>
	<g
   id="g1836"
   style="fill:#00b2ff;fill-opacity:1">
		<path
   fill="#FFFFFF"
   d="m 657.5,1550.3 c 0,2.9 -2.2,5.3 -4.9,5.4 -2.7,0.2 -5.1,-1.9 -5.5,-4.8 -0.3,-2.9 1.9,-5.5 4.9,-5.7 3,-0.1 5.5,2.2 5.5,5.1 z"
   id="path1834"
   style="fill:#00b2ff;fill-opacity:1" />
	</g>
	<g
   id="g1840"
   style="fill:#00b2ff;fill-opacity:1">
		<path
   fill="#FFFFFF"
   d="m 684.5,1552.7 c -0.7,2.9 -3.3,4.6 -5.9,4.2 -1.3,-0.2 -2.5,-1 -3.2,-2.1 -0.8,-1.1 -1.2,-2.4 -1.1,-3.8 0.2,-1.4 0.9,-2.7 2,-3.5 1.1,-0.8 2.5,-1.2 4,-0.9 3,0.3 4.9,3.3 4.2,6.1 z"
   id="path1838"
   style="fill:#00b2ff;fill-opacity:1" />
	</g>
	<g
   id="g1844"
   style="fill:#00b2ff;fill-opacity:1">
		<path
   fill="#FFFFFF"
   d="m 710.1,1561.8 c -1.1,2.7 -4.2,3.9 -6.8,2.8 -2.6,-1.1 -3.8,-4.1 -2.7,-6.8 1.1,-2.7 4.2,-4 6.8,-2.8 2.6,1.1 3.8,4.1 2.7,6.8 z"
   id="path1842"
   style="fill:#00b2ff;fill-opacity:1" />
	</g>
	<g
   id="g1848"
   style="fill:#00b2ff;fill-opacity:1">
		<path
   fill="#FFFFFF"
   d="m 736.1,1569.2 c -0.4,2.9 -3.1,4.8 -6.1,4.4 -3,-0.7 -4.8,-3.5 -4.1,-6.3 0.7,-2.8 3.4,-4.6 6,-4 2.7,0.4 4.6,3 4.2,5.9 z"
   id="path1846"
   style="fill:#00b2ff;fill-opacity:1" />
	</g>
</g>
<g
   id="g1920"
   style="fill:#00b2ff;fill-opacity:1"
   transform="matrix(4.4277089,0,0,5.1344178,-1353.7575,-7017.1927)">
	<g
   id="g1854"
   style="fill:#00b2ff;fill-opacity:1">
		<path
   fill="#FFFFFF"
   d="m 315.9,1578.7 c -0.7,2.8 -3.4,4.6 -6,4 -2.6,-0.4 -4.5,-3.1 -4.1,-6 0.4,-2.9 3.1,-4.8 6.1,-4.4 2.9,0.8 4.7,3.6 4,6.4 z"
   id="path1852"
   style="fill:#00b2ff;fill-opacity:1" />
	</g>
	<g
   id="g1858"
   style="fill:#00b2ff;fill-opacity:1">
		<path
   fill="#FFFFFF"
   d="m 341.3,1588.3 c -1.1,2.7 -4.2,4 -6.8,2.8 -2.7,-1.1 -3.8,-4.2 -2.7,-6.9 1.1,-2.7 4.2,-3.9 6.8,-2.8 2.6,1.2 3.8,4.2 2.7,6.9 z"
   id="path1856"
   style="fill:#00b2ff;fill-opacity:1" />
	</g>
	<g
   id="g1862"
   style="fill:#00b2ff;fill-opacity:1">
		<path
   fill="#FFFFFF"
   d="m 367.5,1595 c -0.2,1.4 -0.9,2.7 -2,3.5 -1.1,0.8 -2.5,1.2 -4,0.9 -3,-0.4 -4.9,-3.4 -4.3,-6.1 0.7,-2.9 3.3,-4.6 5.9,-4.2 1.3,0.2 2.5,1 3.2,2.1 1,1 1.4,2.4 1.2,3.8 z"
   id="path1860"
   style="fill:#00b2ff;fill-opacity:1" />
	</g>
	<g
   id="g1866"
   style="fill:#00b2ff;fill-opacity:1">
		<path
   fill="#FFFFFF"
   d="m 394.7,1595.1 c 0.3,2.9 -1.9,5.5 -4.9,5.7 -3,0.1 -5.4,-2.2 -5.5,-5.1 0,-2.9 2.2,-5.3 4.9,-5.4 2.7,-0.2 5.1,1.9 5.5,4.8 z"
   id="path1864"
   style="fill:#00b2ff;fill-opacity:1" />
	</g>
	<g
   id="g1870"
   style="fill:#00b2ff;fill-opacity:1">
		<path
   fill="#FFFFFF"
   d="m 421,1588.7 c 0.5,1.3 0.5,2.8 -0.1,4 -0.6,1.2 -1.7,2.2 -3.1,2.7 -1.4,0.5 -2.9,0.4 -4.1,-0.3 -1.2,-0.6 -2.1,-1.7 -2.5,-3.1 -0.4,-1.4 -0.2,-2.8 0.4,-4 0.6,-1.2 1.6,-2 2.9,-2.5 1.3,-0.5 2.6,-0.3 3.8,0.3 1.1,0.6 2.1,1.6 2.7,2.9 z"
   id="path1868"
   style="fill:#00b2ff;fill-opacity:1" />
	</g>
	<g
   id="g1874"
   style="fill:#00b2ff;fill-opacity:1">
		<path
   fill="#FFFFFF"
   d="m 446.3,1579.1 c 0.7,2.8 -0.8,5.7 -3.3,6.5 -2.5,0.9 -5.5,-0.6 -6.5,-3.2 -1.1,-2.7 0.4,-5.7 3.2,-6.7 2.9,-1.1 5.9,0.6 6.6,3.4 z"
   id="path1872"
   style="fill:#00b2ff;fill-opacity:1" />
	</g>
	<g
   id="g1878"
   style="fill:#00b2ff;fill-opacity:1">
		<path
   fill="#FFFFFF"
   d="m 473.2,1575.8 c 0,2.9 -2.2,5.3 -4.9,5.4 -1.4,0 -2.6,-0.5 -3.6,-1.3 -1,-0.9 -1.7,-2.1 -1.8,-3.6 -0.1,-1.4 0.3,-2.8 1.2,-3.8 0.9,-1 2.2,-1.7 3.7,-1.8 3,-0.1 5.4,2.2 5.4,5.1 z"
   id="path1876"
   style="fill:#00b2ff;fill-opacity:1" />
	</g>
	<g
   id="g1882"
   style="fill:#00b2ff;fill-opacity:1">
		<path
   fill="#FFFFFF"
   d="m 500.2,1578.5 c -0.3,1.4 -1.2,2.6 -2.3,3.3 -1.1,0.8 -2.4,1 -3.7,0.8 -2.7,-0.4 -4.5,-3.1 -4.2,-6 0.3,-2.9 3,-4.8 6,-4.4 1.5,0.2 2.7,1.1 3.5,2.3 0.8,1.2 1,2.6 0.7,4 z"
   id="path1880"
   style="fill:#00b2ff;fill-opacity:1" />
	</g>
	<g
   id="g1886"
   style="fill:#00b2ff;fill-opacity:1">
		<path
   fill="#FFFFFF"
   d="m 525.7,1587.8 c -1.1,2.7 -4.2,3.9 -6.9,2.8 -2.6,-1.1 -3.8,-4.2 -2.7,-6.8 1.1,-2.7 4.2,-3.9 6.9,-2.8 2.6,1 3.8,4.1 2.7,6.8 z"
   id="path1884"
   style="fill:#00b2ff;fill-opacity:1" />
	</g>
	<g
   id="g1890"
   style="fill:#00b2ff;fill-opacity:1">
		<path
   fill="#FFFFFF"
   d="m 551.8,1594.9 c -0.3,2.9 -3,4.8 -6,4.4 -1.5,-0.2 -2.7,-1.1 -3.5,-2.3 -0.8,-1.1 -1,-2.5 -0.7,-4 0.3,-1.4 1.2,-2.6 2.3,-3.3 1.1,-0.8 2.4,-1 3.7,-0.8 2.7,0.4 4.5,3.1 4.2,6 z"
   id="path1888"
   style="fill:#00b2ff;fill-opacity:1" />
	</g>
	<g
   id="g1894"
   style="fill:#00b2ff;fill-opacity:1">
		<path
   fill="#FFFFFF"
   d="m 579,1595.2 c 0.1,1.4 -0.3,2.8 -1.2,3.8 -0.9,1 -2.2,1.8 -3.7,1.8 -3,0.1 -5.4,-2.2 -5.4,-5.1 0,-2.9 2.2,-5.3 4.9,-5.4 1.4,0 2.6,0.5 3.6,1.3 0.9,0.9 1.6,2.2 1.8,3.6 z"
   id="path1892"
   style="fill:#00b2ff;fill-opacity:1" />
	</g>
	<g
   id="g1898"
   style="fill:#00b2ff;fill-opacity:1">
		<path
   fill="#FFFFFF"
   d="m 605.3,1589.2 c 1.1,2.7 -0.4,5.7 -3.2,6.7 -2.9,0.9 -5.9,-0.7 -6.6,-3.5 -0.7,-2.8 0.8,-5.7 3.3,-6.5 2.6,-0.8 5.5,0.7 6.5,3.3 z"
   id="path1896"
   style="fill:#00b2ff;fill-opacity:1" />
	</g>
	<g
   id="g1902"
   style="fill:#00b2ff;fill-opacity:1">
		<path
   fill="#FFFFFF"
   d="m 630.7,1579.4 c 0.4,1.4 0.2,2.8 -0.4,4 -0.6,1.2 -1.6,2 -2.9,2.5 -1.3,0.5 -2.6,0.3 -3.8,-0.3 -1.2,-0.5 -2.2,-1.6 -2.7,-2.9 -0.5,-1.3 -0.5,-2.8 0.1,-4 0.6,-1.2 1.7,-2.2 3.1,-2.7 1.4,-0.5 2.9,-0.4 4.1,0.3 1.2,0.6 2.1,1.7 2.5,3.1 z"
   id="path1900"
   style="fill:#00b2ff;fill-opacity:1" />
	</g>
	<g
   id="g1906"
   style="fill:#00b2ff;fill-opacity:1">
		<path
   fill="#FFFFFF"
   d="m 657.5,1575.8 c 0,2.9 -2.2,5.3 -4.9,5.4 -2.7,0.2 -5.1,-1.9 -5.5,-4.8 -0.3,-2.9 1.9,-5.5 4.9,-5.7 3,-0.1 5.5,2.2 5.5,5.1 z"
   id="path1904"
   style="fill:#00b2ff;fill-opacity:1" />
	</g>
	<g
   id="g1910"
   style="fill:#00b2ff;fill-opacity:1">
		<path
   fill="#FFFFFF"
   d="m 684.5,1578.2 c -0.7,2.9 -3.3,4.6 -5.9,4.2 -1.3,-0.2 -2.5,-1 -3.2,-2.1 -0.8,-1.1 -1.2,-2.4 -1.1,-3.8 0.2,-1.4 0.9,-2.7 2,-3.5 1.1,-0.8 2.5,-1.2 4,-0.9 3,0.3 4.9,3.3 4.2,6.1 z"
   id="path1908"
   style="fill:#00b2ff;fill-opacity:1" />
	</g>
	<g
   id="g1914"
   style="fill:#00b2ff;fill-opacity:1">
		<path
   fill="#FFFFFF"
   d="m 710.1,1587.3 c -1.1,2.7 -4.2,3.9 -6.8,2.8 -2.6,-1.1 -3.8,-4.1 -2.7,-6.8 1.1,-2.7 4.2,-4 6.8,-2.8 2.6,1.1 3.8,4.1 2.7,6.8 z"
   id="path1912"
   style="fill:#00b2ff;fill-opacity:1" />
	</g>
	<g
   id="g1918"
   style="fill:#00b2ff;fill-opacity:1">
		<path
   fill="#FFFFFF"
   d="m 736.1,1594.7 c -0.4,2.9 -3.1,4.8 -6.1,4.4 -3,-0.7 -4.8,-3.5 -4.1,-6.3 0.7,-2.8 3.4,-4.6 6,-4 2.7,0.4 4.6,3 4.2,5.9 z"
   id="path1916"
   style="fill:#00b2ff;fill-opacity:1" />
	</g>
</g>
<g
   id="g1990"
   style="fill:#00b2ff;fill-opacity:1"
   transform="matrix(4.4277089,0,0,5.1344178,-1353.7575,-7017.1927)">
	<g
   id="g1924"
   style="fill:#00b2ff;fill-opacity:1">
		<path
   fill="#FFFFFF"
   d="m 315.9,1604.2 c -0.7,2.8 -3.4,4.6 -6,4 -2.6,-0.4 -4.5,-3.1 -4.1,-6 0.4,-2.9 3.1,-4.8 6.1,-4.4 2.9,0.8 4.7,3.6 4,6.4 z"
   id="path1922"
   style="fill:#00b2ff;fill-opacity:1" />
	</g>
	<g
   id="g1928"
   style="fill:#00b2ff;fill-opacity:1">
		<path
   fill="#FFFFFF"
   d="m 341.3,1613.8 c -1.1,2.7 -4.2,4 -6.8,2.8 -2.7,-1.1 -3.8,-4.2 -2.7,-6.9 1.1,-2.7 4.2,-3.9 6.8,-2.8 2.6,1.2 3.8,4.2 2.7,6.9 z"
   id="path1926"
   style="fill:#00b2ff;fill-opacity:1" />
	</g>
	<g
   id="g1932"
   style="fill:#00b2ff;fill-opacity:1">
		<path
   fill="#FFFFFF"
   d="m 367.5,1620.5 c -0.2,1.4 -0.9,2.7 -2,3.5 -1.1,0.8 -2.5,1.2 -4,0.9 -3,-0.4 -4.9,-3.4 -4.3,-6.1 0.7,-2.9 3.3,-4.6 5.9,-4.2 1.3,0.2 2.5,1 3.2,2.1 1,1 1.4,2.4 1.2,3.8 z"
   id="path1930"
   style="fill:#00b2ff;fill-opacity:1" />
	</g>
	<g
   id="g1936"
   style="fill:#00b2ff;fill-opacity:1">
		<path
   fill="#FFFFFF"
   d="m 394.7,1620.6 c 0.3,2.9 -1.9,5.5 -4.9,5.7 -3,0.1 -5.4,-2.2 -5.5,-5.1 0,-2.9 2.2,-5.3 4.9,-5.4 2.7,-0.2 5.1,1.9 5.5,4.8 z"
   id="path1934"
   style="fill:#00b2ff;fill-opacity:1" />
	</g>
	<g
   id="g1940"
   style="fill:#00b2ff;fill-opacity:1">
		<path
   fill="#FFFFFF"
   d="m 421,1614.2 c 0.5,1.3 0.5,2.8 -0.1,4 -0.6,1.2 -1.7,2.2 -3.1,2.7 -1.4,0.5 -2.9,0.4 -4.1,-0.3 -1.2,-0.6 -2.1,-1.7 -2.5,-3.1 -0.4,-1.4 -0.2,-2.8 0.4,-4 0.6,-1.2 1.6,-2 2.9,-2.5 1.3,-0.5 2.6,-0.3 3.8,0.3 1.1,0.6 2.1,1.6 2.7,2.9 z"
   id="path1938"
   style="fill:#00b2ff;fill-opacity:1" />
	</g>
	<g
   id="g1944"
   style="fill:#00b2ff;fill-opacity:1">
		<path
   fill="#FFFFFF"
   d="m 446.3,1604.6 c 0.7,2.8 -0.8,5.7 -3.3,6.5 -2.5,0.9 -5.5,-0.6 -6.5,-3.2 -1.1,-2.7 0.4,-5.7 3.2,-6.7 2.9,-1.1 5.9,0.6 6.6,3.4 z"
   id="path1942"
   style="fill:#00b2ff;fill-opacity:1" />
	</g>
	<g
   id="g1948"
   style="fill:#00b2ff;fill-opacity:1">
		<path
   fill="#FFFFFF"
   d="m 473.2,1601.3 c 0,2.9 -2.2,5.3 -4.9,5.4 -1.4,0 -2.6,-0.5 -3.6,-1.3 -1,-0.9 -1.7,-2.1 -1.8,-3.6 -0.1,-1.4 0.3,-2.8 1.2,-3.8 0.9,-1 2.2,-1.7 3.7,-1.8 3,-0.1 5.4,2.2 5.4,5.1 z"
   id="path1946"
   style="fill:#00b2ff;fill-opacity:1" />
	</g>
	<g
   id="g1952"
   style="fill:#00b2ff;fill-opacity:1">
		<path
   fill="#FFFFFF"
   d="m 500.2,1604 c -0.3,1.4 -1.2,2.6 -2.3,3.3 -1.1,0.8 -2.4,1 -3.7,0.8 -2.7,-0.4 -4.5,-3.1 -4.2,-6 0.3,-2.9 3,-4.8 6,-4.4 1.5,0.2 2.7,1.1 3.5,2.3 0.8,1.2 1,2.6 0.7,4 z"
   id="path1950"
   style="fill:#00b2ff;fill-opacity:1" />
	</g>
	<g
   id="g1956"
   style="fill:#00b2ff;fill-opacity:1">
		<path
   fill="#FFFFFF"
   d="m 525.7,1613.3 c -1.1,2.7 -4.2,3.9 -6.9,2.8 -2.6,-1.1 -3.8,-4.2 -2.7,-6.8 1.1,-2.7 4.2,-3.9 6.9,-2.8 2.6,1 3.8,4.1 2.7,6.8 z"
   id="path1954"
   style="fill:#00b2ff;fill-opacity:1" />
	</g>
	<g
   id="g1960"
   style="fill:#00b2ff;fill-opacity:1">
		<path
   fill="#FFFFFF"
   d="m 551.8,1620.4 c -0.3,2.9 -3,4.8 -6,4.4 -1.5,-0.2 -2.7,-1.1 -3.5,-2.3 -0.8,-1.1 -1,-2.5 -0.7,-4 0.3,-1.4 1.2,-2.6 2.3,-3.3 1.1,-0.8 2.4,-1 3.7,-0.8 2.7,0.4 4.5,3.1 4.2,6 z"
   id="path1958"
   style="fill:#00b2ff;fill-opacity:1" />
	</g>
	<g
   id="g1964"
   style="fill:#00b2ff;fill-opacity:1">
		<path
   fill="#FFFFFF"
   d="m 579,1620.7 c 0.1,1.4 -0.3,2.8 -1.2,3.8 -0.9,1 -2.2,1.8 -3.7,1.8 -3,0.1 -5.4,-2.2 -5.4,-5.1 0,-2.9 2.2,-5.3 4.9,-5.4 1.4,0 2.6,0.5 3.6,1.3 0.9,0.9 1.6,2.2 1.8,3.6 z"
   id="path1962"
   style="fill:#00b2ff;fill-opacity:1" />
	</g>
	<g
   id="g1968"
   style="fill:#00b2ff;fill-opacity:1">
		<path
   fill="#FFFFFF"
   d="m 605.3,1614.7 c 1.1,2.7 -0.4,5.7 -3.2,6.7 -2.9,0.9 -5.9,-0.7 -6.6,-3.5 -0.7,-2.8 0.8,-5.7 3.3,-6.5 2.6,-0.8 5.5,0.7 6.5,3.3 z"
   id="path1966"
   style="fill:#00b2ff;fill-opacity:1" />
	</g>
	<g
   id="g1972"
   style="fill:#00b2ff;fill-opacity:1">
		<path
   fill="#FFFFFF"
   d="m 630.7,1604.9 c 0.4,1.4 0.2,2.8 -0.4,4 -0.6,1.2 -1.6,2 -2.9,2.5 -1.3,0.5 -2.6,0.3 -3.8,-0.3 -1.2,-0.5 -2.2,-1.6 -2.7,-2.9 -0.5,-1.3 -0.5,-2.8 0.1,-4 0.6,-1.2 1.7,-2.2 3.1,-2.7 1.4,-0.5 2.9,-0.4 4.1,0.3 1.2,0.6 2.1,1.7 2.5,3.1 z"
   id="path1970"
   style="fill:#00b2ff;fill-opacity:1" />
	</g>
	<g
   id="g1976"
   style="fill:#00b2ff;fill-opacity:1">
		<path
   fill="#FFFFFF"
   d="m 657.5,1601.3 c 0,2.9 -2.2,5.3 -4.9,5.4 -2.7,0.2 -5.1,-1.9 -5.5,-4.8 -0.3,-2.9 1.9,-5.5 4.9,-5.7 3,-0.1 5.5,2.2 5.5,5.1 z"
   id="path1974"
   style="fill:#00b2ff;fill-opacity:1" />
	</g>
	<g
   id="g1980"
   style="fill:#00b2ff;fill-opacity:1">
		<path
   fill="#FFFFFF"
   d="m 684.5,1603.7 c -0.7,2.9 -3.3,4.6 -5.9,4.2 -1.3,-0.2 -2.5,-1 -3.2,-2.1 -0.8,-1.1 -1.2,-2.4 -1.1,-3.8 0.2,-1.4 0.9,-2.7 2,-3.5 1.1,-0.8 2.5,-1.2 4,-0.9 3,0.3 4.9,3.3 4.2,6.1 z"
   id="path1978"
   style="fill:#00b2ff;fill-opacity:1" />
	</g>
	<g
   id="g1984"
   style="fill:#00b2ff;fill-opacity:1">
		<path
   fill="#FFFFFF"
   d="m 710.1,1612.8 c -1.1,2.7 -4.2,3.9 -6.8,2.8 -2.6,-1.1 -3.8,-4.1 -2.7,-6.8 1.1,-2.7 4.2,-4 6.8,-2.8 2.6,1.1 3.8,4.1 2.7,6.8 z"
   id="path1982"
   style="fill:#00b2ff;fill-opacity:1" />
	</g>
	<g
   id="g1988"
   style="fill:#00b2ff;fill-opacity:1">
		<path
   fill="#FFFFFF"
   d="m 736.1,1620.2 c -0.4,2.9 -3.1,4.8 -6.1,4.4 -3,-0.7 -4.8,-3.5 -4.1,-6.3 0.7,-2.8 3.4,-4.6 6,-4 2.7,0.3 4.6,3 4.2,5.9 z"
   id="path1986"
   style="fill:#00b2ff;fill-opacity:1" />
	</g>
</g>
<g
   id="g2060"
   style="fill:#00b2ff;fill-opacity:1"
   transform="matrix(4.4277089,0,0,5.1344178,-1353.7575,-7017.1927)">
	<g
   id="g1994"
   style="fill:#00b2ff;fill-opacity:1">
		<path
   fill="#FFFFFF"
   d="m 315.9,1629.7 c -0.7,2.8 -3.4,4.6 -6,4 -2.6,-0.4 -4.5,-3.1 -4.1,-6 0.4,-2.9 3.1,-4.8 6.1,-4.4 2.9,0.8 4.7,3.6 4,6.4 z"
   id="path1992"
   style="fill:#00b2ff;fill-opacity:1" />
	</g>
	<g
   id="g1998"
   style="fill:#00b2ff;fill-opacity:1">
		<path
   fill="#FFFFFF"
   d="m 341.3,1639.3 c -1.1,2.7 -4.2,4 -6.8,2.8 -2.7,-1.1 -3.8,-4.2 -2.7,-6.9 1.1,-2.7 4.2,-3.9 6.8,-2.8 2.6,1.2 3.8,4.2 2.7,6.9 z"
   id="path1996"
   style="fill:#00b2ff;fill-opacity:1" />
	</g>
	<g
   id="g2002"
   style="fill:#00b2ff;fill-opacity:1">
		<path
   fill="#FFFFFF"
   d="m 367.5,1646 c -0.2,1.4 -0.9,2.7 -2,3.5 -1.1,0.8 -2.5,1.2 -4,0.9 -3,-0.4 -4.9,-3.4 -4.3,-6.1 0.7,-2.9 3.3,-4.6 5.9,-4.2 1.3,0.2 2.5,1 3.2,2.1 1,1 1.4,2.4 1.2,3.8 z"
   id="path2000"
   style="fill:#00b2ff;fill-opacity:1" />
	</g>
	<g
   id="g2006"
   style="fill:#00b2ff;fill-opacity:1">
		<path
   fill="#FFFFFF"
   d="m 394.7,1646.1 c 0.3,2.9 -1.9,5.5 -4.9,5.7 -3,0.1 -5.4,-2.2 -5.5,-5.1 0,-2.9 2.2,-5.3 4.9,-5.4 2.7,-0.2 5.1,1.9 5.5,4.8 z"
   id="path2004"
   style="fill:#00b2ff;fill-opacity:1" />
	</g>
	<g
   id="g2010"
   style="fill:#00b2ff;fill-opacity:1">
		<path
   fill="#FFFFFF"
   d="m 421,1639.7 c 0.5,1.3 0.5,2.8 -0.1,4 -0.6,1.2 -1.7,2.2 -3.1,2.7 -1.4,0.5 -2.9,0.4 -4.1,-0.3 -1.2,-0.6 -2.1,-1.7 -2.5,-3.1 -0.4,-1.4 -0.2,-2.8 0.4,-4 0.6,-1.2 1.6,-2 2.9,-2.5 1.3,-0.5 2.6,-0.3 3.8,0.3 1.1,0.6 2.1,1.6 2.7,2.9 z"
   id="path2008"
   style="fill:#00b2ff;fill-opacity:1" />
	</g>
	<g
   id="g2014"
   style="fill:#00b2ff;fill-opacity:1">
		<path
   fill="#FFFFFF"
   d="m 446.3,1630.1 c 0.7,2.8 -0.8,5.7 -3.3,6.5 -2.5,0.9 -5.5,-0.6 -6.5,-3.2 -1.1,-2.7 0.4,-5.7 3.2,-6.7 2.9,-1.1 5.9,0.6 6.6,3.4 z"
   id="path2012"
   style="fill:#00b2ff;fill-opacity:1" />
	</g>
	<g
   id="g2018"
   style="fill:#00b2ff;fill-opacity:1">
		<path
   fill="#FFFFFF"
   d="m 473.2,1626.8 c 0,2.9 -2.2,5.3 -4.9,5.4 -1.4,0 -2.6,-0.5 -3.6,-1.3 -1,-0.9 -1.7,-2.1 -1.8,-3.6 -0.1,-1.4 0.3,-2.8 1.2,-3.8 0.9,-1 2.2,-1.7 3.7,-1.8 3,-0.1 5.4,2.2 5.4,5.1 z"
   id="path2016"
   style="fill:#00b2ff;fill-opacity:1" />
	</g>
	<g
   id="g2022"
   style="fill:#00b2ff;fill-opacity:1">
		<path
   fill="#FFFFFF"
   d="m 500.2,1629.5 c -0.3,1.4 -1.2,2.6 -2.3,3.3 -1.1,0.8 -2.4,1 -3.7,0.8 -2.7,-0.4 -4.5,-3.1 -4.2,-6 0.3,-2.9 3,-4.8 6,-4.4 1.5,0.2 2.7,1.1 3.5,2.3 0.8,1.2 1,2.6 0.7,4 z"
   id="path2020"
   style="fill:#00b2ff;fill-opacity:1" />
	</g>
	<g
   id="g2026"
   style="fill:#00b2ff;fill-opacity:1">
		<path
   fill="#FFFFFF"
   d="m 525.7,1638.8 c -1.1,2.7 -4.2,3.9 -6.9,2.8 -2.6,-1.1 -3.8,-4.2 -2.7,-6.8 1.1,-2.7 4.2,-3.9 6.9,-2.8 2.6,1 3.8,4.1 2.7,6.8 z"
   id="path2024"
   style="fill:#00b2ff;fill-opacity:1" />
	</g>
	<g
   id="g2030"
   style="fill:#00b2ff;fill-opacity:1">
		<path
   fill="#FFFFFF"
   d="m 551.8,1645.9 c -0.3,2.9 -3,4.8 -6,4.4 -1.5,-0.2 -2.7,-1.1 -3.5,-2.3 -0.8,-1.1 -1,-2.5 -0.7,-4 0.3,-1.4 1.2,-2.6 2.3,-3.3 1.1,-0.8 2.4,-1 3.7,-0.8 2.7,0.4 4.5,3.1 4.2,6 z"
   id="path2028"
   style="fill:#00b2ff;fill-opacity:1" />
	</g>
	<g
   id="g2034"
   style="fill:#00b2ff;fill-opacity:1">
		<path
   fill="#FFFFFF"
   d="m 579,1646.2 c 0.1,1.4 -0.3,2.8 -1.2,3.8 -0.9,1 -2.2,1.8 -3.7,1.8 -3,0.1 -5.4,-2.2 -5.4,-5.1 0,-2.9 2.2,-5.3 4.9,-5.4 1.4,0 2.6,0.5 3.6,1.3 0.9,0.9 1.6,2.2 1.8,3.6 z"
   id="path2032"
   style="fill:#00b2ff;fill-opacity:1" />
	</g>
	<g
   id="g2038"
   style="fill:#00b2ff;fill-opacity:1">
		<path
   fill="#FFFFFF"
   d="m 605.3,1640.2 c 1.1,2.7 -0.4,5.7 -3.2,6.7 -2.9,0.9 -5.9,-0.7 -6.6,-3.5 -0.7,-2.8 0.8,-5.7 3.3,-6.5 2.6,-0.8 5.5,0.7 6.5,3.3 z"
   id="path2036"
   style="fill:#00b2ff;fill-opacity:1" />
	</g>
	<g
   id="g2042"
   style="fill:#00b2ff;fill-opacity:1">
		<path
   fill="#FFFFFF"
   d="m 630.7,1630.4 c 0.4,1.4 0.2,2.8 -0.4,4 -0.6,1.2 -1.6,2 -2.9,2.5 -1.3,0.5 -2.6,0.3 -3.8,-0.3 -1.2,-0.5 -2.2,-1.6 -2.7,-2.9 -0.5,-1.3 -0.5,-2.8 0.1,-4 0.6,-1.2 1.7,-2.2 3.1,-2.7 1.4,-0.5 2.9,-0.4 4.1,0.3 1.2,0.6 2.1,1.7 2.5,3.1 z"
   id="path2040"
   style="fill:#00b2ff;fill-opacity:1" />
	</g>
	<g
   id="g2046"
   style="fill:#00b2ff;fill-opacity:1">
		<path
   fill="#FFFFFF"
   d="m 657.5,1626.8 c 0,2.9 -2.2,5.3 -4.9,5.4 -2.7,0.2 -5.1,-1.9 -5.5,-4.8 -0.3,-2.9 1.9,-5.5 4.9,-5.7 3,-0.1 5.5,2.2 5.5,5.1 z"
   id="path2044"
   style="fill:#00b2ff;fill-opacity:1" />
	</g>
	<g
   id="g2050"
   style="fill:#00b2ff;fill-opacity:1">
		<path
   fill="#FFFFFF"
   d="m 684.5,1629.2 c -0.7,2.9 -3.3,4.6 -5.9,4.2 -1.3,-0.2 -2.5,-1 -3.2,-2.1 -0.8,-1.1 -1.2,-2.4 -1.1,-3.8 0.2,-1.4 0.9,-2.7 2,-3.5 1.1,-0.8 2.5,-1.2 4,-0.9 3,0.3 4.9,3.3 4.2,6.1 z"
   id="path2048"
   style="fill:#00b2ff;fill-opacity:1" />
	</g>
	<g
   id="g2054"
   style="fill:#00b2ff;fill-opacity:1">
		<path
   fill="#FFFFFF"
   d="m 710.1,1638.3 c -1.1,2.7 -4.2,3.9 -6.8,2.8 -2.6,-1.1 -3.8,-4.1 -2.7,-6.8 1.1,-2.7 4.2,-4 6.8,-2.8 2.6,1.1 3.8,4.1 2.7,6.8 z"
   id="path2052"
   style="fill:#00b2ff;fill-opacity:1" />
	</g>
	<g
   id="g2058"
   style="fill:#00b2ff;fill-opacity:1">
		<path
   fill="#FFFFFF"
   d="m 736.1,1645.7 c -0.4,2.9 -3.1,4.8 -6.1,4.4 -3,-0.7 -4.8,-3.5 -4.1,-6.3 0.7,-2.8 3.4,-4.6 6,-4 2.7,0.3 4.6,3 4.2,5.9 z"
   id="path2056"
   style="fill:#00b2ff;fill-opacity:1" />
	</g>
</g>
<g
   id="g2130"
   style="fill:#00b2ff;fill-opacity:1"
   transform="matrix(4.4277089,0,0,5.1344178,-1353.7575,-7017.1927)">
	<g
   id="g2064"
   style="fill:#00b2ff;fill-opacity:1">
		<path
   fill="#FFFFFF"
   d="m 315.9,1655.2 c -0.7,2.8 -3.4,4.6 -6,4 -2.6,-0.4 -4.5,-3.1 -4.1,-6 0.4,-2.9 3.1,-4.8 6.1,-4.4 2.9,0.8 4.7,3.6 4,6.4 z"
   id="path2062"
   style="fill:#00b2ff;fill-opacity:1" />
	</g>
	<g
   id="g2068"
   style="fill:#00b2ff;fill-opacity:1">
		<path
   fill="#FFFFFF"
   d="m 341.3,1664.8 c -1.1,2.7 -4.2,4 -6.8,2.8 -2.7,-1.1 -3.8,-4.2 -2.7,-6.9 1.1,-2.7 4.2,-3.9 6.8,-2.8 2.6,1.2 3.8,4.2 2.7,6.9 z"
   id="path2066"
   style="fill:#00b2ff;fill-opacity:1" />
	</g>
	<g
   id="g2072"
   style="fill:#00b2ff;fill-opacity:1">
		<path
   fill="#FFFFFF"
   d="m 367.5,1671.5 c -0.2,1.4 -0.9,2.7 -2,3.5 -1.1,0.8 -2.5,1.2 -4,0.9 -3,-0.4 -4.9,-3.4 -4.3,-6.1 0.7,-2.9 3.3,-4.6 5.9,-4.2 1.3,0.2 2.5,1 3.2,2.1 1,1 1.4,2.4 1.2,3.8 z"
   id="path2070"
   style="fill:#00b2ff;fill-opacity:1" />
	</g>
	<g
   id="g2076"
   style="fill:#00b2ff;fill-opacity:1">
		<path
   fill="#FFFFFF"
   d="m 394.7,1671.6 c 0.3,2.9 -1.9,5.5 -4.9,5.7 -3,0.1 -5.4,-2.2 -5.5,-5.1 0,-2.9 2.2,-5.3 4.9,-5.4 2.7,-0.2 5.1,1.9 5.5,4.8 z"
   id="path2074"
   style="fill:#00b2ff;fill-opacity:1" />
	</g>
	<g
   id="g2080"
   style="fill:#00b2ff;fill-opacity:1">
		<path
   fill="#FFFFFF"
   d="m 421,1665.2 c 0.5,1.3 0.5,2.8 -0.1,4 -0.6,1.2 -1.7,2.2 -3.1,2.7 -1.4,0.5 -2.9,0.4 -4.1,-0.3 -1.2,-0.6 -2.1,-1.7 -2.5,-3.1 -0.4,-1.4 -0.2,-2.8 0.4,-4 0.6,-1.2 1.6,-2 2.9,-2.5 1.3,-0.5 2.6,-0.3 3.8,0.3 1.1,0.6 2.1,1.6 2.7,2.9 z"
   id="path2078"
   style="fill:#00b2ff;fill-opacity:1" />
	</g>
	<g
   id="g2084"
   style="fill:#00b2ff;fill-opacity:1">
		<path
   fill="#FFFFFF"
   d="m 446.3,1655.6 c 0.7,2.8 -0.8,5.7 -3.3,6.5 -2.5,0.9 -5.5,-0.6 -6.5,-3.2 -1.1,-2.7 0.4,-5.7 3.2,-6.7 2.9,-1.1 5.9,0.6 6.6,3.4 z"
   id="path2082"
   style="fill:#00b2ff;fill-opacity:1" />
	</g>
	<g
   id="g2088"
   style="fill:#00b2ff;fill-opacity:1">
		<path
   fill="#FFFFFF"
   d="m 473.2,1652.3 c 0,2.9 -2.2,5.3 -4.9,5.4 -1.4,0 -2.6,-0.5 -3.6,-1.3 -1,-0.9 -1.7,-2.1 -1.8,-3.6 -0.1,-1.4 0.3,-2.8 1.2,-3.8 0.9,-1 2.2,-1.7 3.7,-1.8 3,-0.1 5.4,2.2 5.4,5.1 z"
   id="path2086"
   style="fill:#00b2ff;fill-opacity:1" />
	</g>
	<g
   id="g2092"
   style="fill:#00b2ff;fill-opacity:1">
		<path
   fill="#FFFFFF"
   d="m 500.2,1655 c -0.3,1.4 -1.2,2.6 -2.3,3.3 -1.1,0.8 -2.4,1 -3.7,0.8 -2.7,-0.4 -4.5,-3.1 -4.2,-6 0.3,-2.9 3,-4.8 6,-4.4 1.5,0.2 2.7,1.1 3.5,2.3 0.8,1.1 1,2.6 0.7,4 z"
   id="path2090"
   style="fill:#00b2ff;fill-opacity:1" />
	</g>
	<g
   id="g2096"
   style="fill:#00b2ff;fill-opacity:1">
		<path
   fill="#FFFFFF"
   d="m 525.7,1664.3 c -1.1,2.7 -4.2,3.9 -6.9,2.8 -2.6,-1.1 -3.8,-4.2 -2.7,-6.8 1.1,-2.7 4.2,-3.9 6.9,-2.8 2.6,1 3.8,4.1 2.7,6.8 z"
   id="path2094"
   style="fill:#00b2ff;fill-opacity:1" />
	</g>
	<g
   id="g2100"
   style="fill:#00b2ff;fill-opacity:1">
		<path
   fill="#FFFFFF"
   d="m 551.8,1671.4 c -0.3,2.9 -3,4.8 -6,4.4 -1.5,-0.2 -2.7,-1.1 -3.5,-2.3 -0.8,-1.1 -1,-2.5 -0.7,-4 0.3,-1.4 1.2,-2.6 2.3,-3.3 1.1,-0.8 2.4,-1 3.7,-0.8 2.7,0.4 4.5,3.1 4.2,6 z"
   id="path2098"
   style="fill:#00b2ff;fill-opacity:1" />
	</g>
	<g
   id="g2104"
   style="fill:#00b2ff;fill-opacity:1">
		<path
   fill="#FFFFFF"
   d="m 579,1671.7 c 0.1,1.4 -0.3,2.8 -1.2,3.8 -0.9,1 -2.2,1.8 -3.7,1.8 -3,0.1 -5.4,-2.2 -5.4,-5.1 0,-2.9 2.2,-5.3 4.9,-5.4 1.4,0 2.6,0.5 3.6,1.3 0.9,0.9 1.6,2.2 1.8,3.6 z"
   id="path2102"
   style="fill:#00b2ff;fill-opacity:1" />
	</g>
	<g
   id="g2108"
   style="fill:#00b2ff;fill-opacity:1">
		<path
   fill="#FFFFFF"
   d="m 605.3,1665.7 c 1.1,2.7 -0.4,5.7 -3.2,6.7 -2.9,0.9 -5.9,-0.7 -6.6,-3.5 -0.7,-2.8 0.8,-5.7 3.3,-6.5 2.6,-0.8 5.5,0.6 6.5,3.3 z"
   id="path2106"
   style="fill:#00b2ff;fill-opacity:1" />
	</g>
	<g
   id="g2112"
   style="fill:#00b2ff;fill-opacity:1">
		<path
   fill="#FFFFFF"
   d="m 630.7,1655.9 c 0.4,1.4 0.2,2.8 -0.4,4 -0.6,1.2 -1.6,2 -2.9,2.5 -1.3,0.5 -2.6,0.3 -3.8,-0.3 -1.2,-0.5 -2.2,-1.6 -2.7,-2.9 -0.5,-1.3 -0.5,-2.8 0.1,-4 0.6,-1.2 1.7,-2.2 3.1,-2.7 1.4,-0.5 2.9,-0.4 4.1,0.3 1.2,0.6 2.1,1.7 2.5,3.1 z"
   id="path2110"
   style="fill:#00b2ff;fill-opacity:1" />
	</g>
	<g
   id="g2116"
   style="fill:#00b2ff;fill-opacity:1">
		<path
   fill="#FFFFFF"
   d="m 657.5,1652.3 c 0,2.9 -2.2,5.3 -4.9,5.4 -2.7,0.2 -5.1,-1.9 -5.5,-4.8 -0.3,-2.9 1.9,-5.5 4.9,-5.7 3,-0.1 5.5,2.2 5.5,5.1 z"
   id="path2114"
   style="fill:#00b2ff;fill-opacity:1" />
	</g>
	<g
   id="g2120"
   style="fill:#00b2ff;fill-opacity:1">
		<path
   fill="#FFFFFF"
   d="m 684.5,1654.7 c -0.7,2.9 -3.3,4.6 -5.9,4.2 -1.3,-0.2 -2.5,-1 -3.2,-2.1 -0.8,-1.1 -1.2,-2.4 -1.1,-3.8 0.2,-1.4 0.9,-2.7 2,-3.5 1.1,-0.8 2.5,-1.2 4,-0.9 3,0.3 4.9,3.3 4.2,6.1 z"
   id="path2118"
   style="fill:#00b2ff;fill-opacity:1" />
	</g>
	<g
   id="g2124"
   style="fill:#00b2ff;fill-opacity:1">
		<path
   fill="#FFFFFF"
   d="m 710.1,1663.8 c -1.1,2.7 -4.2,3.9 -6.8,2.8 -2.6,-1.1 -3.8,-4.1 -2.7,-6.8 1.1,-2.7 4.2,-4 6.8,-2.8 2.6,1.1 3.8,4.1 2.7,6.8 z"
   id="path2122"
   style="fill:#00b2ff;fill-opacity:1" />
	</g>
	<g
   id="g2128"
   style="fill:#00b2ff;fill-opacity:1">
		<path
   fill="#FFFFFF"
   d="m 736.1,1671.2 c -0.4,2.9 -3.1,4.8 -6.1,4.4 -3,-0.7 -4.8,-3.5 -4.1,-6.3 0.7,-2.8 3.4,-4.6 6,-4 2.7,0.3 4.6,3 4.2,5.9 z"
   id="path2126"
   style="fill:#00b2ff;fill-opacity:1" />
	</g>
</g>
<g
   id="g2200"
   style="fill:#00b2ff;fill-opacity:1"
   transform="matrix(4.4277089,0,0,5.1344178,-1353.7575,-7017.1927)">
	<g
   id="g2134"
   style="fill:#00b2ff;fill-opacity:1">
		<path
   fill="#FFFFFF"
   d="m 315.9,1680.7 c -0.7,2.8 -3.4,4.6 -6,4 -2.6,-0.4 -4.5,-3.1 -4.1,-6 0.4,-2.9 3.1,-4.8 6.1,-4.4 2.9,0.8 4.7,3.6 4,6.4 z"
   id="path2132"
   style="fill:#00b2ff;fill-opacity:1" />
	</g>
	<g
   id="g2138"
   style="fill:#00b2ff;fill-opacity:1">
		<path
   fill="#FFFFFF"
   d="m 341.3,1690.3 c -1.1,2.7 -4.2,4 -6.8,2.8 -2.7,-1.1 -3.8,-4.2 -2.7,-6.9 1.1,-2.7 4.2,-3.9 6.8,-2.8 2.6,1.2 3.8,4.2 2.7,6.9 z"
   id="path2136"
   style="fill:#00b2ff;fill-opacity:1" />
	</g>
	<g
   id="g2142"
   style="fill:#00b2ff;fill-opacity:1">
		<path
   fill="#FFFFFF"
   d="m 367.5,1697 c -0.2,1.4 -0.9,2.7 -2,3.5 -1.1,0.8 -2.5,1.2 -4,0.9 -3,-0.4 -4.9,-3.4 -4.3,-6.1 0.7,-2.9 3.3,-4.6 5.9,-4.2 1.3,0.2 2.5,1 3.2,2.1 1,1 1.4,2.3 1.2,3.8 z"
   id="path2140"
   style="fill:#00b2ff;fill-opacity:1" />
	</g>
	<g
   id="g2146"
   style="fill:#00b2ff;fill-opacity:1">
		<path
   fill="#FFFFFF"
   d="m 394.7,1697.1 c 0.3,2.9 -1.9,5.5 -4.9,5.7 -3,0.1 -5.4,-2.2 -5.5,-5.1 0,-2.9 2.2,-5.3 4.9,-5.4 2.7,-0.2 5.1,1.9 5.5,4.8 z"
   id="path2144"
   style="fill:#00b2ff;fill-opacity:1" />
	</g>
	<g
   id="g2150"
   style="fill:#00b2ff;fill-opacity:1">
		<path
   fill="#FFFFFF"
   d="m 421,1690.7 c 0.5,1.3 0.5,2.8 -0.1,4 -0.6,1.2 -1.7,2.2 -3.1,2.7 -1.4,0.5 -2.9,0.4 -4.1,-0.3 -1.2,-0.6 -2.1,-1.7 -2.5,-3.1 -0.4,-1.4 -0.2,-2.8 0.4,-4 0.6,-1.2 1.6,-2 2.9,-2.5 1.3,-0.5 2.6,-0.3 3.8,0.3 1.1,0.6 2.1,1.6 2.7,2.9 z"
   id="path2148"
   style="fill:#00b2ff;fill-opacity:1" />
	</g>
	<g
   id="g2154"
   style="fill:#00b2ff;fill-opacity:1">
		<path
   fill="#FFFFFF"
   d="m 446.3,1681.1 c 0.7,2.8 -0.8,5.7 -3.3,6.5 -2.5,0.9 -5.5,-0.6 -6.5,-3.2 -1.1,-2.7 0.4,-5.7 3.2,-6.7 2.9,-1.1 5.9,0.6 6.6,3.4 z"
   id="path2152"
   style="fill:#00b2ff;fill-opacity:1" />
	</g>
	<g
   id="g2158"
   style="fill:#00b2ff;fill-opacity:1">
		<path
   fill="#FFFFFF"
   d="m 473.2,1677.8 c 0,2.9 -2.2,5.3 -4.9,5.4 -1.4,0 -2.6,-0.5 -3.6,-1.3 -1,-0.9 -1.7,-2.1 -1.8,-3.6 -0.1,-1.4 0.3,-2.8 1.2,-3.8 0.9,-1 2.2,-1.7 3.7,-1.8 3,-0.1 5.4,2.2 5.4,5.1 z"
   id="path2156"
   style="fill:#00b2ff;fill-opacity:1" />
	</g>
	<g
   id="g2162"
   style="fill:#00b2ff;fill-opacity:1">
		<path
   fill="#FFFFFF"
   d="m 500.2,1680.5 c -0.3,1.4 -1.2,2.6 -2.3,3.3 -1.1,0.8 -2.4,1 -3.7,0.8 -2.7,-0.4 -4.5,-3.1 -4.2,-6 0.3,-2.9 3,-4.8 6,-4.4 1.5,0.2 2.7,1.1 3.5,2.3 0.8,1.1 1,2.6 0.7,4 z"
   id="path2160"
   style="fill:#00b2ff;fill-opacity:1" />
	</g>
	<g
   id="g2166"
   style="fill:#00b2ff;fill-opacity:1">
		<path
   fill="#FFFFFF"
   d="m 525.7,1689.8 c -1.1,2.7 -4.2,3.9 -6.9,2.8 -2.6,-1.1 -3.8,-4.2 -2.7,-6.8 1.1,-2.7 4.2,-3.9 6.9,-2.8 2.6,1 3.8,4.1 2.7,6.8 z"
   id="path2164"
   style="fill:#00b2ff;fill-opacity:1" />
	</g>
	<g
   id="g2170"
   style="fill:#00b2ff;fill-opacity:1">
		<path
   fill="#FFFFFF"
   d="m 551.8,1696.9 c -0.3,2.9 -3,4.8 -6,4.4 -1.5,-0.2 -2.7,-1.1 -3.5,-2.3 -0.8,-1.1 -1,-2.5 -0.7,-4 0.3,-1.4 1.2,-2.6 2.3,-3.3 1.1,-0.8 2.4,-1 3.7,-0.8 2.7,0.4 4.5,3.1 4.2,6 z"
   id="path2168"
   style="fill:#00b2ff;fill-opacity:1" />
	</g>
	<g
   id="g2174"
   style="fill:#00b2ff;fill-opacity:1">
		<path
   fill="#FFFFFF"
   d="m 579,1697.2 c 0.1,1.4 -0.3,2.8 -1.2,3.8 -0.9,1 -2.2,1.8 -3.7,1.8 -3,0.1 -5.4,-2.2 -5.4,-5.1 0,-2.9 2.2,-5.3 4.9,-5.4 1.4,0 2.6,0.5 3.6,1.3 0.9,0.9 1.6,2.2 1.8,3.6 z"
   id="path2172"
   style="fill:#00b2ff;fill-opacity:1" />
	</g>
	<g
   id="g2178"
   style="fill:#00b2ff;fill-opacity:1">
		<path
   fill="#FFFFFF"
   d="m 605.3,1691.2 c 1.1,2.7 -0.4,5.7 -3.2,6.7 -2.9,0.9 -5.9,-0.7 -6.6,-3.5 -0.7,-2.8 0.8,-5.7 3.3,-6.5 2.6,-0.8 5.5,0.6 6.5,3.3 z"
   id="path2176"
   style="fill:#00b2ff;fill-opacity:1" />
	</g>
	<g
   id="g2182"
   style="fill:#00b2ff;fill-opacity:1">
		<path
   fill="#FFFFFF"
   d="m 630.7,1681.4 c 0.4,1.4 0.2,2.8 -0.4,4 -0.6,1.2 -1.6,2 -2.9,2.5 -1.3,0.5 -2.6,0.3 -3.8,-0.3 -1.2,-0.5 -2.2,-1.6 -2.7,-2.9 -0.5,-1.3 -0.5,-2.8 0.1,-4 0.6,-1.2 1.7,-2.2 3.1,-2.7 1.4,-0.5 2.9,-0.4 4.1,0.3 1.2,0.6 2.1,1.7 2.5,3.1 z"
   id="path2180"
   style="fill:#00b2ff;fill-opacity:1" />
	</g>
	<g
   id="g2186"
   style="fill:#00b2ff;fill-opacity:1">
		<path
   fill="#FFFFFF"
   d="m 657.5,1677.8 c 0,2.9 -2.2,5.3 -4.9,5.4 -2.7,0.2 -5.1,-1.9 -5.5,-4.8 -0.3,-2.9 1.9,-5.5 4.9,-5.7 3,-0.1 5.5,2.2 5.5,5.1 z"
   id="path2184"
   style="fill:#00b2ff;fill-opacity:1" />
	</g>
	<g
   id="g2190"
   style="fill:#00b2ff;fill-opacity:1">
		<path
   fill="#FFFFFF"
   d="m 684.5,1680.2 c -0.7,2.9 -3.3,4.6 -5.9,4.2 -1.3,-0.2 -2.5,-1 -3.2,-2.1 -0.8,-1.1 -1.2,-2.4 -1.1,-3.8 0.2,-1.4 0.9,-2.7 2,-3.5 1.1,-0.8 2.5,-1.2 4,-0.9 3,0.3 4.9,3.3 4.2,6.1 z"
   id="path2188"
   style="fill:#00b2ff;fill-opacity:1" />
	</g>
	<g
   id="g2194"
   style="fill:#00b2ff;fill-opacity:1">
		<path
   fill="#FFFFFF"
   d="m 710.1,1689.3 c -1.1,2.7 -4.2,3.9 -6.8,2.8 -2.6,-1.1 -3.8,-4.1 -2.7,-6.8 1.1,-2.7 4.2,-4 6.8,-2.8 2.6,1.1 3.8,4.1 2.7,6.8 z"
   id="path2192"
   style="fill:#00b2ff;fill-opacity:1" />
	</g>
	<g
   id="g2198"
   style="fill:#00b2ff;fill-opacity:1">
		<path
   fill="#FFFFFF"
   d="m 736.1,1696.7 c -0.4,2.9 -3.1,4.8 -6.1,4.4 -3,-0.7 -4.8,-3.5 -4.1,-6.3 0.7,-2.8 3.4,-4.6 6,-4 2.7,0.3 4.6,3 4.2,5.9 z"
   id="path2196"
   style="fill:#00b2ff;fill-opacity:1" />
	</g>
</g>
<g
   id="g2270"
   style="fill:#00b2ff;fill-opacity:1"
   transform="matrix(4.4277089,0,0,5.1344178,-1353.7575,-7017.1927)">
	<g
   id="g2204"
   style="fill:#00b2ff;fill-opacity:1">
		<path
   fill="#FFFFFF"
   d="m 315.9,1706.2 c -0.7,2.8 -3.4,4.6 -6,4 -2.6,-0.4 -4.5,-3.1 -4.1,-6 0.4,-2.9 3.1,-4.8 6.1,-4.4 2.9,0.8 4.7,3.6 4,6.4 z"
   id="path2202"
   style="fill:#00b2ff;fill-opacity:1" />
	</g>
	<g
   id="g2208"
   style="fill:#00b2ff;fill-opacity:1">
		<path
   fill="#FFFFFF"
   d="m 341.3,1715.8 c -1.1,2.7 -4.2,4 -6.8,2.8 -2.7,-1.1 -3.8,-4.2 -2.7,-6.9 1.1,-2.7 4.2,-3.9 6.8,-2.8 2.6,1.2 3.8,4.2 2.7,6.9 z"
   id="path2206"
   style="fill:#00b2ff;fill-opacity:1" />
	</g>
	<g
   id="g2212"
   style="fill:#00b2ff;fill-opacity:1">
		<path
   fill="#FFFFFF"
   d="m 367.5,1722.5 c -0.2,1.4 -0.9,2.7 -2,3.5 -1.1,0.8 -2.5,1.2 -4,0.9 -3,-0.4 -4.9,-3.4 -4.3,-6.1 0.7,-2.9 3.3,-4.6 5.9,-4.2 1.3,0.2 2.5,1 3.2,2.1 1,1 1.4,2.3 1.2,3.8 z"
   id="path2210"
   style="fill:#00b2ff;fill-opacity:1" />
	</g>
	<g
   id="g2216"
   style="fill:#00b2ff;fill-opacity:1">
		<path
   fill="#FFFFFF"
   d="m 394.7,1722.6 c 0.3,2.9 -1.9,5.5 -4.9,5.7 -3,0.1 -5.4,-2.2 -5.5,-5.1 0,-2.9 2.2,-5.3 4.9,-5.4 2.7,-0.2 5.1,1.9 5.5,4.8 z"
   id="path2214"
   style="fill:#00b2ff;fill-opacity:1" />
	</g>
	<g
   id="g2220"
   style="fill:#00b2ff;fill-opacity:1">
		<path
   fill="#FFFFFF"
   d="m 421,1716.2 c 0.5,1.3 0.5,2.8 -0.1,4 -0.6,1.2 -1.7,2.2 -3.1,2.7 -1.4,0.5 -2.9,0.4 -4.1,-0.3 -1.2,-0.6 -2.1,-1.7 -2.5,-3.1 -0.4,-1.4 -0.2,-2.8 0.4,-4 0.6,-1.2 1.6,-2 2.9,-2.5 1.3,-0.5 2.6,-0.3 3.8,0.3 1.1,0.6 2.1,1.6 2.7,2.9 z"
   id="path2218"
   style="fill:#00b2ff;fill-opacity:1" />
	</g>
	<g
   id="g2224"
   style="fill:#00b2ff;fill-opacity:1">
		<path
   fill="#FFFFFF"
   d="m 446.3,1706.6 c 0.7,2.8 -0.8,5.7 -3.3,6.5 -2.5,0.9 -5.5,-0.6 -6.5,-3.2 -1.1,-2.7 0.4,-5.7 3.2,-6.7 2.9,-1.1 5.9,0.6 6.6,3.4 z"
   id="path2222"
   style="fill:#00b2ff;fill-opacity:1" />
	</g>
	<g
   id="g2228"
   style="fill:#00b2ff;fill-opacity:1">
		<path
   fill="#FFFFFF"
   d="m 473.2,1703.3 c 0,2.9 -2.2,5.3 -4.9,5.4 -1.4,0 -2.6,-0.5 -3.6,-1.3 -1,-0.9 -1.7,-2.1 -1.8,-3.6 -0.1,-1.4 0.3,-2.8 1.2,-3.8 0.9,-1 2.2,-1.7 3.7,-1.8 3,-0.1 5.4,2.2 5.4,5.1 z"
   id="path2226"
   style="fill:#00b2ff;fill-opacity:1" />
	</g>
	<g
   id="g2232"
   style="fill:#00b2ff;fill-opacity:1">
		<path
   fill="#FFFFFF"
   d="m 500.2,1706 c -0.3,1.4 -1.2,2.6 -2.3,3.3 -1.1,0.8 -2.4,1 -3.7,0.8 -2.7,-0.4 -4.5,-3.1 -4.2,-6 0.3,-2.9 3,-4.8 6,-4.4 1.5,0.2 2.7,1.1 3.5,2.3 0.8,1.1 1,2.6 0.7,4 z"
   id="path2230"
   style="fill:#00b2ff;fill-opacity:1" />
	</g>
	<g
   id="g2236"
   style="fill:#00b2ff;fill-opacity:1">
		<path
   fill="#FFFFFF"
   d="m 525.7,1715.3 c -1.1,2.7 -4.2,3.9 -6.9,2.8 -2.6,-1.1 -3.8,-4.2 -2.7,-6.8 1.1,-2.7 4.2,-3.9 6.9,-2.8 2.6,1 3.8,4.1 2.7,6.8 z"
   id="path2234"
   style="fill:#00b2ff;fill-opacity:1" />
	</g>
	<g
   id="g2240"
   style="fill:#00b2ff;fill-opacity:1">
		<path
   fill="#FFFFFF"
   d="m 551.8,1722.4 c -0.3,2.9 -3,4.8 -6,4.4 -1.5,-0.2 -2.7,-1.1 -3.5,-2.3 -0.8,-1.1 -1,-2.5 -0.7,-4 0.3,-1.4 1.2,-2.6 2.3,-3.3 1.1,-0.8 2.4,-1 3.7,-0.8 2.7,0.4 4.5,3.1 4.2,6 z"
   id="path2238"
   style="fill:#00b2ff;fill-opacity:1" />
	</g>
	<g
   id="g2244"
   style="fill:#00b2ff;fill-opacity:1">
		<path
   fill="#FFFFFF"
   d="m 579,1722.7 c 0.1,1.4 -0.3,2.8 -1.2,3.8 -0.9,1 -2.2,1.8 -3.7,1.8 -3,0.1 -5.4,-2.2 -5.4,-5.1 0,-2.9 2.2,-5.3 4.9,-5.4 1.4,0 2.6,0.5 3.6,1.3 0.9,0.9 1.6,2.2 1.8,3.6 z"
   id="path2242"
   style="fill:#00b2ff;fill-opacity:1" />
	</g>
	<g
   id="g2248"
   style="fill:#00b2ff;fill-opacity:1">
		<path
   fill="#FFFFFF"
   d="m 605.3,1716.7 c 1.1,2.7 -0.4,5.7 -3.2,6.7 -2.9,0.9 -5.9,-0.7 -6.6,-3.5 -0.7,-2.8 0.8,-5.7 3.3,-6.5 2.6,-0.8 5.5,0.6 6.5,3.3 z"
   id="path2246"
   style="fill:#00b2ff;fill-opacity:1" />
	</g>
	<g
   id="g2252"
   style="fill:#00b2ff;fill-opacity:1">
		<path
   fill="#FFFFFF"
   d="m 630.7,1706.9 c 0.4,1.4 0.2,2.8 -0.4,4 -0.6,1.2 -1.6,2 -2.9,2.5 -1.3,0.5 -2.6,0.3 -3.8,-0.3 -1.2,-0.5 -2.2,-1.6 -2.7,-2.9 -0.5,-1.3 -0.5,-2.8 0.1,-4 0.6,-1.2 1.7,-2.2 3.1,-2.7 1.4,-0.5 2.9,-0.4 4.1,0.3 1.2,0.6 2.1,1.7 2.5,3.1 z"
   id="path2250"
   style="fill:#00b2ff;fill-opacity:1" />
	</g>
	<g
   id="g2256"
   style="fill:#00b2ff;fill-opacity:1">
		<path
   fill="#FFFFFF"
   d="m 657.5,1703.3 c 0,2.9 -2.2,5.3 -4.9,5.4 -2.7,0.2 -5.1,-1.9 -5.5,-4.8 -0.3,-2.9 1.9,-5.5 4.9,-5.7 3,-0.1 5.5,2.2 5.5,5.1 z"
   id="path2254"
   style="fill:#00b2ff;fill-opacity:1" />
	</g>
	<g
   id="g2260"
   style="fill:#00b2ff;fill-opacity:1">
		<path
   fill="#FFFFFF"
   d="m 684.5,1705.7 c -0.7,2.9 -3.3,4.6 -5.9,4.2 -1.3,-0.2 -2.5,-1 -3.2,-2.1 -0.8,-1.1 -1.2,-2.4 -1.1,-3.8 0.2,-1.4 0.9,-2.7 2,-3.5 1.1,-0.8 2.5,-1.2 4,-0.9 3,0.3 4.9,3.3 4.2,6.1 z"
   id="path2258"
   style="fill:#00b2ff;fill-opacity:1" />
	</g>
	<g
   id="g2264"
   style="fill:#00b2ff;fill-opacity:1">
		<path
   fill="#FFFFFF"
   d="m 710.1,1714.8 c -1.1,2.7 -4.2,3.9 -6.8,2.8 -2.6,-1.1 -3.8,-4.1 -2.7,-6.8 1.1,-2.7 4.2,-4 6.8,-2.8 2.6,1.1 3.8,4.1 2.7,6.8 z"
   id="path2262"
   style="fill:#00b2ff;fill-opacity:1" />
	</g>
	<g
   id="g2268"
   style="fill:#00b2ff;fill-opacity:1">
		<path
   fill="#FFFFFF"
   d="m 736.1,1722.2 c -0.4,2.9 -3.1,4.8 -6.1,4.4 -3,-0.7 -4.8,-3.5 -4.1,-6.3 0.7,-2.8 3.4,-4.6 6,-4 2.7,0.3 4.6,3 4.2,5.9 z"
   id="path2266"
   style="fill:#00b2ff;fill-opacity:1" />
	</g>
</g>




</svg>
