<?xml version="1.0" encoding="UTF-8" standalone="no"?>
<!-- Generator: Adobe Illustrator 21.0.2, SVG Export Plug-In . SVG Version: 6.00 Build 0)  -->

<svg
   version="1.1"
   id="Layer_1"
   x="0px"
   y="0px"
   width="1895.4866"
   height="1859.9847"
   viewBox="0 0 1895.4866 1859.9847"
   enable-background="new 0 0 2272 1872"
   xml:space="preserve"
   sodipodi:docname="Free Particles Vector copy.svg"
   xmlns:inkscape="http://www.inkscape.org/namespaces/inkscape"
   xmlns:sodipodi="http://sodipodi.sourceforge.net/DTD/sodipodi-0.dtd"
   xmlns="http://www.w3.org/2000/svg"
   xmlns:svg="http://www.w3.org/2000/svg"><defs
   id="defs2687" /><sodipodi:namedview
   id="namedview2685"
   pagecolor="#ffffff"
   bordercolor="#000000"
   borderopacity="0.25"
   inkscape:showpageshadow="2"
   inkscape:pageopacity="0.0"
   inkscape:pagecheckerboard="0"
   inkscape:deskcolor="#d1d1d1"
   showgrid="false" />
























<g
   id="g2682"
   transform="matrix(4.6871589,0,0,4.5993683,-7389.3062,-5987.9174)"
   style="fill:#009700;fill-opacity:1">
	<g
   id="g2644"
   style="fill:#009700;fill-opacity:1">
		<path
   fill="#ffffff"
   d="m 1778.7,1560 c -50.5,0 -98.1,-5.7 -133.8,-16.2 -36.1,-10.5 -56,-24.6 -56,-39.8 0,-15.1 19.9,-29.2 56,-39.8 35.8,-10.4 83.3,-16.2 133.8,-16.2 50.5,0 98.1,5.7 133.8,16.2 36.1,10.5 56,24.6 56,39.8 0,15.1 -19.9,29.2 -56,39.8 -35.7,10.4 -83.3,16.2 -133.8,16.2 z m 0,-110.1 c -50.4,0 -97.7,5.7 -133.3,16.1 -35.3,10.3 -54.7,23.8 -54.7,38.1 0,14.3 19.4,27.8 54.7,38.1 35.6,10.4 83,16.1 133.3,16.1 50.4,0 97.7,-5.7 133.3,-16.1 35.3,-10.3 54.7,-23.8 54.7,-38.1 0,-14.3 -19.4,-27.8 -54.7,-38.1 -35.6,-10.4 -82.9,-16.1 -133.3,-16.1 z"
   id="path2634"
   style="fill:#009700;fill-opacity:1" />
		<circle
   fill="#ffffff"
   cx="1665.9"
   cy="1548"
   r="13.3"
   id="circle2636"
   style="fill:#009700;fill-opacity:1" />
		<circle
   fill="#ffffff"
   cx="1883.8"
   cy="1458.3"
   r="13.3"
   id="circle2638"
   style="fill:#009700;fill-opacity:1" />
		<circle
   fill="#ffffff"
   cx="1589.8"
   cy="1504.1"
   r="13.3"
   id="circle2640"
   style="fill:#009700;fill-opacity:1" />
		<circle
   fill="#ffffff"
   cx="1967.6"
   cy="1504.1"
   r="13.3"
   id="circle2642"
   style="fill:#009700;fill-opacity:1" />
	</g>
	<g
   id="g2656"
   style="fill:#009700;fill-opacity:1">
		<path
   fill="#ffffff"
   d="m 1661.4,1644.1 c -7.3,0 -13,-1.9 -16.9,-5.8 -10.7,-10.7 -6.6,-34.7 11.5,-67.7 17.9,-32.7 47.5,-70.3 83.2,-106 35.7,-35.7 73.4,-65.3 106.1,-83.2 32.9,-18.1 57,-22.1 67.7,-11.5 10.7,10.7 6.6,34.7 -11.5,67.7 -17.9,32.7 -47.5,70.3 -83.2,106.1 -35.7,35.8 -73.4,65.3 -106,83.2 -21,11.4 -38.3,17.2 -50.9,17.2 z M 1896,1365.7 c -12.2,0 -29.2,5.8 -49.9,17.1 -32.5,17.8 -70,47.3 -105.7,82.9 -35.7,35.6 -65.1,73.1 -82.9,105.7 -17.7,32.2 -21.8,55.5 -11.7,65.6 10.1,10.1 33.4,5.9 65.6,-11.7 32.5,-17.8 70,-47.3 105.7,-82.9 35.6,-35.6 65.1,-73.1 82.9,-105.7 17.7,-32.2 21.8,-55.5 11.7,-65.6 -3.7,-3.6 -9,-5.4 -15.7,-5.4 z"
   id="path2646"
   style="fill:#009700;fill-opacity:1" />
		
			<circle
   transform="matrix(0.7071,-0.7071,0.7071,0.7071,-635.1511,1696.2758)"
   fill="#ffffff"
   cx="1730"
   cy="1614.8"
   id="ellipse2648"
   r="13.3"
   style="fill:#009700;fill-opacity:1" />
		
			<circle
   transform="matrix(0.7071,-0.7071,0.7071,0.7071,-454.8291,1696.6948)"
   fill="#ffffff"
   cx="1820.7"
   cy="1397.4"
   id="ellipse2650"
   r="13.3"
   style="fill:#009700;fill-opacity:1" />
		
			<circle
   transform="matrix(0.7071,-0.7071,0.7071,0.7071,-676.1375,1642.921)"
   fill="#ffffff"
   cx="1645.1"
   cy="1637.6"
   id="ellipse2652"
   r="13.3"
   style="fill:#009700;fill-opacity:1" />
		
			<circle
   transform="matrix(0.7071,-0.7071,0.7071,0.7071,-408.9858,1753.5789)"
   fill="#ffffff"
   cx="1912.3"
   cy="1370.5"
   id="ellipse2654"
   r="13.3"
   style="fill:#009700;fill-opacity:1" />
	</g>
	<g
   id="g2668"
   style="fill:#009700;fill-opacity:1">
		<path
   fill="#ffffff"
   d="m 1778.7,1693.8 c -15.1,0 -29.2,-19.9 -39.8,-56 -10.4,-35.8 -16.2,-83.3 -16.2,-133.8 0,-50.5 5.7,-98.1 16.2,-133.8 10.5,-36.1 24.6,-56 39.8,-56 15.1,0 29.2,19.9 39.8,56 10.4,35.8 16.2,83.3 16.2,133.8 0,50.5 -5.7,98.1 -16.2,133.8 -10.6,36.2 -24.7,56 -39.8,56 z m 0,-377.8 c -14.3,0 -27.8,19.4 -38.1,54.7 -10.4,35.6 -16.1,83 -16.1,133.3 0,50.4 5.7,97.7 16.1,133.3 10.3,35.3 23.8,54.7 38.1,54.7 14.3,0 27.8,-19.4 38.1,-54.7 10.4,-35.6 16.1,-83 16.1,-133.3 0,-50.4 -5.7,-97.7 -16.1,-133.3 -10.3,-35.3 -23.8,-54.7 -38.1,-54.7 z"
   id="path2658"
   style="fill:#009700;fill-opacity:1" />
		<circle
   fill="#ffffff"
   cx="1822.6"
   cy="1616.8"
   r="13.3"
   id="circle2660"
   style="fill:#009700;fill-opacity:1" />
		<circle
   fill="#ffffff"
   cx="1732.9"
   cy="1398.9"
   r="13.3"
   id="circle2662"
   style="fill:#009700;fill-opacity:1" />
		<circle
   fill="#ffffff"
   cx="1778.7"
   cy="1693"
   r="13.3"
   id="circle2664"
   style="fill:#009700;fill-opacity:1" />
		<circle
   fill="#ffffff"
   cx="1778.7"
   cy="1315.2"
   r="13.3"
   id="circle2666"
   style="fill:#009700;fill-opacity:1" />
	</g>
	<g
   id="g2680"
   style="fill:#009700;fill-opacity:1">
		<path
   fill="#ffffff"
   d="m 1896,1644.1 c -12.6,0 -29.9,-5.8 -50.8,-17.3 -32.7,-17.9 -70.3,-47.5 -106.1,-83.2 -35.8,-35.7 -65.3,-73.4 -83.2,-106.1 -18.1,-32.9 -22.1,-57 -11.5,-67.7 v 0 c 10.7,-10.7 34.7,-6.6 67.7,11.5 32.7,17.9 70.3,47.5 106,83.2 35.7,35.7 65.3,73.4 83.2,106 18.1,33 22.1,57 11.5,67.7 -3.8,4 -9.5,5.9 -16.8,5.9 z m -250.3,-273 v 0 c -10.1,10.1 -5.9,33.4 11.7,65.6 17.8,32.5 47.3,70 82.9,105.7 35.6,35.7 73.1,65.1 105.7,82.9 32.2,17.7 55.5,21.8 65.6,11.7 10.1,-10.1 5.9,-33.4 -11.7,-65.6 -17.8,-32.5 -47.3,-70 -82.9,-105.7 -35.6,-35.6 -73.1,-65.1 -105.7,-82.9 -32.2,-17.6 -55.5,-21.8 -65.6,-11.7 z"
   id="path2670"
   style="fill:#009700;fill-opacity:1" />
		
			<circle
   transform="matrix(0.7071,-0.7071,0.7071,0.7071,-544.5358,1790.8394)"
   fill="#ffffff"
   cx="1889.5"
   cy="1552.7"
   id="ellipse2672"
   r="13.3"
   style="fill:#009700;fill-opacity:1" />
		
			<circle
   transform="matrix(0.7071,-0.7071,0.7071,0.7071,-544.1168,1610.5175)"
   fill="#ffffff"
   cx="1672"
   cy="1462.1"
   id="ellipse2674"
   r="13.3"
   style="fill:#009700;fill-opacity:1" />
		
			<circle
   transform="matrix(0.7071,-0.7071,0.7071,0.7071,-597.8906,1831.8258)"
   fill="#ffffff"
   cx="1912.3"
   cy="1637.6"
   id="ellipse2676"
   r="13.3"
   style="fill:#009700;fill-opacity:1" />
		
			<circle
   transform="matrix(0.7071,-0.7071,0.7071,0.7071,-487.2327,1564.6741)"
   fill="#ffffff"
   cx="1645.1"
   cy="1370.5"
   id="ellipse2678"
   r="13.3"
   style="fill:#009700;fill-opacity:1" />
	</g>
</g>
</svg>
