<?xml version="1.0" encoding="UTF-8" standalone="no"?>
<!-- Generator: Adobe Illustrator 21.0.2, SVG Export Plug-In . SVG Version: 6.00 Build 0)  -->

<svg
   version="1.1"
   id="Layer_1"
   x="0px"
   y="0px"
   width="1967.689"
   height="1853.1934"
   viewBox="0 0 1967.689 1853.1934"
   enable-background="new 0 0 2272 1872"
   xml:space="preserve"
   sodipodi:docname="Free Particles Vector copy.svg"
   xmlns:inkscape="http://www.inkscape.org/namespaces/inkscape"
   xmlns:sodipodi="http://sodipodi.sourceforge.net/DTD/sodipodi-0.dtd"
   xmlns="http://www.w3.org/2000/svg"
   xmlns:svg="http://www.w3.org/2000/svg"><defs
   id="defs2687" /><sodipodi:namedview
   id="namedview2685"
   pagecolor="#ffffff"
   bordercolor="#000000"
   borderopacity="0.25"
   inkscape:showpageshadow="2"
   inkscape:pageopacity="0.0"
   inkscape:pagecheckerboard="0"
   inkscape:deskcolor="#d1d1d1"
   showgrid="false" />

<g
   id="g302"
   style="fill:#ff0000"
   transform="matrix(4.4608678,0,0,4.2022523,-1368.1481,-419.38478)">
	<circle
   fill="#FFFFFF"
   cx="527.20001"
   cy="115.9"
   r="16.1"
   id="circle4"
   style="fill:#ff0000" />
	
		<circle
   transform="matrix(0.9659,-0.2588,0.2588,0.9659,-15.6311,126.9495)"
   fill="#FFFFFF"
   cx="474.29999"
   cy="122.8"
   id="ellipse6"
   style="fill:#ff0000"
   r="16.1" />
	<circle
   transform="matrix(0.866,-0.5,0.5,0.866,-14.6901,231.702)"
   fill="#FFFFFF"
   cx="425"
   cy="143.3"
   id="ellipse8"
   style="fill:#ff0000"
   r="16.1" />
	
		<circle
   transform="matrix(0.7071,-0.7071,0.7071,0.7071,-12.192,322.0697)"
   fill="#FFFFFF"
   cx="382.70001"
   cy="175.8"
   id="ellipse10"
   style="fill:#ff0000"
   r="16.1" />
	<circle
   transform="matrix(0.5,-0.866,0.866,0.5,-13.7795,412.3176)"
   fill="#FFFFFF"
   cx="350.20001"
   cy="218.10001"
   id="ellipse12"
   style="fill:#ff0000"
   r="16.1" />
	
		<circle
   transform="matrix(0.2588,-0.9659,0.9659,0.2588,-13.8719,516.7186)"
   fill="#FFFFFF"
   cx="329.79999"
   cy="267.39999"
   id="ellipse14"
   style="fill:#ff0000"
   r="16.1" />
	<circle
   fill="#FFFFFF"
   cx="322.79999"
   cy="320.29999"
   r="16.1"
   id="circle16"
   style="fill:#ff0000" />
	
		<circle
   transform="matrix(0.9659,-0.2588,0.2588,0.9659,-85.3606,98.0666)"
   fill="#FFFFFF"
   cx="329.79999"
   cy="373.20001"
   id="ellipse18"
   style="fill:#ff0000"
   r="16.1" />
	<circle
   transform="matrix(0.866,-0.5,0.5,0.866,-164.3481,231.702)"
   fill="#FFFFFF"
   cx="350.20001"
   cy="422.5"
   id="ellipse20"
   style="fill:#ff0000"
   r="16.1" />
	
		<circle
   transform="matrix(0.7071,-0.7071,0.7071,0.7071,-216.6286,406.7501)"
   fill="#FFFFFF"
   cx="382.70001"
   cy="464.89999"
   id="ellipse22"
   style="fill:#ff0000"
   r="16.1" />
	<circle
   transform="matrix(0.5,-0.866,0.866,0.5,-218.2161,616.7542)"
   fill="#FFFFFF"
   cx="425"
   cy="497.39999"
   id="ellipse24"
   style="fill:#ff0000"
   r="16.1" />
	
		<circle
   transform="matrix(0.2588,-0.9659,0.9659,0.2588,-148.5789,841.9302)"
   fill="#FFFFFF"
   cx="474.29999"
   cy="517.79999"
   id="ellipse26"
   style="fill:#ff0000"
   r="16.1" />
	<circle
   fill="#FFFFFF"
   cx="527.20001"
   cy="524.70001"
   r="16.1"
   id="circle28"
   style="fill:#ff0000" />
	
		<circle
   transform="matrix(0.9659,-0.2588,0.2588,0.9659,-114.2436,167.7961)"
   fill="#FFFFFF"
   cx="580.09998"
   cy="517.79999"
   id="ellipse30"
   style="fill:#ff0000"
   r="16.1" />
	<circle
   transform="matrix(0.866,-0.5,0.5,0.866,-164.3481,381.36)"
   fill="#FFFFFF"
   cx="629.5"
   cy="497.39999"
   id="ellipse32"
   style="fill:#ff0000"
   r="16.1" />
	
		<circle
   transform="matrix(0.7071,-0.7071,0.7071,0.7071,-131.9482,611.1867)"
   fill="#FFFFFF"
   cx="671.79999"
   cy="464.89999"
   id="ellipse34"
   style="fill:#ff0000"
   r="16.1" />
	<circle
   transform="matrix(0.5,-0.866,0.866,0.5,-13.7795,821.1907)"
   fill="#FFFFFF"
   cx="704.29999"
   cy="422.5"
   id="ellipse36"
   style="fill:#ff0000"
   r="16.1" />
	
		<circle
   transform="matrix(0.2588,-0.9659,0.9659,0.2588,176.6327,976.6373)"
   fill="#FFFFFF"
   cx="724.70001"
   cy="373.20001"
   id="ellipse38"
   style="fill:#ff0000"
   r="16.1" />
	<circle
   fill="#FFFFFF"
   cx="731.70001"
   cy="320.29999"
   r="16.1"
   id="circle40"
   style="fill:#ff0000" />
	
		<circle
   transform="matrix(0.9659,-0.2588,0.2588,0.9659,-44.514,196.679)"
   fill="#FFFFFF"
   cx="724.70001"
   cy="267.39999"
   id="ellipse42"
   style="fill:#ff0000"
   r="16.1" />
	<circle
   transform="matrix(0.866,-0.5,0.5,0.866,-14.6901,381.36)"
   fill="#FFFFFF"
   cx="704.29999"
   cy="218.10001"
   id="ellipse44"
   style="fill:#ff0000"
   r="16.1" />
	
		<circle
   transform="matrix(0.7071,-0.7071,0.7071,0.7071,72.4884,526.5063)"
   fill="#FFFFFF"
   cx="671.79999"
   cy="175.8"
   id="ellipse46"
   style="fill:#ff0000"
   r="16.1" />
	<circle
   transform="matrix(0.5,-0.866,0.866,0.5,190.6571,616.7542)"
   fill="#FFFFFF"
   cx="629.5"
   cy="143.3"
   id="ellipse48"
   style="fill:#ff0000"
   r="16.1" />
	
		<circle
   transform="matrix(0.2588,-0.9659,0.9659,0.2588,311.3398,651.4257)"
   fill="#FFFFFF"
   cx="580.09998"
   cy="122.8"
   id="ellipse50"
   style="fill:#ff0000"
   r="16.1" />
	<g
   id="g100"
   style="fill:#ff0000">
		<circle
   fill="#FFFFFF"
   cx="527.20001"
   cy="115.9"
   r="16.1"
   id="circle52"
   style="fill:#ff0000" />
		
			<circle
   transform="matrix(0.9659,-0.2588,0.2588,0.9659,-15.6311,126.9495)"
   fill="#FFFFFF"
   cx="474.29999"
   cy="122.8"
   id="ellipse54"
   style="fill:#ff0000"
   r="16.1" />
		<circle
   transform="matrix(0.866,-0.5,0.5,0.866,-14.6901,231.702)"
   fill="#FFFFFF"
   cx="425"
   cy="143.3"
   id="ellipse56"
   style="fill:#ff0000"
   r="16.1" />
		
			<circle
   transform="matrix(0.7071,-0.7071,0.7071,0.7071,-12.192,322.0697)"
   fill="#FFFFFF"
   cx="382.70001"
   cy="175.8"
   id="ellipse58"
   style="fill:#ff0000"
   r="16.1" />
		<circle
   transform="matrix(0.5,-0.866,0.866,0.5,-13.7795,412.3176)"
   fill="#FFFFFF"
   cx="350.20001"
   cy="218.10001"
   id="ellipse60"
   style="fill:#ff0000"
   r="16.1" />
		
			<circle
   transform="matrix(0.2588,-0.9659,0.9659,0.2588,-13.8719,516.7186)"
   fill="#FFFFFF"
   cx="329.79999"
   cy="267.39999"
   id="ellipse62"
   style="fill:#ff0000"
   r="16.1" />
		<circle
   fill="#FFFFFF"
   cx="322.79999"
   cy="320.29999"
   r="16.1"
   id="circle64"
   style="fill:#ff0000" />
		
			<circle
   transform="matrix(0.9659,-0.2588,0.2588,0.9659,-85.3606,98.0666)"
   fill="#FFFFFF"
   cx="329.79999"
   cy="373.20001"
   id="ellipse66"
   style="fill:#ff0000"
   r="16.1" />
		<circle
   transform="matrix(0.866,-0.5,0.5,0.866,-164.3481,231.702)"
   fill="#FFFFFF"
   cx="350.20001"
   cy="422.5"
   id="ellipse68"
   style="fill:#ff0000"
   r="16.1" />
		
			<circle
   transform="matrix(0.7071,-0.7071,0.7071,0.7071,-216.6286,406.7501)"
   fill="#FFFFFF"
   cx="382.70001"
   cy="464.89999"
   id="ellipse70"
   style="fill:#ff0000"
   r="16.1" />
		<circle
   transform="matrix(0.5,-0.866,0.866,0.5,-218.2161,616.7542)"
   fill="#FFFFFF"
   cx="425"
   cy="497.39999"
   id="ellipse72"
   style="fill:#ff0000"
   r="16.1" />
		
			<circle
   transform="matrix(0.2588,-0.9659,0.9659,0.2588,-148.5789,841.9302)"
   fill="#FFFFFF"
   cx="474.29999"
   cy="517.79999"
   id="ellipse74"
   style="fill:#ff0000"
   r="16.1" />
		<circle
   fill="#FFFFFF"
   cx="527.20001"
   cy="524.70001"
   r="16.1"
   id="circle76"
   style="fill:#ff0000" />
		
			<circle
   transform="matrix(0.9659,-0.2588,0.2588,0.9659,-114.2436,167.7961)"
   fill="#FFFFFF"
   cx="580.09998"
   cy="517.79999"
   id="ellipse78"
   style="fill:#ff0000"
   r="16.1" />
		<circle
   transform="matrix(0.866,-0.5,0.5,0.866,-164.3481,381.36)"
   fill="#FFFFFF"
   cx="629.5"
   cy="497.39999"
   id="ellipse80"
   style="fill:#ff0000"
   r="16.1" />
		
			<circle
   transform="matrix(0.7071,-0.7071,0.7071,0.7071,-131.9482,611.1867)"
   fill="#FFFFFF"
   cx="671.79999"
   cy="464.89999"
   id="ellipse82"
   style="fill:#ff0000"
   r="16.1" />
		<circle
   transform="matrix(0.5,-0.866,0.866,0.5,-13.7795,821.1907)"
   fill="#FFFFFF"
   cx="704.29999"
   cy="422.5"
   id="ellipse84"
   style="fill:#ff0000"
   r="16.1" />
		
			<circle
   transform="matrix(0.2588,-0.9659,0.9659,0.2588,176.6327,976.6373)"
   fill="#FFFFFF"
   cx="724.70001"
   cy="373.20001"
   id="ellipse86"
   style="fill:#ff0000"
   r="16.1" />
		<circle
   fill="#FFFFFF"
   cx="731.70001"
   cy="320.29999"
   r="16.1"
   id="circle88"
   style="fill:#ff0000" />
		
			<circle
   transform="matrix(0.9659,-0.2588,0.2588,0.9659,-44.514,196.679)"
   fill="#FFFFFF"
   cx="724.70001"
   cy="267.39999"
   id="ellipse90"
   style="fill:#ff0000"
   r="16.1" />
		<circle
   transform="matrix(0.866,-0.5,0.5,0.866,-14.6901,381.36)"
   fill="#FFFFFF"
   cx="704.29999"
   cy="218.10001"
   id="ellipse92"
   style="fill:#ff0000"
   r="16.1" />
		
			<circle
   transform="matrix(0.7071,-0.7071,0.7071,0.7071,72.4884,526.5063)"
   fill="#FFFFFF"
   cx="671.79999"
   cy="175.8"
   id="ellipse94"
   style="fill:#ff0000"
   r="16.1" />
		<circle
   transform="matrix(0.5,-0.866,0.866,0.5,190.6571,616.7542)"
   fill="#FFFFFF"
   cx="629.5"
   cy="143.3"
   id="ellipse96"
   style="fill:#ff0000"
   r="16.1" />
		
			<circle
   transform="matrix(0.2588,-0.9659,0.9659,0.2588,311.3398,651.4257)"
   fill="#FFFFFF"
   cx="580.09998"
   cy="122.8"
   id="ellipse98"
   style="fill:#ff0000"
   r="16.1" />
	</g>
	<g
   id="g150"
   style="fill:#ff0000">
		
			<circle
   transform="matrix(0.1194,-0.9929,0.9929,0.1194,322.8634,683.1969)"
   fill="#FFFFFF"
   cx="546.59998"
   cy="159.60001"
   id="ellipse102"
   style="fill:#ff0000"
   r="12.7" />
		
			<circle
   transform="matrix(0.9899,-0.1417,0.1417,0.9899,-17.592,73.0638)"
   fill="#FFFFFF"
   cx="504.29999"
   cy="160.10001"
   id="ellipse104"
   style="fill:#ff0000"
   r="12.7" />
		
			<circle
   transform="matrix(0.9195,-0.3931,0.3931,0.9195,-30.0829,196.0277)"
   fill="#FFFFFF"
   cx="463.60001"
   cy="171.5"
   id="ellipse106"
   style="fill:#ff0000"
   r="12.7" />
		
			<circle
   transform="matrix(0.7864,-0.6177,0.6177,0.7864,-27.9717,305.113)"
   fill="#FFFFFF"
   cx="427.29999"
   cy="193"
   id="ellipse108"
   style="fill:#ff0000"
   r="12.7" />
		
			<circle
   transform="matrix(0.5998,-0.8002,0.8002,0.5998,-19.4443,407.5687)"
   fill="#FFFFFF"
   cx="397.70001"
   cy="223.2"
   id="ellipse110"
   style="fill:#ff0000"
   r="12.7" />
		
			<circle
   transform="matrix(0.3723,-0.9281,0.9281,0.3723,-4.7049,513.1498)"
   fill="#FFFFFF"
   cx="377"
   cy="260.10001"
   id="ellipse112"
   style="fill:#ff0000"
   r="12.7" />
		
			<circle
   transform="matrix(0.1194,-0.9929,0.9929,0.1194,23.9369,628.9673)"
   fill="#FFFFFF"
   cx="366.5"
   cy="301"
   id="ellipse114"
   style="fill:#ff0000"
   r="12.7" />
		
			<circle
   transform="matrix(0.9899,-0.1417,0.1417,0.9899,-44.9285,55.4584)"
   fill="#FFFFFF"
   cx="367"
   cy="343.20001"
   id="ellipse116"
   style="fill:#ff0000"
   r="12.7" />
		
			<circle
   transform="matrix(0.9195,-0.3931,0.3931,0.9195,-120.4536,179.6332)"
   fill="#FFFFFF"
   cx="378.39999"
   cy="383.89999"
   id="ellipse118"
   style="fill:#ff0000"
   r="12.7" />
		
			<circle
   transform="matrix(0.7864,-0.6177,0.6177,0.7864,-174.1882,336.773)"
   fill="#FFFFFF"
   cx="399.89999"
   cy="420.29999"
   id="ellipse120"
   style="fill:#ff0000"
   r="12.7" />
		
			<circle
   transform="matrix(0.5998,-0.8002,0.8002,0.5998,-187.7872,524.2111)"
   fill="#FFFFFF"
   cx="430.10001"
   cy="449.79999"
   id="ellipse122"
   style="fill:#ff0000"
   r="12.7" />
		
			<circle
   transform="matrix(0.3723,-0.9281,0.9281,0.3723,-143.5867,728.7971)"
   fill="#FFFFFF"
   cx="467"
   cy="470.5"
   id="ellipse124"
   style="fill:#ff0000"
   r="12.7" />
		
			<circle
   transform="matrix(0.1194,-0.9929,0.9929,0.1194,-30.2927,927.8938)"
   fill="#FFFFFF"
   cx="507.89999"
   cy="481"
   id="ellipse126"
   style="fill:#ff0000"
   r="12.7" />
		
			<circle
   transform="matrix(0.9899,-0.1417,0.1417,0.9899,-62.5338,82.7949)"
   fill="#FFFFFF"
   cx="550.20001"
   cy="480.5"
   id="ellipse128"
   style="fill:#ff0000"
   r="12.7" />
		
			<circle
   transform="matrix(0.9195,-0.3931,0.3931,0.9195,-136.8482,270.0039)"
   fill="#FFFFFF"
   cx="590.90002"
   cy="469.20001"
   id="ellipse130"
   style="fill:#ff0000"
   r="12.7" />
		
			<circle
   transform="matrix(0.7864,-0.6177,0.6177,0.7864,-142.5282,482.9895)"
   fill="#FFFFFF"
   cx="627.20001"
   cy="447.60001"
   id="ellipse132"
   style="fill:#ff0000"
   r="12.7" />
		
			<circle
   transform="matrix(0.5998,-0.8002,0.8002,0.5998,-71.1448,692.554)"
   fill="#FFFFFF"
   cx="656.79999"
   cy="417.39999"
   id="ellipse134"
   style="fill:#ff0000"
   r="12.7" />
		
			<circle
   transform="matrix(0.3723,-0.9281,0.9281,0.3723,72.0606,867.6789)"
   fill="#FFFFFF"
   cx="677.5"
   cy="380.60001"
   id="ellipse136"
   style="fill:#ff0000"
   r="12.7" />
		
			<circle
   transform="matrix(0.1194,-0.9929,0.9929,0.1194,268.6338,982.1234)"
   fill="#FFFFFF"
   cx="687.90002"
   cy="339.60001"
   id="ellipse138"
   style="fill:#ff0000"
   r="12.7" />
		
			<circle
   transform="matrix(0.9899,-0.1417,0.1417,0.9899,-35.1973,100.4003)"
   fill="#FFFFFF"
   cx="687.5"
   cy="297.39999"
   id="ellipse140"
   style="fill:#ff0000"
   r="12.7" />
		
			<circle
   transform="matrix(0.9195,-0.3931,0.3931,0.9195,-46.4775,286.3984)"
   fill="#FFFFFF"
   cx="676.09998"
   cy="256.70001"
   id="ellipse142"
   style="fill:#ff0000"
   r="12.7" />
		
			<circle
   transform="matrix(0.7864,-0.6177,0.6177,0.7864,3.6883,451.3295)"
   fill="#FFFFFF"
   cx="654.5"
   cy="220.3"
   id="ellipse144"
   style="fill:#ff0000"
   r="12.7" />
		
			<circle
   transform="matrix(0.5998,-0.8002,0.8002,0.5998,97.1981,575.9116)"
   fill="#FFFFFF"
   cx="624.29999"
   cy="190.8"
   id="ellipse146"
   style="fill:#ff0000"
   r="12.7" />
		
			<circle
   transform="matrix(0.3723,-0.9281,0.9281,0.3723,210.9424,652.0316)"
   fill="#FFFFFF"
   cx="587.5"
   cy="170.10001"
   id="ellipse148"
   style="fill:#ff0000"
   r="12.7" />
	</g>
	<g
   id="g200"
   style="fill:#ff0000">
		<circle
   fill="#FFFFFF"
   cx="527.20001"
   cy="201"
   r="9.3999996"
   id="circle152"
   style="fill:#ff0000" />
		
			<circle
   transform="matrix(0.9659,-0.2588,0.2588,0.9659,-36.1637,135.4544)"
   fill="#FFFFFF"
   cx="496.39999"
   cy="205.10001"
   id="ellipse154"
   style="fill:#ff0000"
   r="9.3999996" />
		<circle
   transform="matrix(0.866,-0.5,0.5,0.866,-45.8512,262.863)"
   fill="#FFFFFF"
   cx="467.60001"
   cy="217"
   id="ellipse156"
   style="fill:#ff0000"
   r="9.3999996" />
		
			<circle
   transform="matrix(0.7071,-0.7071,0.7071,0.7071,-37.1271,382.2682)"
   fill="#FFFFFF"
   cx="442.89999"
   cy="236"
   id="ellipse158"
   style="fill:#ff0000"
   r="9.3999996" />
		<circle
   transform="matrix(0.5,-0.866,0.866,0.5,-13.7795,497.4511)"
   fill="#FFFFFF"
   cx="423.89999"
   cy="260.70001"
   id="ellipse160"
   style="fill:#ff0000"
   r="9.3999996" />
		
			<circle
   transform="matrix(0.2588,-0.9659,0.9659,0.2588,25.7941,612.4806)"
   fill="#FFFFFF"
   cx="412"
   cy="289.39999"
   id="ellipse162"
   style="fill:#ff0000"
   r="9.3999996" />
		<circle
   fill="#FFFFFF"
   cx="407.89999"
   cy="320.29999"
   r="9.3999996"
   id="circle164"
   style="fill:#ff0000" />
		
			<circle
   transform="matrix(0.9659,-0.2588,0.2588,0.9659,-76.8558,118.5992)"
   fill="#FFFFFF"
   cx="412"
   cy="351.20001"
   id="ellipse166"
   style="fill:#ff0000"
   r="9.3999996" />
		<circle
   transform="matrix(0.866,-0.5,0.5,0.866,-133.1871,262.863)"
   fill="#FFFFFF"
   cx="423.89999"
   cy="380"
   id="ellipse168"
   style="fill:#ff0000"
   r="9.3999996" />
		
			<circle
   transform="matrix(0.7071,-0.7071,0.7071,0.7071,-156.4301,431.6852)"
   fill="#FFFFFF"
   cx="442.89999"
   cy="404.70001"
   id="ellipse170"
   style="fill:#ff0000"
   r="9.3999996" />
		<circle
   transform="matrix(0.5,-0.866,0.866,0.5,-133.0825,616.7542)"
   fill="#FFFFFF"
   cx="467.60001"
   cy="423.60001"
   id="ellipse172"
   style="fill:#ff0000"
   r="9.3999996" />
		
			<circle
   transform="matrix(0.2588,-0.9659,0.9659,0.2588,-52.8169,802.2643)"
   fill="#FFFFFF"
   cx="496.39999"
   cy="435.5"
   id="ellipse174"
   style="fill:#ff0000"
   r="9.3999996" />
		<circle
   fill="#FFFFFF"
   cx="527.20001"
   cy="439.60001"
   r="9.3999996"
   id="circle176"
   style="fill:#ff0000" />
		
			<circle
   transform="matrix(0.9659,-0.2588,0.2588,0.9659,-93.711,159.2912)"
   fill="#FFFFFF"
   cx="558.09998"
   cy="435.5"
   id="ellipse178"
   style="fill:#ff0000"
   r="9.3999996" />
		<circle
   transform="matrix(0.866,-0.5,0.5,0.866,-133.1871,350.1989)"
   fill="#FFFFFF"
   cx="586.90002"
   cy="423.60001"
   id="ellipse180"
   style="fill:#ff0000"
   r="9.3999996" />
		
			<circle
   transform="matrix(0.7071,-0.7071,0.7071,0.7071,-107.0132,550.9882)"
   fill="#FFFFFF"
   cx="611.59998"
   cy="404.70001"
   id="ellipse182"
   style="fill:#ff0000"
   r="9.3999996" />
		<circle
   transform="matrix(0.5,-0.866,0.866,0.5,-13.7795,736.0572)"
   fill="#FFFFFF"
   cx="630.59998"
   cy="380"
   id="ellipse184"
   style="fill:#ff0000"
   r="9.3999996" />
		
			<circle
   transform="matrix(0.2588,-0.9659,0.9659,0.2588,136.9668,880.8752)"
   fill="#FFFFFF"
   cx="642.5"
   cy="351.20001"
   id="ellipse186"
   style="fill:#ff0000"
   r="9.3999996" />
		<circle
   fill="#FFFFFF"
   cx="646.5"
   cy="320.29999"
   r="9.3999996"
   id="circle188"
   style="fill:#ff0000" />
		
			<circle
   transform="matrix(0.9659,-0.2588,0.2588,0.9659,-53.0189,176.1464)"
   fill="#FFFFFF"
   cx="642.5"
   cy="289.39999"
   id="ellipse190"
   style="fill:#ff0000"
   r="9.3999996" />
		<circle
   transform="matrix(0.866,-0.5,0.5,0.866,-45.8512,350.1989)"
   fill="#FFFFFF"
   cx="630.59998"
   cy="260.70001"
   id="ellipse192"
   style="fill:#ff0000"
   r="9.3999996" />
		
			<circle
   transform="matrix(0.7071,-0.7071,0.7071,0.7071,12.2898,501.5713)"
   fill="#FFFFFF"
   cx="611.59998"
   cy="236"
   id="ellipse194"
   style="fill:#ff0000"
   r="9.3999996" />
		<circle
   transform="matrix(0.5,-0.866,0.866,0.5,105.5235,616.7542)"
   fill="#FFFFFF"
   cx="586.90002"
   cy="217"
   id="ellipse196"
   style="fill:#ff0000"
   r="9.3999996" />
		
			<circle
   transform="matrix(0.2588,-0.9659,0.9659,0.2588,215.5777,691.0916)"
   fill="#FFFFFF"
   cx="558.09998"
   cy="205.10001"
   id="ellipse198"
   style="fill:#ff0000"
   r="9.3999996" />
	</g>
	<g
   id="g250"
   style="fill:#ff0000">
		
			<circle
   transform="matrix(0.1194,-0.9929,0.9929,0.1194,229.9942,747.5447)"
   fill="#FFFFFF"
   cx="536.40002"
   cy="244.10001"
   id="ellipse202"
   style="fill:#ff0000"
   r="6" />
		
			<circle
   transform="matrix(0.9899,-0.1417,0.1417,0.9899,-29.4103,75.6228)"
   fill="#FFFFFF"
   cx="516.40002"
   cy="244.3"
   id="ellipse204"
   style="fill:#ff0000"
   r="6" />
		
			<circle
   transform="matrix(0.9195,-0.3931,0.3931,0.9195,-58.1589,215.4812)"
   fill="#FFFFFF"
   cx="497.10001"
   cy="249.8"
   id="ellipse206"
   style="fill:#ff0000"
   r="6" />
		<circle
   transform="matrix(0.7864,-0.6177,0.6177,0.7864,-58.0966,351.8891)"
   fill="#FFFFFF"
   cx="479.79999"
   cy="260"
   id="ellipse208"
   style="fill:#ff0000"
   r="6" />
		
			<circle
   transform="matrix(0.5998,-0.8002,0.8002,0.5998,-33.0399,482.5111)"
   fill="#FFFFFF"
   cx="465.79999"
   cy="274.29999"
   id="ellipse210"
   style="fill:#ff0000"
   r="6" />
		<circle
   transform="matrix(0.3723,-0.9281,0.9281,0.3723,15.4821,606.3801)"
   fill="#FFFFFF"
   cx="456"
   cy="291.70001"
   id="ellipse212"
   style="fill:#ff0000"
   r="6" />
		<circle
   transform="matrix(0.1194,-0.9929,0.9929,0.1194,88.2847,721.8365)"
   fill="#FFFFFF"
   cx="451"
   cy="311.20001"
   id="ellipse214"
   style="fill:#ff0000"
   r="6" />
		
			<circle
   transform="matrix(0.9899,-0.1417,0.1417,0.9899,-42.3695,67.2768)"
   fill="#FFFFFF"
   cx="451.29999"
   cy="331.20001"
   id="ellipse216"
   style="fill:#ff0000"
   r="6" />
		
			<circle
   transform="matrix(0.9195,-0.3931,0.3931,0.9195,-101.0002,207.7092)"
   fill="#FFFFFF"
   cx="456.70001"
   cy="350.5"
   id="ellipse218"
   style="fill:#ff0000"
   r="6" />
		
			<circle
   transform="matrix(0.7864,-0.6177,0.6177,0.7864,-127.4121,366.8978)"
   fill="#FFFFFF"
   cx="466.89999"
   cy="367.70001"
   id="ellipse220"
   style="fill:#ff0000"
   r="6" />
		
			<circle
   transform="matrix(0.5998,-0.8002,0.8002,0.5998,-112.8448,537.8068)"
   fill="#FFFFFF"
   cx="481.20001"
   cy="381.70001"
   id="ellipse222"
   style="fill:#ff0000"
   r="6" />
		
			<circle
   transform="matrix(0.3723,-0.9281,0.9281,0.3723,-50.3564,708.6101)"
   fill="#FFFFFF"
   cx="498.70001"
   cy="391.5"
   id="ellipse224"
   style="fill:#ff0000"
   r="6" />
		<circle
   transform="matrix(0.1194,-0.9929,0.9929,0.1194,62.5765,863.546)"
   fill="#FFFFFF"
   cx="518.09998"
   cy="396.5"
   id="ellipse226"
   style="fill:#ff0000"
   r="6" />
		
			<circle
   transform="matrix(0.9899,-0.1417,0.1417,0.9899,-50.7155,80.2359)"
   fill="#FFFFFF"
   cx="538.09998"
   cy="396.29999"
   id="ellipse228"
   style="fill:#ff0000"
   r="6" />
		
			<circle
   transform="matrix(0.9195,-0.3931,0.3931,0.9195,-108.7722,250.5504)"
   fill="#FFFFFF"
   cx="557.40002"
   cy="390.89999"
   id="ellipse230"
   style="fill:#ff0000"
   r="6" />
		
			<circle
   transform="matrix(0.7864,-0.6177,0.6177,0.7864,-112.4034,436.2134)"
   fill="#FFFFFF"
   cx="574.59998"
   cy="380.70001"
   id="ellipse232"
   style="fill:#ff0000"
   r="6" />
		
			<circle
   transform="matrix(0.5998,-0.8002,0.8002,0.5998,-57.5491,617.6116)"
   fill="#FFFFFF"
   cx="588.59998"
   cy="366.29999"
   id="ellipse234"
   style="fill:#ff0000"
   r="6" />
		
			<circle
   transform="matrix(0.3723,-0.9281,0.9281,0.3723,51.8737,774.4486)"
   fill="#FFFFFF"
   cx="598.5"
   cy="348.89999"
   id="ellipse236"
   style="fill:#ff0000"
   r="6" />
		
			<circle
   transform="matrix(0.1194,-0.9929,0.9929,0.1194,204.286,889.2542)"
   fill="#FFFFFF"
   cx="603.40002"
   cy="329.5"
   id="ellipse238"
   style="fill:#ff0000"
   r="6" />
		
			<circle
   transform="matrix(0.9899,-0.1417,0.1417,0.9899,-37.7563,88.5819)"
   fill="#FFFFFF"
   cx="603.20001"
   cy="309.39999"
   id="ellipse240"
   style="fill:#ff0000"
   r="6" />
		
			<circle
   transform="matrix(0.9195,-0.3931,0.3931,0.9195,-65.9309,258.3224)"
   fill="#FFFFFF"
   cx="597.79999"
   cy="290.10001"
   id="ellipse242"
   style="fill:#ff0000"
   r="6" />
		
			<circle
   transform="matrix(0.7864,-0.6177,0.6177,0.7864,-43.0878,421.2047)"
   fill="#FFFFFF"
   cx="587.59998"
   cy="272.89999"
   id="ellipse244"
   style="fill:#ff0000"
   r="6" />
		<circle
   transform="matrix(0.5998,-0.8002,0.8002,0.5998,22.2557,562.316)"
   fill="#FFFFFF"
   cx="573.29999"
   cy="258.89999"
   id="ellipse246"
   style="fill:#ff0000"
   r="6" />
		
			<circle
   transform="matrix(0.3723,-0.9281,0.9281,0.3723,117.7121,672.2186)"
   fill="#FFFFFF"
   cx="555.79999"
   cy="249.10001"
   id="ellipse248"
   style="fill:#ff0000"
   r="6" />
	</g>
	<g
   id="g300"
   style="fill:#ff0000">
		<circle
   fill="#FFFFFF"
   cx="527.20001"
   cy="286.10001"
   r="2.7"
   id="circle252"
   style="fill:#ff0000" />
		
			<circle
   transform="matrix(0.9659,-0.2588,0.2588,0.9659,-56.6963,143.9592)"
   fill="#FFFFFF"
   cx="518.40002"
   cy="287.29999"
   id="ellipse254"
   style="fill:#ff0000"
   r="2.7" />
		<circle
   transform="matrix(0.866,-0.5,0.5,0.866,-77.0123,294.0241)"
   fill="#FFFFFF"
   cx="510.20001"
   cy="290.70001"
   id="ellipse256"
   style="fill:#ff0000"
   r="2.7" />
		
			<circle
   transform="matrix(0.7071,-0.7071,0.7071,0.7071,-62.0621,442.4668)"
   fill="#FFFFFF"
   cx="503.10001"
   cy="296.10001"
   id="ellipse258"
   style="fill:#ff0000"
   r="2.7" />
		<circle
   transform="matrix(0.5,-0.866,0.866,0.5,-13.7795,582.5847)"
   fill="#FFFFFF"
   cx="497.60001"
   cy="303.20001"
   id="ellipse260"
   style="fill:#ff0000"
   r="2.7" />
		
			<circle
   transform="matrix(0.2588,-0.9659,0.9659,0.2588,65.46,708.2427)"
   fill="#FFFFFF"
   cx="494.20001"
   cy="311.5"
   id="ellipse262"
   style="fill:#ff0000"
   r="2.7" />
		<circle
   fill="#FFFFFF"
   cx="493.10001"
   cy="320.29999"
   r="2.7"
   id="circle264"
   style="fill:#ff0000" />
		
			<circle
   transform="matrix(0.9659,-0.2588,0.2588,0.9659,-68.3509,139.1318)"
   fill="#FFFFFF"
   cx="494.20001"
   cy="329.20001"
   id="ellipse266"
   style="fill:#ff0000"
   r="2.7" />
		<circle
   transform="matrix(0.866,-0.5,0.5,0.866,-102.026,294.0241)"
   fill="#FFFFFF"
   cx="497.60001"
   cy="337.39999"
   id="ellipse268"
   style="fill:#ff0000"
   r="2.7" />
		
			<circle
   transform="matrix(0.7071,-0.7071,0.7071,0.7071,-96.2316,456.6202)"
   fill="#FFFFFF"
   cx="503.10001"
   cy="344.5"
   id="ellipse270"
   style="fill:#ff0000"
   r="2.7" />
		<circle
   transform="matrix(0.5,-0.866,0.866,0.5,-47.9489,616.7542)"
   fill="#FFFFFF"
   cx="510.20001"
   cy="349.89999"
   id="ellipse272"
   style="fill:#ff0000"
   r="2.7" />
		
			<circle
   transform="matrix(0.2588,-0.9659,0.9659,0.2588,42.9452,762.5983)"
   fill="#FFFFFF"
   cx="518.40002"
   cy="353.29999"
   id="ellipse274"
   style="fill:#ff0000"
   r="2.7" />
		<circle
   fill="#FFFFFF"
   cx="527.20001"
   cy="354.5"
   r="2.7"
   id="circle276"
   style="fill:#ff0000" />
		
			<circle
   transform="matrix(0.9659,-0.2588,0.2588,0.9659,-73.1784,150.7863)"
   fill="#FFFFFF"
   cx="536.09998"
   cy="353.29999"
   id="ellipse278"
   style="fill:#ff0000"
   r="2.7" />
		<circle
   transform="matrix(0.866,-0.5,0.5,0.866,-102.026,319.0378)"
   fill="#FFFFFF"
   cx="544.29999"
   cy="349.89999"
   id="ellipse280"
   style="fill:#ff0000"
   r="2.7" />
		
			<circle
   transform="matrix(0.7071,-0.7071,0.7071,0.7071,-82.0781,490.7896)"
   fill="#FFFFFF"
   cx="551.40002"
   cy="344.5"
   id="ellipse282"
   style="fill:#ff0000"
   r="2.7" />
		<circle
   transform="matrix(0.5,-0.866,0.866,0.5,-13.7795,650.9236)"
   fill="#FFFFFF"
   cx="556.79999"
   cy="337.39999"
   id="ellipse284"
   style="fill:#ff0000"
   r="2.7" />
		
			<circle
   transform="matrix(0.2588,-0.9659,0.9659,0.2588,97.3008,785.1132)"
   fill="#FFFFFF"
   cx="560.20001"
   cy="329.20001"
   id="ellipse286"
   style="fill:#ff0000"
   r="2.7" />
		<circle
   fill="#FFFFFF"
   cx="561.40002"
   cy="320.29999"
   r="2.7"
   id="circle288"
   style="fill:#ff0000" />
		
			<circle
   transform="matrix(0.9659,-0.2588,0.2588,0.9659,-61.5238,155.6138)"
   fill="#FFFFFF"
   cx="560.20001"
   cy="311.5"
   id="ellipse290"
   style="fill:#ff0000"
   r="2.7" />
		<circle
   transform="matrix(0.866,-0.5,0.5,0.866,-77.0123,319.0378)"
   fill="#FFFFFF"
   cx="556.79999"
   cy="303.20001"
   id="ellipse292"
   style="fill:#ff0000"
   r="2.7" />
		
			<circle
   transform="matrix(0.7071,-0.7071,0.7071,0.7071,-47.9087,476.6362)"
   fill="#FFFFFF"
   cx="551.40002"
   cy="296.10001"
   id="ellipse294"
   style="fill:#ff0000"
   r="2.7" />
		<circle
   transform="matrix(0.5,-0.866,0.866,0.5,20.3899,616.7542)"
   fill="#FFFFFF"
   cx="544.29999"
   cy="290.70001"
   id="ellipse296"
   style="fill:#ff0000"
   r="2.7" />
		
			<circle
   transform="matrix(0.2588,-0.9659,0.9659,0.2588,119.8157,730.7575)"
   fill="#FFFFFF"
   cx="536.09998"
   cy="287.29999"
   id="ellipse298"
   style="fill:#ff0000"
   r="2.7" />
	</g>
</g>























</svg>
